G04 Layer_Color=128*
%FSTAX24Y24*%
%MOIN*%
G70*
G01*
G75*
%ADD19C,0.0020*%
D19*
X042507Y027035D02*
X042822D01*
X042665Y026878D02*
Y027193D01*
X042507Y028035D02*
X042822D01*
X042665Y027878D02*
Y028193D01*
X042507Y031035D02*
X042822D01*
X042665Y030878D02*
Y031193D01*
X042507Y030035D02*
X042822D01*
X042665Y029878D02*
Y030193D01*
X042507Y029035D02*
X042822D01*
X042665Y028878D02*
Y029193D01*
X040507Y027035D02*
X040822D01*
X040665Y026878D02*
Y027193D01*
X040507Y028035D02*
X040822D01*
X040665Y027878D02*
Y028193D01*
X040507Y031035D02*
X040822D01*
X040665Y030878D02*
Y031193D01*
X040507Y030035D02*
X040822D01*
X040665Y029878D02*
Y030193D01*
X040507Y029035D02*
X040822D01*
X040665Y028878D02*
Y029193D01*
X039405Y027035D02*
X03972D01*
X039562Y026878D02*
Y027193D01*
X039405Y028035D02*
X03972D01*
X039562Y027878D02*
Y028193D01*
X039405Y031035D02*
X03972D01*
X039562Y030878D02*
Y031193D01*
X039405Y030035D02*
X03972D01*
X039562Y029878D02*
Y030193D01*
X039405Y029035D02*
X03972D01*
X039562Y028878D02*
Y029193D01*
X037405Y027035D02*
X03772D01*
X037562Y026878D02*
Y027193D01*
X037405Y028035D02*
X03772D01*
X037562Y027878D02*
Y028193D01*
X037405Y031035D02*
X03772D01*
X037562Y030878D02*
Y031193D01*
X037405Y030035D02*
X03772D01*
X037562Y029878D02*
Y030193D01*
X037405Y029035D02*
X03772D01*
X037562Y028878D02*
Y029193D01*
M02*
