G04 Layer_Physical_Order=2*
G04 Layer_Color=16711680*
%FSTAX24Y24*%
%MOIN*%
G70*
G01*
G75*
%ADD10R,0.0315X0.0787*%
%ADD11C,0.0118*%
%ADD12C,0.0315*%
%ADD13C,0.0197*%
%ADD14C,0.0276*%
%ADD15C,0.0600*%
G36*
X039286Y031397D02*
X039306Y031384D01*
X039328Y031372D01*
X039353Y031362D01*
X039381Y031353D01*
X039411Y031346D01*
X039444Y031341D01*
X03948Y031337D01*
X039559Y031335D01*
X039262Y031038D01*
X039262Y031079D01*
X039256Y031153D01*
X039251Y031186D01*
X039244Y031216D01*
X039235Y031244D01*
X039225Y031269D01*
X039214Y031292D01*
X0392Y031311D01*
X039185Y031329D01*
X039269Y031412D01*
X039286Y031397D01*
D02*
G37*
G36*
X042901Y031224D02*
X042924Y031205D01*
X042947Y031188D01*
X042971Y031174D01*
X042996Y031161D01*
X043021Y031151D01*
X043047Y031144D01*
X043073Y031138D01*
X0431Y031135D01*
X043128Y031133D01*
Y030937D01*
X0431Y030935D01*
X043073Y030932D01*
X043047Y030927D01*
X043021Y030919D01*
X042996Y030909D01*
X042971Y030896D01*
X042947Y030882D01*
X042924Y030865D01*
X042901Y030846D01*
X042879Y030825D01*
Y031245D01*
X042901Y031224D01*
D02*
G37*
G36*
X037348Y030825D02*
X037336Y030835D01*
X037323Y030844D01*
X037306Y030852D01*
X037288Y030859D01*
X037267Y030864D01*
X037244Y030869D01*
X037218Y030873D01*
X03716Y030877D01*
X037127Y030878D01*
Y031193D01*
X03716Y031193D01*
X037218Y031197D01*
X037244Y031201D01*
X037267Y031206D01*
X037288Y031211D01*
X037306Y031218D01*
X037323Y031226D01*
X037336Y031235D01*
X037348Y031245D01*
Y030825D01*
D02*
G37*
G36*
X041042Y030329D02*
X041027Y030311D01*
X041013Y030292D01*
X041001Y030269D01*
X040991Y030244D01*
X040983Y030216D01*
X040976Y030186D01*
X040971Y030153D01*
X040967Y030117D01*
X040965Y030038D01*
X040668Y030335D01*
X040709Y030335D01*
X040782Y030341D01*
X040816Y030346D01*
X040846Y030353D01*
X040874Y030362D01*
X040899Y030372D01*
X040921Y030384D01*
X040941Y030397D01*
X040958Y030412D01*
X041042Y030329D01*
D02*
G37*
G36*
X039286Y030397D02*
X039306Y030384D01*
X039328Y030372D01*
X039353Y030362D01*
X039381Y030353D01*
X039411Y030346D01*
X039444Y030341D01*
X03948Y030337D01*
X039559Y030335D01*
X039262Y030038D01*
X039262Y030079D01*
X039256Y030153D01*
X039251Y030186D01*
X039244Y030216D01*
X039235Y030244D01*
X039225Y030269D01*
X039214Y030292D01*
X0392Y030311D01*
X039185Y030329D01*
X039269Y030412D01*
X039286Y030397D01*
D02*
G37*
G36*
X042901Y030224D02*
X042924Y030205D01*
X042947Y030188D01*
X042971Y030174D01*
X042996Y030161D01*
X043021Y030151D01*
X043047Y030144D01*
X043073Y030138D01*
X0431Y030135D01*
X043128Y030133D01*
Y029937D01*
X0431Y029936D01*
X043073Y029932D01*
X043047Y029927D01*
X043021Y029919D01*
X042996Y029909D01*
X042971Y029896D01*
X042947Y029882D01*
X042924Y029865D01*
X042901Y029846D01*
X042879Y029825D01*
Y030245D01*
X042901Y030224D01*
D02*
G37*
G36*
X037348Y029825D02*
X037326Y029846D01*
X037303Y029865D01*
X03728Y029882D01*
X037256Y029896D01*
X037231Y029909D01*
X037206Y029919D01*
X03718Y029927D01*
X037154Y029932D01*
X037126Y029936D01*
X037099Y029937D01*
Y030133D01*
X037126Y030135D01*
X037154Y030138D01*
X03718Y030144D01*
X037206Y030151D01*
X037231Y030161D01*
X037256Y030174D01*
X03728Y030188D01*
X037303Y030205D01*
X037326Y030224D01*
X037348Y030245D01*
Y029825D01*
D02*
G37*
G36*
X044399Y029981D02*
X044403Y029918D01*
X044407Y029892D01*
X044413Y02987D01*
X044419Y029853D01*
X044427Y029839D01*
X044435Y029829D01*
X044445Y029823D01*
X044456Y029821D01*
X044143D01*
X044154Y029823D01*
X044164Y029829D01*
X044173Y029839D01*
X04418Y029853D01*
X044187Y02987D01*
X044192Y029892D01*
X044196Y029918D01*
X044199Y029947D01*
X044201Y030018D01*
X044398D01*
X044399Y029981D01*
D02*
G37*
G36*
X045409Y029917D02*
X045411Y029896D01*
X045414Y029878D01*
X045418Y029863D01*
X045423Y02985D01*
X04543Y029839D01*
X045438Y029831D01*
X045446Y029825D01*
X045457Y029821D01*
X045468Y02982D01*
X045231D01*
X045243Y029821D01*
X045253Y029825D01*
X045262Y029831D01*
X045269Y029839D01*
X045276Y02985D01*
X045281Y029863D01*
X045285Y029878D01*
X045288Y029896D01*
X04529Y029917D01*
X045291Y029939D01*
X045409D01*
X045409Y029917D01*
D02*
G37*
G36*
X044884D02*
X044886Y029896D01*
X044889Y029878D01*
X044893Y029863D01*
X044898Y02985D01*
X044905Y029839D01*
X044913Y029831D01*
X044922Y029825D01*
X044932Y029821D01*
X044943Y02982D01*
X044707D01*
X044718Y029821D01*
X044728Y029825D01*
X044737Y029831D01*
X044744Y029839D01*
X044751Y02985D01*
X044756Y029863D01*
X04476Y029878D01*
X044763Y029896D01*
X044765Y029917D01*
X044766Y029939D01*
X044884D01*
X044884Y029917D01*
D02*
G37*
G36*
X035462D02*
X035464Y029896D01*
X035466Y029878D01*
X035471Y029863D01*
X035476Y02985D01*
X035482Y029839D01*
X03549Y029831D01*
X035499Y029825D01*
X035509Y029821D01*
X03552Y02982D01*
X035284D01*
X035295Y029821D01*
X035305Y029825D01*
X035314Y029831D01*
X035322Y029839D01*
X035328Y02985D01*
X035334Y029863D01*
X035338Y029878D01*
X035341Y029896D01*
X035342Y029917D01*
X035343Y029939D01*
X035461D01*
X035462Y029917D01*
D02*
G37*
G36*
X034937D02*
X034939Y029896D01*
X034942Y029878D01*
X034946Y029863D01*
X034951Y02985D01*
X034957Y029839D01*
X034965Y029831D01*
X034974Y029825D01*
X034984Y029821D01*
X034995Y02982D01*
X034759D01*
X03477Y029821D01*
X03478Y029825D01*
X034789Y029831D01*
X034797Y029839D01*
X034803Y02985D01*
X034809Y029863D01*
X034813Y029878D01*
X034816Y029896D01*
X034818Y029917D01*
X034818Y029939D01*
X034936D01*
X034937Y029917D01*
D02*
G37*
G36*
X036747Y029763D02*
X036711Y029725D01*
X036653Y029656D01*
X036632Y029625D01*
X036616Y029596D01*
X036604Y029569D01*
X036598Y029545D01*
X036596Y029522D01*
X0366Y029502D01*
X036608Y029484D01*
X036389Y029821D01*
X036401Y029807D01*
X036417Y0298D01*
X036437Y029798D01*
X036459Y029803D01*
X036486Y029814D01*
X036515Y029831D01*
X036548Y029854D01*
X036584Y029883D01*
X036667Y02996D01*
X036747Y029763D01*
D02*
G37*
G36*
X043686Y029934D02*
X043714Y02991D01*
X043741Y029889D01*
X043769Y029871D01*
X043796Y029856D01*
X043823Y029844D01*
X04385Y029834D01*
X043877Y029827D01*
X043904Y029823D01*
X043931Y029821D01*
X04362Y029583D01*
X043632Y029596D01*
X043639Y029613D01*
X04364Y029633D01*
X043635Y029656D01*
X043624Y029682D01*
X043607Y029712D01*
X043584Y029744D01*
X043555Y02978D01*
X043479Y029861D01*
X043658Y02996D01*
X043686Y029934D01*
D02*
G37*
G36*
X041042Y029329D02*
X041027Y029311D01*
X041013Y029292D01*
X041001Y029269D01*
X040991Y029244D01*
X040983Y029216D01*
X040976Y029186D01*
X040971Y029153D01*
X040967Y029117D01*
X040965Y029038D01*
X040668Y029335D01*
X040709Y029335D01*
X040782Y029341D01*
X040816Y029346D01*
X040846Y029353D01*
X040874Y029362D01*
X040899Y029372D01*
X040921Y029384D01*
X040941Y029397D01*
X040958Y029412D01*
X041042Y029329D01*
D02*
G37*
G36*
X039348Y028825D02*
X039319Y028854D01*
X039262Y028902D01*
X039235Y028922D01*
X039209Y028938D01*
X039183Y028952D01*
X039158Y028962D01*
X039134Y02897D01*
X039111Y028974D01*
X039088Y028976D01*
Y029094D01*
X039111Y029096D01*
X039134Y0291D01*
X039158Y029108D01*
X039183Y029118D01*
X039209Y029132D01*
X039235Y029148D01*
X039262Y029168D01*
X03929Y029191D01*
X039348Y029245D01*
Y028825D01*
D02*
G37*
G36*
X042965Y028991D02*
X042971Y028917D01*
X042976Y028884D01*
X042983Y028854D01*
X042991Y028826D01*
X043001Y028801D01*
X043013Y028778D01*
X043027Y028759D01*
X043042Y028742D01*
X042958Y028658D01*
X042941Y028673D01*
X042921Y028686D01*
X042899Y028698D01*
X042874Y028708D01*
X042846Y028717D01*
X042815Y028724D01*
X042782Y028729D01*
X042747Y028733D01*
X042668Y028735D01*
X042965Y029032D01*
X042965Y028991D01*
D02*
G37*
G36*
X037559Y028735D02*
X037518Y028735D01*
X037444Y028729D01*
X037411Y028724D01*
X037381Y028717D01*
X037353Y028708D01*
X037328Y028698D01*
X037306Y028686D01*
X037286Y028673D01*
X037269Y028658D01*
X037185Y028742D01*
X0372Y028759D01*
X037214Y028778D01*
X037225Y028801D01*
X037236Y028826D01*
X037244Y028854D01*
X037251Y028884D01*
X037256Y028917D01*
X03726Y028953D01*
X037262Y029032D01*
X037559Y028735D01*
D02*
G37*
G36*
X043619Y027725D02*
X043618Y027742D01*
X043615Y027759D01*
X043611Y027776D01*
X043605Y027792D01*
X043598Y027809D01*
X043588Y027826D01*
X043578Y027842D01*
X043565Y027859D01*
X043551Y027876D01*
X043535Y027892D01*
Y02806D01*
X043551Y028045D01*
X043565Y028033D01*
X043578Y028024D01*
X043588Y028019D01*
X043598Y028018D01*
X043605Y028019D01*
X043611Y028024D01*
X043615Y028033D01*
X043618Y028045D01*
X043619Y02806D01*
Y027725D01*
D02*
G37*
G36*
X036692Y027892D02*
X036676Y027876D01*
X036661Y027859D01*
X036649Y027842D01*
X036638Y027825D01*
X036628Y027808D01*
X036621Y027792D01*
X036615Y027775D01*
X03661Y027758D01*
X036608Y027742D01*
X036607Y027725D01*
Y02806D01*
X036608Y028044D01*
X03661Y028032D01*
X036615Y028024D01*
X036621Y028019D01*
X036628Y028017D01*
X036638Y028019D01*
X036649Y028024D01*
X036661Y028032D01*
X036676Y028044D01*
X036692Y02806D01*
Y027892D01*
D02*
G37*
G36*
X040965Y027991D02*
X040971Y027917D01*
X040976Y027884D01*
X040983Y027854D01*
X040991Y027826D01*
X041001Y027801D01*
X041013Y027778D01*
X041027Y027759D01*
X041042Y027742D01*
X040958Y027658D01*
X040941Y027673D01*
X040921Y027686D01*
X040899Y027698D01*
X040874Y027708D01*
X040846Y027717D01*
X040816Y027724D01*
X040782Y027729D01*
X040747Y027733D01*
X040668Y027735D01*
X040965Y028032D01*
X040965Y027991D01*
D02*
G37*
G36*
X037559Y027735D02*
X037518Y027735D01*
X037444Y027729D01*
X037411Y027724D01*
X037381Y027717D01*
X037353Y027708D01*
X037328Y027698D01*
X037306Y027686D01*
X037286Y027673D01*
X037269Y027658D01*
X037185Y027742D01*
X0372Y027759D01*
X037214Y027778D01*
X037225Y027801D01*
X037236Y027826D01*
X037244Y027854D01*
X037251Y027884D01*
X037256Y027917D01*
X03726Y027953D01*
X037262Y028032D01*
X037559Y027735D01*
D02*
G37*
G36*
X036073Y02772D02*
X036068Y027712D01*
X036066Y027701D01*
X036069Y027687D01*
X036075Y027672D01*
X036086Y027654D01*
X0361Y027634D01*
X036118Y027612D01*
X036167Y02756D01*
X036024Y027535D01*
X036003Y027556D01*
X035963Y02759D01*
X035944Y027602D01*
X035927Y027612D01*
X035911Y027619D01*
X035896Y027624D01*
X035882Y027625D01*
X035869Y027624D01*
X035857Y02762D01*
X036082Y027727D01*
X036073Y02772D01*
D02*
G37*
G36*
X045457Y027619D02*
X045446Y027615D01*
X045438Y027609D01*
X04543Y027601D01*
X045423Y02759D01*
X045418Y027577D01*
X045414Y027562D01*
X045411Y027544D01*
X045409Y027523D01*
X045409Y027501D01*
X045291D01*
X04529Y027523D01*
X045288Y027544D01*
X045285Y027562D01*
X045281Y027577D01*
X045276Y02759D01*
X045269Y027601D01*
X045262Y027609D01*
X045253Y027615D01*
X045243Y027619D01*
X045231Y02762D01*
X045468D01*
X045457Y027619D01*
D02*
G37*
G36*
X044932D02*
X044922Y027615D01*
X044913Y027609D01*
X044905Y027601D01*
X044898Y02759D01*
X044893Y027577D01*
X044889Y027562D01*
X044886Y027544D01*
X044884Y027523D01*
X044884Y027501D01*
X044766D01*
X044765Y027523D01*
X044763Y027544D01*
X04476Y027562D01*
X044756Y027577D01*
X044751Y02759D01*
X044744Y027601D01*
X044737Y027609D01*
X044728Y027615D01*
X044718Y027619D01*
X044707Y02762D01*
X044943D01*
X044932Y027619D01*
D02*
G37*
G36*
X035509D02*
X035499Y027615D01*
X03549Y027609D01*
X035482Y027601D01*
X035476Y02759D01*
X035471Y027577D01*
X035466Y027562D01*
X035464Y027544D01*
X035462Y027523D01*
X035461Y027501D01*
X035343D01*
X035342Y027523D01*
X035341Y027544D01*
X035338Y027562D01*
X035334Y027577D01*
X035328Y02759D01*
X035322Y027601D01*
X035314Y027609D01*
X035305Y027615D01*
X035295Y027619D01*
X035284Y02762D01*
X03552D01*
X035509Y027619D01*
D02*
G37*
G36*
X034984D02*
X034974Y027615D01*
X034965Y027609D01*
X034957Y027601D01*
X034951Y02759D01*
X034946Y027577D01*
X034942Y027562D01*
X034939Y027544D01*
X034937Y027523D01*
X034936Y027501D01*
X034818D01*
X034818Y027523D01*
X034816Y027544D01*
X034813Y027562D01*
X034809Y027577D01*
X034803Y02759D01*
X034797Y027601D01*
X034789Y027609D01*
X03478Y027615D01*
X03477Y027619D01*
X034759Y02762D01*
X034995D01*
X034984Y027619D01*
D02*
G37*
G36*
X044453Y027616D02*
X044449Y027608D01*
X044447Y027594D01*
X044444Y027575D01*
X04444Y02752D01*
X044438Y027343D01*
X044162D01*
X044162Y027396D01*
X044147Y027616D01*
X044143Y027619D01*
X044456D01*
X044453Y027616D01*
D02*
G37*
G36*
X042894Y027231D02*
X042911Y027219D01*
X042929Y027208D01*
X04295Y027199D01*
X042972Y027191D01*
X042996Y027184D01*
X043022Y027179D01*
X04305Y027176D01*
X04308Y027174D01*
X043111Y027173D01*
Y026897D01*
X04308Y026897D01*
X043022Y026891D01*
X042996Y026886D01*
X042972Y026879D01*
X04295Y026871D01*
X042929Y026862D01*
X042911Y026851D01*
X042894Y026839D01*
X042879Y026825D01*
Y027245D01*
X042894Y027231D01*
D02*
G37*
G36*
X037348Y026825D02*
X037319Y026854D01*
X037262Y026902D01*
X037235Y026922D01*
X037209Y026938D01*
X037183Y026952D01*
X037158Y026962D01*
X037134Y02697D01*
X037111Y026974D01*
X037088Y026976D01*
Y027094D01*
X037111Y027096D01*
X037134Y0271D01*
X037158Y027108D01*
X037183Y027118D01*
X037209Y027132D01*
X037235Y027148D01*
X037262Y027168D01*
X03729Y027191D01*
X037348Y027245D01*
Y026825D01*
D02*
G37*
G36*
X040965Y026991D02*
X040971Y026917D01*
X040976Y026884D01*
X040983Y026854D01*
X040991Y026826D01*
X041001Y026801D01*
X041013Y026778D01*
X041027Y026759D01*
X041042Y026742D01*
X040958Y026658D01*
X040941Y026673D01*
X040921Y026686D01*
X040899Y026698D01*
X040874Y026708D01*
X040846Y026717D01*
X040816Y026724D01*
X040782Y026729D01*
X040747Y026733D01*
X040668Y026735D01*
X040965Y027032D01*
X040965Y026991D01*
D02*
G37*
D10*
X043775Y029429D02*
D03*
X0443D02*
D03*
X044825D02*
D03*
X04535D02*
D03*
Y028011D02*
D03*
X044825D02*
D03*
X0443D02*
D03*
X043775D02*
D03*
X036452D02*
D03*
X035927D02*
D03*
X035402D02*
D03*
X034877D02*
D03*
Y029429D02*
D03*
X035402D02*
D03*
X035927D02*
D03*
X036452D02*
D03*
D11*
X038814Y029035D02*
X039562D01*
X038519Y02874D02*
X038814Y029035D01*
X038519Y026748D02*
Y02874D01*
X038208Y026437D02*
X038519Y026748D01*
X035476Y026437D02*
X038208D01*
X034877Y027035D02*
X035476Y026437D01*
X034877Y027035D02*
Y028326D01*
X035402Y027413D02*
Y028326D01*
Y027413D02*
X03578Y027035D01*
X037562D01*
X035402Y029744D02*
Y031078D01*
X035879Y031555D01*
X038043D01*
X039562Y030035D01*
X034877Y029744D02*
Y03125D01*
X035419Y031791D01*
X038806D01*
X039562Y031035D01*
X040665Y029035D02*
X04175Y03012D01*
Y03115D01*
X044825Y029744D02*
Y030825D01*
X040665Y030035D02*
X0413Y03067D01*
Y0314D01*
X04535Y029744D02*
Y031D01*
X042186Y031586D02*
X044064D01*
X04175Y03115D02*
X042186Y031586D01*
X044064D02*
X044825Y030825D01*
X041704Y031804D02*
X044546D01*
X0413Y0314D02*
X041704Y031804D01*
X044546D02*
X04535Y031D01*
X040665Y027035D02*
X04142Y026279D01*
X044808D01*
X04535Y02682D01*
Y028326D01*
X040665Y028035D02*
X042184Y026515D01*
X044348D01*
X044825Y026992D01*
Y028326D01*
X03687Y027343D02*
X037562Y028035D01*
X036301Y027343D02*
X03687D01*
X035927Y027716D02*
Y028326D01*
Y027716D02*
X036301Y027343D01*
X037017Y02849D02*
X037562Y029035D01*
X037017Y028301D02*
Y02849D01*
X036472Y027756D02*
X037017Y028301D01*
X042665Y029035D02*
X04321Y02849D01*
Y028301D02*
Y02849D01*
Y028301D02*
X043755Y027756D01*
D12*
X035927Y029744D02*
Y03057D01*
X036392Y031035D01*
X037562D01*
D13*
X036881Y030035D02*
X037562D01*
X042665D02*
X043444D01*
X042665Y031035D02*
X043915D01*
X0443Y03065D01*
Y029744D02*
Y03065D01*
X036472Y029626D02*
X036881Y030035D01*
X043444D02*
X043755Y029724D01*
D14*
X042665Y027035D02*
X044058D01*
X0443Y027277D01*
Y028011D01*
D15*
X042665Y027035D02*
D03*
Y028035D02*
D03*
Y031035D02*
D03*
Y030035D02*
D03*
Y029035D02*
D03*
X040665Y027035D02*
D03*
Y028035D02*
D03*
Y031035D02*
D03*
Y030035D02*
D03*
Y029035D02*
D03*
X039562Y027035D02*
D03*
Y028035D02*
D03*
Y031035D02*
D03*
Y030035D02*
D03*
Y029035D02*
D03*
X037562Y027035D02*
D03*
Y028035D02*
D03*
Y031035D02*
D03*
Y030035D02*
D03*
Y029035D02*
D03*
M02*
