G04 Layer_Color=65535*
%FSTAX24Y24*%
%MOIN*%
G70*
G01*
G75*
%ADD16C,0.0050*%
D16*
X042579Y02674D02*
G03*
X042579Y02674I-000197J0D01*
G01*
X039476D02*
G03*
X039476Y02674I-000197J0D01*
G01*
X040821Y029012D02*
X040974Y029218D01*
X040821Y029012D02*
X040946Y028805D01*
X042004D01*
X042172Y029011D01*
X042032Y029218D02*
X042172Y029011D01*
X040974Y029218D02*
X042032Y029218D01*
X041998Y028722D02*
X04221Y028959D01*
X041927Y02771D02*
X041998Y028722D01*
X041927Y02771D02*
X042211Y02733D01*
X042314Y028812D01*
X04221Y028959D02*
X042314Y028812D01*
X040636D02*
X040761Y028959D01*
X040532Y02731D02*
X040636Y028812D01*
X040869Y027708D02*
X040939Y028721D01*
X040761Y028959D02*
X040939Y028721D01*
X040829Y030764D02*
X041101Y030352D01*
X042075D01*
X042395Y030764D01*
X040829D02*
X042395D01*
X040188Y031791D02*
X040503D01*
X040621Y031712D01*
X04073D01*
X040848Y031791D01*
X041163D01*
X041281Y031712D01*
X041389D01*
X041507Y031791D01*
X041822D01*
X04194Y031712D01*
X042048D01*
X042167Y031791D01*
X042481D01*
X0426Y031712D01*
X042708D01*
X042826Y031791D01*
X043141D01*
Y026279D02*
Y031791D01*
X040188Y026279D02*
X043141D01*
X040188D02*
Y031791D01*
X040963Y027671D02*
X041894D01*
X040623Y027259D02*
X040963Y027671D01*
X040623Y027259D02*
X042151D01*
X041894Y027671D02*
X042151Y027259D01*
X040772Y029101D02*
X040982Y029338D01*
X041052Y03035D01*
X040768Y03073D02*
X041052Y03035D01*
X040665Y029243D02*
X040768Y03073D01*
X040665Y029243D02*
X040772Y029101D01*
X042221D02*
X042344Y029243D01*
X042447Y030732D01*
X04211Y030352D02*
X042447Y030732D01*
X04204Y02934D02*
X04211Y030352D01*
X04204Y02934D02*
X042221Y029101D01*
X040532Y02731D02*
X040869Y027708D01*
X037718Y029012D02*
X037871Y029218D01*
X037718Y029012D02*
X037843Y028805D01*
X038902D01*
X03907Y029011D01*
X03893Y029218D02*
X03907Y029011D01*
X037871Y029218D02*
X03893Y029218D01*
X038895Y028722D02*
X039108Y028959D01*
X038825Y02771D02*
X038895Y028722D01*
X038825Y02771D02*
X039109Y02733D01*
X039212Y028812D01*
X039108Y028959D02*
X039212Y028812D01*
X037534D02*
X037659Y028959D01*
X037429Y02731D02*
X037534Y028812D01*
X037767Y027708D02*
X037837Y028721D01*
X037659Y028959D02*
X037837Y028721D01*
X037726Y030764D02*
X037999Y030352D01*
X038972D01*
X039293Y030764D01*
X037726D02*
X039293D01*
X037086Y031791D02*
X037401D01*
X037519Y031712D01*
X037627D01*
X037745Y031791D01*
X03806D01*
X038178Y031712D01*
X038287D01*
X038405Y031791D01*
X03872D01*
X038838Y031712D01*
X038946D01*
X039064Y031791D01*
X039379D01*
X039497Y031712D01*
X039606D01*
X039724Y031791D01*
X040039D01*
Y026279D02*
Y031791D01*
X037086Y026279D02*
X040039D01*
X037086D02*
Y031791D01*
X03786Y027671D02*
X038791D01*
X03752Y027259D02*
X03786Y027671D01*
X03752Y027259D02*
X039048D01*
X038791Y027671D02*
X039048Y027259D01*
X03767Y029101D02*
X037879Y029338D01*
X03795Y03035D01*
X037666Y03073D02*
X03795Y03035D01*
X037563Y029243D02*
X037666Y03073D01*
X037563Y029243D02*
X03767Y029101D01*
X039119D02*
X039241Y029243D01*
X039345Y030732D01*
X039008Y030352D02*
X039345Y030732D01*
X038938Y02934D02*
X039008Y030352D01*
X038938Y02934D02*
X039119Y029101D01*
X037429Y02731D02*
X037767Y027708D01*
M02*
