G04 Layer_Color=16711935*
%FSTAX24Y24*%
%MOIN*%
G70*
G01*
G75*
%ADD86C,0.0039*%
D86*
X196393Y1461D02*
X197181D01*
X196393Y145608D02*
X197181D01*
X196393D02*
Y1461D01*
X197181Y145608D02*
Y1461D01*
X196393Y145313D02*
X197181D01*
X196393Y144821D02*
X197181D01*
X196393D02*
Y145313D01*
X197181Y144821D02*
Y145313D01*
X197488Y143495D02*
Y144283D01*
X196996Y143495D02*
Y144283D01*
X197488D01*
X196996Y143495D02*
X197488D01*
X196086D02*
Y144283D01*
X196578Y143495D02*
Y144283D01*
X196086Y143495D02*
X196578D01*
X196086Y144283D02*
X196578D01*
X19805Y144821D02*
X198837D01*
X19805Y145313D02*
X198837D01*
Y144821D02*
Y145313D01*
X19805Y144821D02*
Y145313D01*
X196578Y141917D02*
Y142704D01*
X196086Y141917D02*
Y142704D01*
X196578D01*
X196086Y141917D02*
X196578D01*
X19825D02*
Y142704D01*
X197757Y141917D02*
Y142704D01*
X19825D01*
X197757Y141917D02*
X19825D01*
X197406D02*
Y142704D01*
X196914Y141917D02*
Y142704D01*
X197406D01*
X196914Y141917D02*
X197406D01*
X173266Y149545D02*
X174054D01*
X173266Y150037D02*
X174054D01*
Y149545D02*
Y150037D01*
X173266Y149545D02*
Y150037D01*
X190339Y155703D02*
Y156491D01*
X189847Y155703D02*
Y156491D01*
X190339D01*
X189847Y155703D02*
X190339D01*
X185077Y157747D02*
X185865D01*
X185077Y158239D02*
X185865D01*
Y157747D02*
Y158239D01*
X185077Y157747D02*
Y158239D01*
X177638Y156332D02*
Y157119D01*
X177145Y156332D02*
Y157119D01*
X177638D01*
X177145Y156332D02*
X177638D01*
X17676D02*
Y157119D01*
X176268Y156332D02*
Y157119D01*
X17676D01*
X176268Y156332D02*
X17676D01*
X172161Y154786D02*
X172948D01*
X172161Y154294D02*
X172948D01*
X172161D02*
Y154786D01*
X172948Y154294D02*
Y154786D01*
X181437Y157537D02*
Y158324D01*
X180945Y157537D02*
Y158324D01*
X181437D01*
X180945Y157537D02*
X181437D01*
X195067Y151789D02*
Y152577D01*
X195559Y151789D02*
Y152577D01*
X195067Y151789D02*
X195559D01*
X195067Y152577D02*
X195559D01*
X193485Y154035D02*
Y154823D01*
X192993Y154035D02*
Y154823D01*
X193485D01*
X192993Y154035D02*
X193485D01*
X190097Y154675D02*
X190884D01*
X190097Y154183D02*
X190884D01*
X190097D02*
Y154675D01*
X190884Y154183D02*
Y154675D01*
X190097Y153384D02*
X190884D01*
X190097Y153876D02*
X190884D01*
Y153384D02*
Y153876D01*
X190097Y153384D02*
Y153876D01*
X188424Y154675D02*
X189211D01*
X188424Y154183D02*
X189211D01*
X188424D02*
Y154675D01*
X189211Y154183D02*
Y154675D01*
X188424Y153384D02*
X189211D01*
X188424Y153876D02*
X189211D01*
Y153384D02*
Y153876D01*
X188424Y153384D02*
Y153876D01*
X190363Y14738D02*
X19115D01*
X190363Y147872D02*
X19115D01*
Y14738D02*
Y147872D01*
X190363Y14738D02*
Y147872D01*
X185225Y153649D02*
Y154437D01*
X185717Y153649D02*
Y154437D01*
X185225Y153649D02*
X185717D01*
X185225Y154437D02*
X185717D01*
X186717Y153649D02*
Y154437D01*
X186225Y153649D02*
Y154437D01*
X186717D01*
X186225Y153649D02*
X186717D01*
X186111Y129811D02*
Y130598D01*
X186603Y129811D02*
Y130598D01*
X186111Y129811D02*
X186603D01*
X186111Y130598D02*
X186603D01*
X19266Y134165D02*
X193447D01*
X19266Y133673D02*
X193447D01*
X19266D02*
Y134165D01*
X193447Y133673D02*
Y134165D01*
X189014Y136947D02*
X189802D01*
X189014Y137439D02*
X189802D01*
Y136947D02*
Y137439D01*
X189014Y136947D02*
Y137439D01*
X178138Y133453D02*
Y134241D01*
X17863Y133453D02*
Y134241D01*
X178138Y133453D02*
X17863D01*
X178138Y134241D02*
X17863D01*
X198069Y1461D02*
X198857D01*
X198069Y145608D02*
X198857D01*
X198069D02*
Y1461D01*
X198857Y145608D02*
Y1461D01*
X1993Y143495D02*
Y144283D01*
X199792Y143495D02*
Y144283D01*
X1993Y143495D02*
X199792D01*
X1993Y144283D02*
X199792D01*
M02*
