G04 Layer_Physical_Order=2*
G04 Layer_Color=16711680*
%FSTAX24Y24*%
%MOIN*%
G70*
G01*
G75*
%ADD10C,0.0354*%
%ADD11C,0.0197*%
%ADD12C,0.0276*%
%ADD13C,0.0118*%
%ADD22C,0.0472*%
%ADD27C,0.0591*%
%ADD33O,0.0512X0.0630*%
G04:AMPARAMS|DCode=34|XSize=63mil|YSize=51.2mil|CornerRadius=0mil|HoleSize=0mil|Usage=FLASHONLY|Rotation=45.000|XOffset=0mil|YOffset=0mil|HoleType=Round|Shape=Round|*
%AMOVALD34*
21,1,0.0118,0.0512,0.0000,0.0000,45.0*
1,1,0.0512,-0.0042,-0.0042*
1,1,0.0512,0.0042,0.0042*
%
%ADD34OVALD34*%

G04:AMPARAMS|DCode=35|XSize=63mil|YSize=51.2mil|CornerRadius=0mil|HoleSize=0mil|Usage=FLASHONLY|Rotation=315.000|XOffset=0mil|YOffset=0mil|HoleType=Round|Shape=Round|*
%AMOVALD35*
21,1,0.0118,0.0512,0.0000,0.0000,315.0*
1,1,0.0512,-0.0042,0.0042*
1,1,0.0512,0.0042,-0.0042*
%
%ADD35OVALD35*%

%ADD36C,0.0650*%
%ADD37C,0.1575*%
%ADD38P,0.0919X4X81.0*%
%ADD39C,0.0709*%
%ADD40P,0.1131X4X325.0*%
%ADD41C,0.0800*%
%ADD42P,0.1131X4X283.0*%
%ADD43P,0.1131X4X369.0*%
%ADD44C,0.3150*%
%ADD45C,0.0787*%
%ADD46R,0.0689X0.0689*%
%ADD47C,0.0689*%
%ADD48C,0.0236*%
%ADD49C,0.0394*%
%ADD50C,0.0709*%
%ADD51C,0.0472*%
G36*
X184164Y161171D02*
X184963Y161113D01*
X185759Y161014D01*
X186548Y160877D01*
X18733Y160702D01*
X188103Y160488D01*
X188864Y160237D01*
X189612Y159948D01*
X190345Y159623D01*
X191061Y159263D01*
X191758Y158868D01*
X192435Y158439D01*
X193091Y157977D01*
X193723Y157484D01*
X194329Y156961D01*
X19491Y156408D01*
X195463Y155827D01*
X195986Y155221D01*
X196479Y154589D01*
X196941Y153933D01*
X19737Y153256D01*
X197765Y152559D01*
X198125Y151843D01*
X198289Y151474D01*
X198289Y151474D01*
X198442Y151129D01*
X198731Y15038D01*
X198849Y150023D01*
X198849Y150023D01*
X198864Y149976D01*
X198984Y149612D01*
X199121Y149118D01*
X199134Y149072D01*
X199149Y149024D01*
X199412Y147977D01*
X199659Y146833D01*
X199868Y145681D01*
X20004Y144523D01*
X200093Y144064D01*
X200093D01*
X200095Y144062D01*
X200109Y143854D01*
X200094Y143621D01*
X200048Y143392D01*
X199973Y143171D01*
X19987Y142962D01*
X19974Y142768D01*
X199644Y142659D01*
X199646Y142657D01*
X199157Y142099D01*
X198619Y141429D01*
X198111Y140735D01*
X197633Y140021D01*
X197187Y139286D01*
X196773Y138532D01*
X196393Y137761D01*
X196047Y136974D01*
X195921Y136649D01*
X195899Y136605D01*
X195899Y136605D01*
X195812Y136379D01*
X195537Y135765D01*
X195228Y135167D01*
X194886Y134587D01*
X194512Y134027D01*
X194108Y133489D01*
X193673Y132975D01*
X193211Y132486D01*
X192722Y132023D01*
X192418Y131767D01*
X192419Y131767D01*
X192253Y131625D01*
X191668Y131176D01*
X191061Y130759D01*
X190432Y130374D01*
X189785Y130022D01*
X189119Y129705D01*
X188439Y129423D01*
X187744Y129177D01*
X187037Y128968D01*
X186321Y128796D01*
X185596Y128661D01*
X184865Y128565D01*
X184131Y128507D01*
X183394Y128488D01*
X182657Y128507D01*
X181923Y128565D01*
X181192Y128661D01*
X180467Y128796D01*
X179751Y128968D01*
X179044Y129177D01*
X17835Y129423D01*
X17834Y129428D01*
X178332Y129433D01*
X178327Y129434D01*
X17828Y129452D01*
X177669Y129705D01*
X177004Y130022D01*
X176356Y130374D01*
X175728Y130759D01*
X17512Y131176D01*
X174536Y131625D01*
X173975Y132103D01*
X173441Y132611D01*
X172933Y133145D01*
X172455Y133706D01*
X172006Y13429D01*
X171589Y134898D01*
X171204Y135526D01*
X170852Y136174D01*
X170535Y136839D01*
X170253Y13752D01*
X170007Y138214D01*
X169797Y138921D01*
X169625Y139638D01*
X169491Y140362D01*
X169456Y140629D01*
X169453Y140628D01*
X169408Y14089D01*
X169384Y140974D01*
X169372Y141018D01*
X169367Y141041D01*
X169363Y141047D01*
X169359Y141063D01*
X169314Y141219D01*
X169182Y141537D01*
X169016Y141838D01*
X168817Y142118D01*
X168587Y142375D01*
X168331Y142604D01*
X16805Y142803D01*
X167749Y142969D01*
X167707Y142987D01*
X167662Y143007D01*
X167659Y14301D01*
X167657Y14301D01*
X167619Y14303D01*
X167512Y143088D01*
X16736Y143212D01*
X167236Y143363D01*
X167144Y143536D01*
X167087Y143723D01*
X167074Y143855D01*
X167074Y143855D01*
X167074D01*
X167073Y143856D01*
X167062Y144053D01*
X167058Y144068D01*
X167038Y144864D01*
X167058Y145665D01*
X167117Y146464D01*
X167215Y14726D01*
X167352Y14805D01*
X167528Y148832D01*
X167742Y149604D01*
X167993Y150365D01*
X168281Y151113D01*
X168606Y151846D01*
X168967Y152562D01*
X169362Y153259D01*
X169791Y153937D01*
X170252Y154592D01*
X170745Y155224D01*
X171269Y155831D01*
X171822Y156411D01*
X172402Y156964D01*
X173009Y157488D01*
X173641Y157981D01*
X174296Y158442D01*
X174973Y158871D01*
X175671Y159266D01*
X176387Y159627D01*
X17712Y159951D01*
X177824Y160223D01*
X177872Y160239D01*
X177881Y160241D01*
X177886Y160244D01*
X177919Y160256D01*
X17861Y160485D01*
X179311Y160679D01*
X179359Y160692D01*
X179385Y160697D01*
X179385Y160698D01*
X179388Y160699D01*
X179407Y160704D01*
X180176Y160877D01*
X180347Y160906D01*
Y160906D01*
X180396Y160915D01*
X180977Y161016D01*
X181303Y161056D01*
X181303Y161056D01*
X181762Y161113D01*
X182561Y161171D01*
X183362Y161191D01*
X184164Y161171D01*
D02*
G37*
%LPC*%
G36*
X183662Y158553D02*
X183516Y158547D01*
X183376Y158503D01*
X183252Y158424D01*
X183153Y158316D01*
X183085Y158186D01*
X183053Y158042D01*
X18306Y157896D01*
X183104Y157756D01*
X183183Y157632D01*
X183291Y157533D01*
X183393Y15748D01*
Y157116D01*
X183347Y157096D01*
X182326Y158116D01*
X182255Y158164D01*
X18217Y158181D01*
X177957D01*
X177873Y158164D01*
X177801Y158116D01*
X174746Y155061D01*
X174738Y155065D01*
X174596Y155099D01*
X174449Y155095D01*
X174308Y155053D01*
X174183Y154977D01*
X174082Y15487D01*
X174012Y154741D01*
X173978Y154599D01*
X173981Y154452D01*
X174023Y154311D01*
X174036Y15429D01*
X171764Y151162D01*
X171522Y151338D01*
X170866Y150436D01*
X171768Y149781D01*
X172424Y150683D01*
X172182Y150859D01*
X174454Y153986D01*
X174478Y153981D01*
X174625Y153984D01*
X174766Y154026D01*
X174891Y154103D01*
X174992Y154209D01*
X175062Y154338D01*
X175096Y154481D01*
X175092Y154628D01*
X175057Y154747D01*
X178049Y15774D01*
X178678D01*
X178682Y15769D01*
X178123Y157591D01*
X178316Y156493D01*
X179414Y156687D01*
X179235Y157701D01*
X179268Y15774D01*
X182079D01*
X183089Y156729D01*
Y155008D01*
X183106Y154923D01*
X183154Y154852D01*
X183705Y1543D01*
X183777Y154252D01*
X183861Y154236D01*
X18634D01*
X186589Y153987D01*
Y152732D01*
X186569Y152706D01*
X186541Y152639D01*
X186532Y152567D01*
X186541Y152495D01*
X186569Y152428D01*
X186613Y15237D01*
X186671Y152326D01*
X186738Y152298D01*
X186809Y152289D01*
X186844Y152243D01*
X186836Y152225D01*
X186827Y152153D01*
X186836Y152081D01*
X186864Y152014D01*
X186908Y151957D01*
X186966Y151913D01*
X187033Y151885D01*
X187053Y151882D01*
X187072Y151836D01*
X187049Y151806D01*
X187001Y151689D01*
X186996Y151653D01*
X186946D01*
X186941Y151689D01*
X186892Y151806D01*
X186815Y151907D01*
X186714Y151984D01*
X186597Y152033D01*
X186471Y152049D01*
X186345Y152033D01*
X186228Y151984D01*
X186127Y151907D01*
X186049Y151806D01*
X186001Y151689D01*
X185996Y151653D01*
X185946D01*
X185941Y151689D01*
X185892Y151806D01*
X185815Y151907D01*
X185714Y151984D01*
X185597Y152033D01*
X185471Y152049D01*
X185345Y152033D01*
X185228Y151984D01*
X185127Y151907D01*
X185049Y151806D01*
X185001Y151689D01*
X184984Y151563D01*
X185001Y151437D01*
X185049Y151319D01*
X185127Y151219D01*
X185228Y151141D01*
X185345Y151093D01*
X185471Y151076D01*
X185597Y151093D01*
X185714Y151141D01*
X185815Y151219D01*
X185892Y151319D01*
X185941Y151437D01*
X185946Y151473D01*
X185996D01*
X186001Y151437D01*
X186049Y151319D01*
X186127Y151219D01*
X186228Y151141D01*
X186345Y151093D01*
X186471Y151076D01*
X186597Y151093D01*
X186619Y151102D01*
X187752Y14997D01*
X187823Y149922D01*
X187908Y149905D01*
X190746D01*
X190779Y149911D01*
X190804Y149865D01*
X190694Y149756D01*
X187211D01*
X187185Y149776D01*
X187118Y149804D01*
X187046Y149813D01*
X186974Y149804D01*
X186907Y149776D01*
X186849Y149732D01*
X186805Y149674D01*
X186777Y149607D01*
X186768Y149535D01*
X186777Y149463D01*
X186805Y149396D01*
X186849Y149339D01*
X186907Y149294D01*
X186974Y149267D01*
X187046Y149257D01*
X187081Y149262D01*
X18712Y14926D01*
X187135Y14922D01*
X187139Y149188D01*
X187167Y149121D01*
X187211Y149063D01*
X187268Y149019D01*
X187335Y148991D01*
X187391Y148984D01*
X187437Y148954D01*
X187447Y148882D01*
X18747Y148825D01*
X187448Y148776D01*
X187352Y148781D01*
X187079Y148938D01*
X186536Y14925D01*
X186498Y149266D01*
X18646Y149284D01*
X185707Y149527D01*
X185685Y149531D01*
X185665Y149538D01*
X184291Y149819D01*
X184256Y149822D01*
X184222Y149827D01*
X182962Y149863D01*
X182935Y14986D01*
X182908Y14986D01*
X181637Y149722D01*
X180106Y149773D01*
X179083Y1501D01*
X178474Y150566D01*
X178202Y151349D01*
X178106Y152578D01*
X178096Y152626D01*
X178087Y152673D01*
X177816Y15348D01*
X1778Y153514D01*
X177786Y153548D01*
X177777Y15356D01*
X17777Y153574D01*
X177746Y153602D01*
X177724Y153631D01*
X177712Y153641D01*
X177702Y153652D01*
X177671Y153672D01*
X177642Y153695D01*
X177057Y154043D01*
X17704Y154086D01*
X176962Y154186D01*
X176862Y154264D01*
X176744Y154312D01*
X176618Y154329D01*
X176492Y154312D01*
X176375Y154264D01*
X176274Y154186D01*
X176197Y154086D01*
X176148Y153968D01*
X176132Y153842D01*
X176148Y153716D01*
X176197Y153599D01*
X176274Y153498D01*
X176375Y153421D01*
X176492Y153372D01*
X176528Y153367D01*
Y153317D01*
X176492Y153312D01*
X176375Y153264D01*
X176274Y153186D01*
X176197Y153086D01*
X176148Y152968D01*
X176132Y152842D01*
X176148Y152716D01*
X176197Y152599D01*
X176274Y152498D01*
X176375Y152421D01*
X176492Y152372D01*
X176528Y152367D01*
Y152317D01*
X176492Y152312D01*
X176375Y152264D01*
X176274Y152186D01*
X176197Y152086D01*
X176148Y151968D01*
X176132Y151842D01*
X176148Y151716D01*
X176197Y151599D01*
X176274Y151498D01*
X176375Y151421D01*
X176492Y151372D01*
X176528Y151367D01*
Y151317D01*
X176492Y151312D01*
X176375Y151264D01*
X176274Y151186D01*
X176197Y151086D01*
X176148Y150968D01*
X176132Y150842D01*
X176148Y150716D01*
X176197Y150599D01*
X176274Y150498D01*
X176375Y150421D01*
X176492Y150372D01*
X176618Y150356D01*
X176744Y150372D01*
X176862Y150421D01*
X176962Y150498D01*
X17704Y150599D01*
X177088Y150716D01*
X177105Y150842D01*
X177088Y150968D01*
X17704Y151086D01*
X176962Y151186D01*
X176862Y151264D01*
X176744Y151312D01*
X176708Y151317D01*
Y151367D01*
X176744Y151372D01*
X176862Y151421D01*
X176962Y151498D01*
X17704Y151599D01*
X177088Y151716D01*
X177105Y151842D01*
X177088Y151968D01*
X17704Y152086D01*
X176962Y152186D01*
X176862Y152264D01*
X176744Y152312D01*
X176708Y152317D01*
Y152367D01*
X176744Y152372D01*
X176862Y152421D01*
X176962Y152498D01*
X17704Y152599D01*
X177088Y152716D01*
X177105Y152842D01*
X177088Y152968D01*
X177064Y153028D01*
X177101Y153068D01*
X177118Y153062D01*
X177318Y152467D01*
X177414Y151237D01*
X177424Y151187D01*
X177435Y151137D01*
X177763Y150192D01*
X177768Y150182D01*
X177771Y15017D01*
X177791Y150135D01*
X177809Y1501D01*
X177817Y150091D01*
X177823Y15008D01*
X177852Y150052D01*
X177878Y150022D01*
X177888Y150016D01*
X177897Y150007D01*
X178655Y149427D01*
X178669Y149419D01*
X178681Y149409D01*
X178714Y149394D01*
X178745Y149376D01*
X17876Y149372D01*
X178775Y149365D01*
X179917Y148999D01*
X17992Y148999D01*
X179922Y148998D01*
X179971Y14899D01*
X180019Y148981D01*
X180022Y148981D01*
X180025Y148981D01*
X181282Y148939D01*
X181289Y148889D01*
X18084Y14874D01*
X180373Y148546D01*
X179921Y14832D01*
X179487Y148062D01*
X179072Y147774D01*
X178679Y147457D01*
X178309Y147113D01*
X177965Y146743D01*
X177648Y14635D01*
X17736Y145935D01*
X177102Y1455D01*
X176876Y145049D01*
X176682Y144582D01*
X17665Y144486D01*
X176631Y14444D01*
D01*
X176614Y144393D01*
X176565Y144303D01*
X17649Y144211D01*
X176399Y144136D01*
X176295Y144081D01*
X176182Y144046D01*
X17617Y144045D01*
X176168Y144045D01*
X174434Y143742D01*
X174418Y143735D01*
X174276Y143711D01*
X173938Y143614D01*
X173613Y143479D01*
X173304Y143309D01*
X173017Y143105D01*
X172755Y14287D01*
X17252Y142608D01*
X172316Y142321D01*
X172146Y142012D01*
X172011Y141687D01*
X171914Y141349D01*
X171855Y141001D01*
X171835Y14065D01*
X171855Y140298D01*
X171914Y139951D01*
X172011Y139613D01*
X172146Y139287D01*
X172316Y138979D01*
X17252Y138692D01*
X172755Y138429D01*
X173017Y138195D01*
X173304Y137991D01*
X173613Y137821D01*
X173938Y137686D01*
X174276Y137588D01*
X174623Y137529D01*
X174975Y13751D01*
X175327Y137529D01*
X175498Y137558D01*
X175516Y137558D01*
X17725Y137861D01*
X177251Y137862D01*
X177354Y137872D01*
X177471Y13786D01*
X177584Y137826D01*
X177688Y13777D01*
X17778Y137695D01*
X177819Y137647D01*
X177819Y137647D01*
X177854Y137612D01*
X177965Y137475D01*
X178309Y137105D01*
X178679Y136761D01*
X179072Y136444D01*
X179487Y136156D01*
X179921Y135898D01*
X180373Y135672D01*
X18084Y135478D01*
X181319Y135319D01*
X181809Y135194D01*
X182306Y135104D01*
X182808Y13505D01*
X183313Y135032D01*
X183818Y13505D01*
X18432Y135104D01*
X184817Y135194D01*
X185307Y135319D01*
X185786Y135478D01*
X186253Y135672D01*
X186704Y135898D01*
X187139Y136156D01*
X187554Y136444D01*
X187947Y136761D01*
X188317Y137105D01*
X188661Y137475D01*
X188978Y137868D01*
X189266Y138283D01*
X189524Y138717D01*
X18975Y139169D01*
X189944Y139636D01*
X189976Y139732D01*
X189995Y139778D01*
X190005Y139811D01*
X190061Y139915D01*
X190136Y140007D01*
X190227Y140082D01*
X190331Y140137D01*
X190444Y140172D01*
X190456Y140173D01*
X190458Y140173D01*
X192192Y140476D01*
X192208Y140483D01*
X19235Y140507D01*
X192688Y140604D01*
X193013Y140739D01*
X193321Y140909D01*
X193609Y141113D01*
X193871Y141348D01*
X194106Y14161D01*
X19431Y141897D01*
X19448Y142206D01*
X194615Y142531D01*
X194712Y142869D01*
X194771Y143216D01*
X194791Y143568D01*
X194771Y14392D01*
X194712Y144267D01*
X194615Y144605D01*
X19448Y14493D01*
X19431Y145239D01*
X194106Y145526D01*
X193871Y145788D01*
X193609Y146023D01*
X193321Y146227D01*
X193013Y146397D01*
X192688Y146532D01*
X19235Y146629D01*
X192002Y146688D01*
X191651Y146708D01*
X191299Y146688D01*
X191128Y146659D01*
X19111Y14666D01*
X189376Y146356D01*
X189375Y146356D01*
X189272Y146346D01*
X189155Y146358D01*
X189042Y146392D01*
X188937Y146448D01*
X188846Y146523D01*
X188807Y146571D01*
X188807Y146571D01*
X188772Y146606D01*
X188661Y146743D01*
X188317Y147113D01*
X187947Y147457D01*
X187554Y147774D01*
X187316Y147939D01*
X187332Y147987D01*
X188839Y147918D01*
X188848Y147919D01*
X188857Y147918D01*
X192039D01*
X195192Y144765D01*
Y143197D01*
X195205Y143094D01*
X195245Y142998D01*
X195308Y142916D01*
X19539Y142853D01*
X195486Y142813D01*
X195589Y1428D01*
X195692Y142813D01*
X195788Y142853D01*
X19587Y142916D01*
X195933Y142998D01*
X195973Y143094D01*
X195986Y143197D01*
Y14493D01*
X195973Y145032D01*
X195933Y145128D01*
X19587Y14521D01*
X194015Y147065D01*
X194038Y14711D01*
X194047Y147108D01*
X194155Y147123D01*
X194256Y147164D01*
X194282Y147184D01*
X194327Y147162D01*
Y147073D01*
X194343Y146989D01*
X194391Y146917D01*
X195175Y146133D01*
X195247Y146085D01*
X195332Y146068D01*
X197379D01*
X197404Y146018D01*
X197384Y145993D01*
X197357Y145926D01*
X197347Y145854D01*
X197357Y145782D01*
X197367Y145757D01*
Y14379D01*
X197376Y143723D01*
X197402Y143661D01*
X197443Y143608D01*
X197798Y143252D01*
X197851Y143211D01*
X197914Y143185D01*
X19798Y143177D01*
X199055D01*
X19908Y143166D01*
X199152Y143157D01*
X199224Y143166D01*
X199291Y143194D01*
X199349Y143238D01*
X199393Y143296D01*
X199421Y143363D01*
X19943Y143435D01*
X199421Y143507D01*
X199393Y143574D01*
X199349Y143631D01*
X199291Y143675D01*
X199224Y143703D01*
X199152Y143713D01*
X19908Y143703D01*
X199055Y143693D01*
X198087D01*
X197883Y143897D01*
Y145757D01*
X197894Y145782D01*
X197903Y145854D01*
X197894Y145926D01*
X197866Y145993D01*
X197846Y146018D01*
X197871Y146068D01*
X198429D01*
X198636Y145861D01*
Y145611D01*
X198616Y145585D01*
X198588Y145518D01*
X198579Y145446D01*
X198588Y145374D01*
X198616Y145307D01*
X19866Y145249D01*
X198718Y145205D01*
X198785Y145177D01*
X198857Y145168D01*
X198929Y145177D01*
X198996Y145205D01*
X199053Y145249D01*
X199097Y145307D01*
X199125Y145374D01*
X199135Y145446D01*
X199125Y145518D01*
X199097Y145585D01*
X199078Y145611D01*
Y145953D01*
X199061Y146037D01*
X199013Y146109D01*
X198676Y146445D01*
X19863Y146476D01*
X198635Y146533D01*
X19865Y146539D01*
X198756Y146621D01*
X198839Y146728D01*
X19889Y146852D01*
X198908Y146986D01*
X19889Y147119D01*
X198839Y147244D01*
X198756Y147351D01*
X19865Y147433D01*
Y147917D01*
X198641Y147983D01*
X198615Y148046D01*
X198574Y148099D01*
X198176Y148497D01*
X198122Y148538D01*
X19806Y148564D01*
X197993Y148573D01*
X197823D01*
X197798Y148623D01*
X197854Y148696D01*
X197906Y148821D01*
X197923Y148954D01*
X197906Y149088D01*
X197854Y149212D01*
X197772Y149319D01*
X197665Y149401D01*
X197541Y149453D01*
X197407Y14947D01*
X197274Y149453D01*
X197149Y149401D01*
X197042Y149319D01*
X19696Y149212D01*
X196909Y149088D01*
X196891Y148954D01*
X196909Y148821D01*
X19696Y148696D01*
X197016Y148623D01*
X196992Y148573D01*
X196405D01*
X196162Y148815D01*
Y151735D01*
X196153Y151802D01*
X196128Y151864D01*
X196086Y151918D01*
X195823Y152182D01*
X195842Y152228D01*
X196423D01*
X196523Y15209D01*
Y150271D01*
X196503Y150245D01*
X196475Y150178D01*
X196466Y150106D01*
X196475Y150034D01*
X196503Y149967D01*
X196547Y149909D01*
X196605Y149865D01*
X196672Y149838D01*
X196744Y149828D01*
X196816Y149838D01*
X196883Y149865D01*
X19694Y149909D01*
X196985Y149967D01*
X197012Y150034D01*
X197022Y150106D01*
X197012Y150178D01*
X196985Y150245D01*
X196965Y150271D01*
Y15208D01*
X197461Y15244D01*
X196903Y153209D01*
X196894Y153221D01*
X196864Y153261D01*
X196315Y154018D01*
X196285Y154058D01*
X196277Y15407D01*
X195718Y154839D01*
X195718Y154839D01*
X195698Y154867D01*
X195698Y154867D01*
X195689Y154879D01*
X195139Y155636D01*
X195131Y155648D01*
X19511Y155676D01*
X195081Y155717D01*
X194543Y156457D01*
X193762Y15589D01*
X193937Y155649D01*
X193802Y155514D01*
X192842D01*
X190181Y158176D01*
X190128Y158217D01*
X190065Y158242D01*
X189999Y158251D01*
X185057D01*
X184991Y158242D01*
X184928Y158217D01*
X184875Y158176D01*
X184462Y157763D01*
X184434Y157767D01*
X184331Y157753D01*
X184236Y157714D01*
X184153Y157651D01*
X18409Y157568D01*
X184051Y157473D01*
X184037Y15737D01*
X184051Y157267D01*
X18409Y157171D01*
X184153Y157089D01*
X184236Y157026D01*
X184331Y156986D01*
X184434Y156973D01*
X184537Y156986D01*
X184633Y157026D01*
X184715Y157089D01*
X184778Y157171D01*
X184818Y157267D01*
X184831Y15737D01*
X184827Y157398D01*
X185164Y157735D01*
X187735D01*
X187759Y157691D01*
X187239Y156859D01*
X188185Y156268D01*
X18827Y156405D01*
X18832Y156411D01*
X188597Y156135D01*
Y151432D01*
X188577Y151406D01*
X188549Y151339D01*
X188539Y151267D01*
X188549Y151196D01*
X188577Y151128D01*
X188621Y151071D01*
X188678Y151027D01*
X188745Y150999D01*
X188817Y15099D01*
X188889Y150999D01*
X188956Y151027D01*
X189014Y151071D01*
X189058Y151128D01*
X189086Y151196D01*
X189095Y151267D01*
X189086Y151339D01*
X189058Y151406D01*
X189038Y151432D01*
Y153767D01*
X189083Y153789D01*
X189092Y153783D01*
X189159Y153755D01*
X189231Y153745D01*
X189303Y153755D01*
X18937Y153783D01*
X189396Y153803D01*
X190202D01*
X19027Y153735D01*
Y153303D01*
X19025Y153277D01*
X190222Y153209D01*
X190213Y153138D01*
X190222Y153066D01*
X19025Y152999D01*
X190294Y152941D01*
X190352Y152897D01*
X190419Y152869D01*
X19048Y152861D01*
X190495Y152855D01*
X190531Y152815D01*
X190537Y15277D01*
X190565Y152703D01*
X190609Y152646D01*
X190667Y152602D01*
X190734Y152574D01*
X190806Y152564D01*
X190877Y152574D01*
X190903Y152584D01*
X191653D01*
X191679Y152574D01*
X19175Y152564D01*
X191822Y152574D01*
X191847Y152584D01*
X192837D01*
X193436Y151985D01*
X193417Y151939D01*
X192162D01*
X192137Y151949D01*
X192065Y151959D01*
X191993Y151949D01*
X191968Y151939D01*
X191542D01*
X191165Y152316D01*
X191112Y152357D01*
X19105Y152383D01*
X190983Y152392D01*
X1898D01*
X189775Y152402D01*
X189703Y152412D01*
X189631Y152402D01*
X189564Y152374D01*
X189507Y15233D01*
X189462Y152273D01*
X189435Y152206D01*
X189425Y152134D01*
X189435Y152062D01*
X189462Y151995D01*
X189507Y151937D01*
X189564Y151893D01*
X189631Y151865D01*
X189703Y151856D01*
X189775Y151865D01*
X1898Y151875D01*
X190876D01*
X191184Y151567D01*
X191188Y151558D01*
X191163Y151508D01*
X191078D01*
X191074Y151536D01*
X191046Y151603D01*
X191002Y151661D01*
X190945Y151705D01*
X190877Y151733D01*
X190806Y151742D01*
X190734Y151733D01*
X190667Y151705D01*
X190609Y151661D01*
X190565Y151603D01*
X190537Y151536D01*
X190528Y151464D01*
X190537Y151392D01*
X190565Y151325D01*
X190559Y151302D01*
X190534Y151292D01*
X190477Y151247D01*
X190432Y15119D01*
X190405Y151123D01*
X190395Y151051D01*
X190405Y150979D01*
X190412Y150961D01*
X19039Y15092D01*
X190319Y150872D01*
X19014Y150694D01*
X190108Y15069D01*
X190041Y150662D01*
X189983Y150618D01*
X189939Y15056D01*
X189911Y150493D01*
X189902Y150421D01*
X189905Y150397D01*
X189861Y150347D01*
X187999D01*
X187281Y151065D01*
X187309Y151108D01*
X187345Y151093D01*
X187471Y151076D01*
X187597Y151093D01*
X187714Y151141D01*
X187815Y151219D01*
X187892Y151319D01*
X187941Y151437D01*
X187958Y151563D01*
X187941Y151689D01*
X187892Y151806D01*
X187815Y151907D01*
X187729Y151973D01*
Y154762D01*
X18772Y154829D01*
X187694Y154891D01*
X187653Y154945D01*
X186943Y155655D01*
X186958Y155762D01*
X186941Y155888D01*
X186892Y156005D01*
X186815Y156106D01*
X186714Y156184D01*
X186597Y156232D01*
X186471Y156249D01*
X186345Y156232D01*
X186228Y156184D01*
X186127Y156106D01*
X186049Y156005D01*
X186001Y155888D01*
X185996Y155852D01*
X185946D01*
X185941Y155888D01*
X185892Y156005D01*
X185815Y156106D01*
X185714Y156184D01*
X185597Y156232D01*
X185471Y156249D01*
X185345Y156232D01*
X185228Y156184D01*
X185127Y156106D01*
X185049Y156005D01*
X185001Y155888D01*
X184996Y155852D01*
X184946D01*
X184941Y155888D01*
X184892Y156005D01*
X184815Y156106D01*
X184714Y156184D01*
X184597Y156232D01*
X184471Y156249D01*
X184345Y156232D01*
X184228Y156184D01*
X184127Y156106D01*
X184049Y156005D01*
X184001Y155888D01*
X183984Y155762D01*
X184001Y155636D01*
X184049Y155519D01*
X184127Y155418D01*
X184228Y155341D01*
X184345Y155292D01*
X184471Y155276D01*
X184597Y155292D01*
X184714Y155341D01*
X184815Y155418D01*
X184892Y155519D01*
X184941Y155636D01*
X184946Y155672D01*
X184996D01*
X185001Y155636D01*
X185049Y155519D01*
X185127Y155418D01*
X185228Y155341D01*
X185345Y155292D01*
X185471Y155276D01*
X185597Y155292D01*
X185714Y155341D01*
X185815Y155418D01*
X185892Y155519D01*
X185941Y155636D01*
X185946Y155672D01*
X185996D01*
X186001Y155636D01*
X186049Y155519D01*
X186127Y155418D01*
X186228Y155341D01*
X186345Y155292D01*
X186471Y155276D01*
X186578Y15529D01*
X187202Y154666D01*
X187199Y15464D01*
X187146Y154622D01*
X186863Y154904D01*
X186792Y154952D01*
X186707Y154969D01*
X18422D01*
X183834Y155355D01*
Y157478D01*
X183851Y157484D01*
X183975Y157563D01*
X184074Y157671D01*
X184142Y157801D01*
X184174Y157944D01*
X184167Y158091D01*
X184123Y158231D01*
X184044Y158355D01*
X183936Y158454D01*
X183806Y158522D01*
X183662Y158553D01*
D02*
G37*
G36*
X169928Y15007D02*
X16982Y150056D01*
X169719Y150014D01*
X169633Y149948D01*
X169567Y149862D01*
X169525Y149761D01*
X169511Y149653D01*
Y149535D01*
X169525Y149427D01*
X169567Y149327D01*
X16963Y149244D01*
Y148819D01*
X169629D01*
X16963Y148811D01*
Y148323D01*
X169629D01*
X169642Y148189D01*
X169681Y148061D01*
X169744Y147942D01*
X169829Y147839D01*
X169933Y147754D01*
X170048Y147692D01*
X170054Y14767D01*
X170057Y14764D01*
X169984Y147601D01*
X169863Y147502D01*
X169763Y147381D01*
X169759Y147374D01*
X169719Y147357D01*
X169633Y147291D01*
X169567Y147204D01*
X169525Y147104D01*
X169511Y146996D01*
Y146878D01*
X169525Y14677D01*
X169567Y146669D01*
X169633Y146583D01*
X169719Y146517D01*
X169759Y1465D01*
X169763Y146493D01*
X169863Y146372D01*
X169984Y146272D01*
X170122Y146198D01*
X170125Y146197D01*
X17013Y146144D01*
X170023Y146086D01*
X169889Y145976D01*
X169778Y145841D01*
X169696Y145687D01*
X169645Y14552D01*
X169628Y145347D01*
X16963D01*
Y144864D01*
X169628Y144847D01*
X16963D01*
Y144629D01*
X169567Y144547D01*
X169525Y144446D01*
X169511Y144338D01*
Y14422D01*
X169525Y144112D01*
X169567Y144012D01*
X169633Y143925D01*
X169719Y143859D01*
X16982Y143817D01*
X169928Y143803D01*
X170036Y143817D01*
X170136Y143859D01*
X170222Y143925D01*
X170289Y144012D01*
X17033Y144112D01*
X170345Y14422D01*
Y144338D01*
X17033Y144446D01*
X170295Y144532D01*
X170311Y144553D01*
X170371Y1446D01*
X170442Y144629D01*
X170517Y144639D01*
X170518Y144639D01*
X172477D01*
X172554Y144649D01*
X172626Y144679D01*
X172688Y144726D01*
X172735Y144788D01*
X172765Y14486D01*
X172775Y144937D01*
X172765Y145014D01*
X172735Y145086D01*
X172688Y145147D01*
X172669Y145162D01*
Y145212D01*
X172688Y145226D01*
X172735Y145288D01*
X172765Y14536D01*
X172775Y145437D01*
X172765Y145514D01*
X172735Y145586D01*
X172688Y145647D01*
X172669Y145662D01*
Y145712D01*
X172688Y145726D01*
X172735Y145788D01*
X172765Y14586D01*
X172775Y145937D01*
X172765Y146014D01*
X172735Y146086D01*
X172688Y146147D01*
X172669Y146162D01*
Y146212D01*
X172688Y146226D01*
X172735Y146288D01*
X172765Y14636D01*
X172775Y146437D01*
X172765Y146514D01*
X172735Y146586D01*
X172688Y146647D01*
X172669Y146662D01*
Y146712D01*
X172688Y146726D01*
X172735Y146788D01*
X172765Y14686D01*
X172775Y146937D01*
X172765Y147014D01*
X172735Y147086D01*
X172688Y147147D01*
X172669Y147162D01*
Y147212D01*
X172688Y147226D01*
X172735Y147288D01*
X172765Y14736D01*
X172775Y147437D01*
X172765Y147514D01*
X172735Y147586D01*
X172688Y147647D01*
X172669Y147662D01*
Y147712D01*
X172688Y147726D01*
X172735Y147788D01*
X172765Y14786D01*
X172775Y147937D01*
X172765Y148014D01*
X172735Y148086D01*
X172688Y148147D01*
X172672Y14816D01*
Y14821D01*
X172688Y148222D01*
X172735Y148284D01*
X172765Y148356D01*
X172775Y148433D01*
X172765Y14851D01*
X172735Y148582D01*
X172688Y148643D01*
X172626Y148691D01*
X172554Y148721D01*
X172477Y148731D01*
X170313D01*
Y148731D01*
X17028Y148738D01*
X170252Y148757D01*
X170233Y148785D01*
X170226Y148819D01*
X170225D01*
Y149244D01*
X170289Y149327D01*
X17033Y149427D01*
X170345Y149535D01*
Y149653D01*
X17033Y149761D01*
X170289Y149862D01*
X170222Y149948D01*
X170136Y150014D01*
X170036Y150056D01*
X169928Y15007D01*
D02*
G37*
G36*
X168928Y15011D02*
X168794Y150093D01*
X168669Y150041D01*
X168563Y149959D01*
X168481Y149852D01*
X168429Y149728D01*
X168411Y149594D01*
Y146937D01*
Y144279D01*
X168429Y144146D01*
X168481Y144021D01*
X168563Y143914D01*
X168669Y143832D01*
X168794Y143781D01*
X168928Y143763D01*
X169061Y143781D01*
X169186Y143832D01*
X169293Y143914D01*
X169375Y144021D01*
X169426Y144146D01*
X169444Y144279D01*
Y146937D01*
Y149594D01*
X169426Y149728D01*
X169375Y149852D01*
X169293Y149959D01*
X169186Y150041D01*
X169061Y150093D01*
X168928Y15011D01*
D02*
G37*
G36*
X194805Y140466D02*
X194697Y140451D01*
X194596Y14041D01*
X19451Y140343D01*
X194426Y14026D01*
X19436Y140174D01*
X194319Y140073D01*
X194304Y139965D01*
X194319Y139857D01*
X19436Y139757D01*
X194426Y13967D01*
X194513Y139604D01*
X194613Y139562D01*
X194721Y139548D01*
X194829Y139562D01*
X19493Y139604D01*
X195016Y13967D01*
X1951Y139754D01*
X195166Y13984D01*
X195208Y139941D01*
X195222Y140049D01*
X195208Y140157D01*
X195166Y140257D01*
X1951Y140343D01*
X195013Y14041D01*
X194913Y140451D01*
X194805Y140466D01*
D02*
G37*
G36*
X195512Y139758D02*
X195404Y139744D01*
X195303Y139703D01*
X195217Y139636D01*
X195134Y139553D01*
X195067Y139466D01*
X195026Y139366D01*
X195011Y139258D01*
X195026Y13915D01*
X195067Y13905D01*
X195134Y138963D01*
X19522Y138897D01*
X19532Y138855D01*
X195428Y138841D01*
X195536Y138855D01*
X195637Y138897D01*
X195723Y138963D01*
X195807Y139047D01*
X195873Y139133D01*
X195915Y139234D01*
X195929Y139341D01*
X195915Y139449D01*
X195873Y13955D01*
X195807Y139636D01*
X19572Y139703D01*
X19562Y139744D01*
X195512Y139758D01*
D02*
G37*
G36*
X194756Y137498D02*
X193752D01*
Y136494D01*
X194756D01*
Y137498D01*
D02*
G37*
G36*
X191254Y137502D02*
X191123Y137485D01*
X191001Y137434D01*
X190896Y137354D01*
X190816Y137249D01*
X190765Y137127D01*
X190748Y136996D01*
X190765Y136865D01*
X190816Y136743D01*
X190896Y136638D01*
X191001Y136557D01*
X191123Y136507D01*
X191254Y13649D01*
X191385Y136507D01*
X191508Y136557D01*
X191612Y136638D01*
X191693Y136743D01*
X191743Y136865D01*
X191761Y136996D01*
X191743Y137127D01*
X191693Y137249D01*
X191612Y137354D01*
X191508Y137434D01*
X191385Y137485D01*
X191254Y137502D01*
D02*
G37*
G36*
X172074Y136847D02*
X17194Y136829D01*
X171816Y136778D01*
X171709Y136696D01*
X171627Y136589D01*
X171575Y136464D01*
X171558Y136331D01*
X171575Y136197D01*
X171627Y136072D01*
X171709Y135965D01*
X17252Y135154D01*
X172627Y135072D01*
X172751Y135021D01*
X172885Y135003D01*
X176833D01*
X176883Y134982D01*
X177027Y134964D01*
X177171Y134982D01*
X177305Y135038D01*
X17742Y135126D01*
X177509Y135241D01*
X177564Y135376D01*
X177583Y135519D01*
X177564Y135663D01*
X177509Y135797D01*
X17742Y135913D01*
X177305Y136001D01*
X177171Y136056D01*
X177027Y136075D01*
X176883Y136056D01*
X176833Y136036D01*
X173099D01*
X172439Y136696D01*
X172332Y136778D01*
X172207Y136829D01*
X172074Y136847D01*
D02*
G37*
G36*
X174059Y133915D02*
X173915Y133896D01*
X173781Y13384D01*
X173665Y133752D01*
X173577Y133637D01*
X173522Y133503D01*
X173503Y133359D01*
X173522Y133215D01*
X173577Y133081D01*
X173665Y132966D01*
X173781Y132878D01*
X173914Y132822D01*
X176344Y130999D01*
X176421Y130899D01*
X176536Y130811D01*
X176671Y130755D01*
X176814Y130736D01*
X176958Y130755D01*
X177092Y130811D01*
X177208Y130899D01*
X177296Y131014D01*
X177351Y131148D01*
X17737Y131292D01*
X177351Y131436D01*
X177296Y13157D01*
X177208Y131685D01*
X177092Y131774D01*
X176959Y131829D01*
X174529Y133652D01*
X174452Y133752D01*
X174336Y13384D01*
X174202Y133896D01*
X174059Y133915D01*
D02*
G37*
G36*
X18055Y131745D02*
X180406Y131726D01*
X180272Y13167D01*
X180157Y131582D01*
X180068Y131467D01*
X180013Y131333D01*
X179994Y131189D01*
X180013Y131045D01*
X180068Y130911D01*
X180157Y130796D01*
X180272Y130707D01*
X180406Y130652D01*
X18055Y130633D01*
X180694Y130652D01*
X180828Y130707D01*
X180828Y130708D01*
X183748Y13047D01*
X183815Y130419D01*
X183949Y130363D01*
X184093Y130344D01*
X184237Y130363D01*
X184371Y130419D01*
X184486Y130507D01*
X184574Y130622D01*
X18463Y130756D01*
X184649Y1309D01*
X18463Y131044D01*
X184574Y131178D01*
X184486Y131293D01*
X184371Y131382D01*
X184237Y131437D01*
X184093Y131456D01*
X183949Y131437D01*
X183815Y131382D01*
X183814Y131381D01*
X180895Y131619D01*
X180828Y13167D01*
X180694Y131726D01*
X18055Y131745D01*
D02*
G37*
%LPD*%
G36*
X192553Y155074D02*
X192606Y155033D01*
X192669Y155007D01*
X192735Y154998D01*
X193909D01*
X193976Y155007D01*
X194038Y155033D01*
X194092Y155074D01*
X194217Y155199D01*
X194267Y155195D01*
X19432Y155121D01*
X19435Y155081D01*
X19435Y155081D01*
X194547Y154809D01*
X19449Y154753D01*
X194442Y154681D01*
X194426Y154597D01*
Y153204D01*
X194406Y153178D01*
X194378Y153111D01*
X194368Y153039D01*
X194371Y153016D01*
X194346Y152996D01*
X194325Y152987D01*
X194264Y153012D01*
X194192Y153022D01*
X19412Y153012D01*
X194053Y152985D01*
X194009Y152951D01*
X193959Y152971D01*
Y153851D01*
X193979Y153877D01*
X194007Y153944D01*
X194017Y154016D01*
X194007Y154088D01*
X193979Y154155D01*
X193935Y154212D01*
X193878Y154256D01*
X193811Y154284D01*
X193739Y154294D01*
X193667Y154284D01*
X1936Y154256D01*
X193542Y154212D01*
X193498Y154155D01*
X19347Y154088D01*
X193461Y154016D01*
X19347Y153944D01*
X193498Y153877D01*
X193518Y153851D01*
Y152704D01*
X193469Y152682D01*
X193126Y153025D01*
X193073Y153066D01*
X193011Y153092D01*
X192944Y1531D01*
X191847D01*
X191822Y153111D01*
X19175Y15312D01*
X191679Y153111D01*
X191653Y1531D01*
X190903D01*
X190877Y153111D01*
X190817Y153119D01*
X190802Y153125D01*
X190765Y153165D01*
X190759Y153209D01*
X190731Y153277D01*
X190711Y153303D01*
Y153827D01*
X190695Y153911D01*
X190647Y153983D01*
X19045Y154179D01*
X190378Y154227D01*
X190294Y154244D01*
X189396D01*
X18937Y154264D01*
X189303Y154292D01*
X189231Y154301D01*
X189159Y154292D01*
X189092Y154264D01*
X189083Y154257D01*
X189038Y154279D01*
Y156226D01*
X189021Y15631D01*
X188973Y156382D01*
X188532Y156824D01*
X188775Y157214D01*
X188018Y157687D01*
X188031Y157735D01*
X189892D01*
X192553Y155074D01*
D02*
G37*
%LPC*%
G36*
X192199Y154991D02*
X192053Y154977D01*
X191915Y154926D01*
X191796Y15484D01*
X191702Y154727D01*
X191642Y154594D01*
X191617Y154449D01*
X191631Y154303D01*
X191683Y154165D01*
X191768Y154046D01*
X191881Y153952D01*
X192015Y153891D01*
X19216Y153867D01*
X192306Y153881D01*
X192443Y153933D01*
X192563Y154018D01*
X192656Y154131D01*
X192717Y154265D01*
X192741Y15441D01*
X192727Y154556D01*
X192676Y154693D01*
X192591Y154813D01*
X192477Y154906D01*
X192344Y154967D01*
X192199Y154991D01*
D02*
G37*
%LPD*%
D10*
X199546Y14476D02*
Y146316D01*
X199323Y146539D02*
X199546Y146316D01*
X199323Y146539D02*
Y147428D01*
X199026Y147725D02*
X199323Y147428D01*
X199026Y147725D02*
Y148478D01*
X198168Y149336D02*
X199026Y148478D01*
X198168Y149336D02*
Y150945D01*
X197375Y151738D02*
X198168Y150945D01*
X187204Y159378D02*
X18785Y158732D01*
X189067D01*
X172919Y155993D02*
X173955Y157029D01*
X172919Y155715D02*
Y155993D01*
X180626Y151842D02*
X181427Y152644D01*
X18055Y129811D02*
X184093Y129522D01*
X189227Y129997D01*
X190921Y130929D01*
X192279Y131934D01*
X193384Y133D01*
X19436Y134198D01*
X195113Y135423D01*
X195682Y136673D01*
X195934Y137268D01*
X19622Y137902D01*
X196527Y138526D01*
X196859Y139181D01*
X197283Y139928D01*
X197711Y140563D01*
X198171Y141184D01*
X198483Y142134D01*
X175668Y154338D02*
X176618Y154842D01*
X174565Y152449D02*
X175668Y154338D01*
X174377Y149181D02*
X174565Y152449D01*
X174329Y145047D02*
X174377Y149181D01*
X173187Y144164D02*
X174329Y145047D01*
X17114Y142685D02*
X173187Y144164D01*
X170943Y140441D02*
X17114Y142685D01*
X170943Y140441D02*
X172781Y137038D01*
D11*
X190983Y152134D02*
X191435Y151681D01*
X192065D01*
X190806Y152842D02*
X19175D01*
X192065Y151681D02*
X194636D01*
X193692Y152094D02*
X195545D01*
X192944Y152842D02*
X193692Y152094D01*
X187471Y151563D02*
Y154762D01*
X186471Y155762D02*
X187471Y154762D01*
X189703Y152134D02*
X190983D01*
X195047Y147584D02*
Y151269D01*
X194636Y151681D02*
X195047Y151269D01*
X184434Y15737D02*
X185057Y157993D01*
X189999D01*
X192735Y155256D01*
X193909D01*
X194436Y155783D01*
X196298Y148315D02*
X197993D01*
X195904Y148708D02*
X196298Y148315D01*
X195904Y148708D02*
Y151735D01*
X195545Y152094D02*
X195904Y151735D01*
X198391Y146986D02*
Y147917D01*
X197993Y148315D02*
X198391Y147917D01*
X19175Y152842D02*
X192944D01*
X195047Y147584D02*
X195824D01*
X196423Y146986D01*
X199546Y143197D02*
Y14476D01*
X171645Y15056D02*
X174537Y15454D01*
X197625Y14379D02*
Y145854D01*
Y14379D02*
X19798Y143435D01*
X199152D01*
X196332Y140839D02*
X197188D01*
X198483Y142134D01*
X199546Y143197D01*
D12*
X169928Y148819D02*
G03*
X170313Y148433I000386J0D01*
G01*
X169928Y148323D02*
G03*
X170313Y147937I000386J0D01*
G01*
X170518Y145937D02*
G03*
X169928Y145347I0J-00059D01*
G01*
X170518Y145437D02*
G03*
X169928Y144847I0J-00059D01*
G01*
X170518Y144937D02*
G03*
X169928Y144347I0J-00059D01*
G01*
X169928Y146937D02*
G03*
X170428Y146437I0005J0D01*
G01*
Y147437D02*
G03*
X169928Y146937I0J-0005D01*
G01*
X169928Y148819D02*
Y149594D01*
X170313Y148433D02*
X172477D01*
X170313Y147937D02*
X172477D01*
X169928Y148323D02*
Y149098D01*
X171658Y144937D02*
X172477D01*
X171658Y145437D02*
X172477D01*
X171658Y145937D02*
X172477D01*
X170518D02*
X171658D01*
X170518Y145437D02*
X171658D01*
X170518Y144937D02*
X171658D01*
X169928Y144847D02*
Y145347D01*
Y144347D02*
Y144847D01*
X171658Y146437D02*
X172477D01*
X171658Y146937D02*
X172477D01*
X171658Y147437D02*
X172477D01*
X170428D02*
X171658D01*
X170428Y146437D02*
X171658D01*
X169928Y146937D02*
X171658D01*
D13*
X187046Y149535D02*
X190786D01*
X191101Y15048D02*
X192085D01*
X190746Y150126D02*
X191101Y15048D01*
X187908Y150126D02*
X190746D01*
X186471Y151563D02*
X187908Y150126D01*
X190475Y150716D02*
X19303D01*
X192085Y15048D02*
X192459Y150106D01*
X190786Y149535D02*
X191435Y150185D01*
X190983Y151287D02*
X193811D01*
X190806Y151464D02*
X190983Y151287D01*
X190673Y151051D02*
X193463D01*
X187715Y148954D02*
X191307D01*
X187407Y14926D02*
X191121D01*
X193463Y151051D02*
X193778Y150736D01*
X19303Y150716D02*
X19364Y150106D01*
X191307Y148954D02*
X19177Y149417D01*
X19018Y150421D02*
X190475Y150716D01*
X193975Y152449D02*
X196689D01*
X193739Y152685D02*
X193975Y152449D01*
X194192Y152744D02*
X194821D01*
X194646Y153039D02*
Y154597D01*
X191121Y14926D02*
X19175Y14989D01*
X196744Y150106D02*
Y152504D01*
X194047Y147584D02*
Y150421D01*
X193778Y150736D02*
X194215D01*
X194547Y150403D01*
X193811Y151287D02*
X194047Y151051D01*
X194547Y147073D02*
Y150403D01*
X188817Y151267D02*
Y156226D01*
X189231Y154023D02*
X190294D01*
X186809Y152567D02*
Y154078D01*
X186432Y154456D02*
X186809Y154078D01*
X183861Y154456D02*
X186432D01*
X186707Y154748D02*
X187105Y15435D01*
Y152173D02*
Y15435D01*
X187085Y152153D02*
X187105Y152173D01*
X177957Y15796D02*
X18217D01*
X174537Y15454D02*
X177957Y15796D01*
X18217D02*
X18331Y156821D01*
Y155008D02*
Y156821D01*
Y155008D02*
X183861Y154456D01*
X183613Y155264D02*
Y157993D01*
Y155264D02*
X184129Y154748D01*
X186707D01*
X188007Y157036D02*
X188817Y156226D01*
X189802Y157106D02*
X191475Y155433D01*
X198857Y145446D02*
Y145953D01*
X195332Y146289D02*
X19852D01*
X198857Y145953D01*
X194547Y147073D02*
X195332Y146289D01*
X196689Y152449D02*
X196744Y152504D01*
X196787Y152547D01*
X197375Y151738D02*
X197533Y151896D01*
Y152607D01*
X197052Y153088D02*
X197533Y152607D01*
X197052Y153088D02*
Y153652D01*
X195655Y15505D02*
X197052Y153652D01*
X195655Y15505D02*
Y155119D01*
X195625Y155149D02*
X195655Y155119D01*
X195625Y155149D02*
Y155607D01*
X194649Y156582D02*
X195625Y155607D01*
X193696Y156582D02*
X194649D01*
X193239Y156125D02*
X193696Y156582D01*
X191475Y154006D02*
Y155433D01*
X193739Y152685D02*
Y154016D01*
X190491Y153138D02*
Y153827D01*
X190294Y154023D02*
X190491Y153827D01*
X195018Y153572D02*
X195612Y154165D01*
X195018Y152941D02*
Y153572D01*
X194821Y152744D02*
X195018Y152941D01*
X194646Y154597D02*
X195024Y154974D01*
D22*
X184434Y15737D02*
D03*
D27*
X18055Y131189D02*
X184093Y1309D01*
D33*
X168928Y144279D02*
D03*
X169928D02*
D03*
Y149594D02*
D03*
X168928D02*
D03*
Y146937D02*
D03*
X169928D02*
D03*
X194047Y147584D02*
D03*
X195047D02*
D03*
D34*
X194763Y140007D02*
D03*
X19547Y1393D02*
D03*
D35*
X172074Y136331D02*
D03*
X172781Y137038D02*
D03*
D36*
X176618Y150842D02*
D03*
Y151842D02*
D03*
Y152842D02*
D03*
Y154842D02*
D03*
Y153842D02*
D03*
X184471Y155762D02*
D03*
X185471D02*
D03*
X186471D02*
D03*
X187471Y151563D02*
D03*
X186471D02*
D03*
X185471D02*
D03*
D37*
X173955Y157029D02*
D03*
X187204Y159378D02*
D03*
D38*
X195612Y154165D02*
D03*
X195024Y154974D02*
D03*
X194436Y155783D02*
D03*
X196199Y153356D02*
D03*
X196787Y152547D02*
D03*
X197375Y151738D02*
D03*
D39*
X196423Y146986D02*
D03*
X197407Y148954D02*
D03*
X198391Y146986D02*
D03*
D40*
X178769Y157139D02*
D03*
D41*
X178421Y159109D02*
D03*
X183613Y157993D02*
D03*
X183266Y159963D02*
D03*
X189067Y158732D02*
D03*
X192179Y154429D02*
D03*
X193239Y156125D02*
D03*
X170027Y151735D02*
D03*
X174537Y15454D02*
D03*
X172919Y155715D02*
D03*
D42*
X188007Y157036D02*
D03*
D43*
X171645Y15056D02*
D03*
D44*
X188497Y133404D02*
D03*
X181427Y152644D02*
D03*
D45*
X18055Y129811D02*
D03*
Y131189D02*
D03*
X177027Y136897D02*
D03*
Y135519D02*
D03*
X175033Y134333D02*
D03*
X174059Y133359D02*
D03*
X177789Y132266D02*
D03*
X176814Y131292D02*
D03*
X184093Y129522D02*
D03*
Y1309D02*
D03*
D46*
X194254Y136996D02*
D03*
D47*
X191254D02*
D03*
D48*
X187046Y149535D02*
D03*
X191435Y150185D02*
D03*
X187715Y148954D02*
D03*
X191435Y151681D02*
D03*
X190806Y151464D02*
D03*
Y152842D02*
D03*
X19177Y149417D02*
D03*
X190673Y151051D02*
D03*
X192065Y151681D02*
D03*
X194192Y152744D02*
D03*
X194646Y153039D02*
D03*
X187407Y14926D02*
D03*
X19175Y14989D02*
D03*
X192459Y150106D02*
D03*
X19364D02*
D03*
X196744D02*
D03*
X194047Y150421D02*
D03*
Y151051D02*
D03*
X19018Y150421D02*
D03*
X188817Y151267D02*
D03*
X189231Y154023D02*
D03*
X186809Y152567D02*
D03*
X187105Y152153D02*
D03*
X189703Y152134D02*
D03*
X189802Y157106D02*
D03*
X198857Y145446D02*
D03*
X191475Y154006D02*
D03*
X190491Y153138D02*
D03*
X193739Y154016D02*
D03*
X191121Y148315D02*
D03*
X19175Y152842D02*
D03*
X199546Y14476D02*
D03*
X199152Y143435D02*
D03*
X197625Y145854D02*
D03*
X196332Y140839D02*
D03*
X172477Y147937D02*
D03*
Y148437D02*
D03*
Y147437D02*
D03*
Y146937D02*
D03*
Y146437D02*
D03*
Y145937D02*
D03*
Y145437D02*
D03*
Y144937D02*
D03*
X188827Y147519D02*
D03*
X189471Y146937D02*
D03*
X191113Y146986D02*
D03*
X191841Y15347D02*
D03*
X192237Y153596D02*
D03*
X192613Y153799D02*
D03*
D49*
X195589Y143197D02*
D03*
D50*
X174059Y133359D02*
X176814Y131292D01*
X168928Y144279D02*
Y146937D01*
Y149594D01*
X172074Y136331D02*
X172885Y135519D01*
X177027D01*
D51*
X191121Y148315D02*
X192204D01*
X195589Y14493D01*
Y143197D02*
Y14493D01*
X187238Y148388D02*
X188857Y148315D01*
X185585Y149149D02*
X186338Y148906D01*
X184211Y14943D02*
X185585Y149149D01*
X182951Y149466D02*
X184211Y14943D01*
X181652Y149324D02*
X182951Y149466D01*
X180038Y149378D02*
X181652Y149324D01*
X178896Y149743D02*
X180038Y149378D01*
X178138Y150323D02*
X178896Y149743D01*
X17781Y151267D02*
X178138Y150323D01*
X17771Y152547D02*
X17781Y151267D01*
X177439Y153354D02*
X17771Y152547D01*
X176618Y153842D02*
X177439Y153354D01*
X186338Y148906D02*
X186881Y148593D01*
X187238Y148388D01*
X188857Y148315D02*
X191121D01*
M02*
