G04 Layer_Color=2752767*
%FSTAX24Y24*%
%MOIN*%
G70*
G01*
G75*
%ADD87C,0.0020*%
%ADD88C,0.0027*%
D87*
X168848Y144199D02*
Y144359D01*
X169008D01*
Y144199D01*
X168848D01*
X169848D02*
Y144359D01*
X170008D01*
Y144199D01*
X169848D01*
Y149514D02*
Y149674D01*
X170008D01*
Y149514D01*
X169848D01*
X168848D02*
Y149674D01*
X169008D01*
Y149514D01*
X168848D01*
Y146857D02*
Y147017D01*
X169008D01*
Y146857D01*
X168848D01*
X169848D02*
Y147017D01*
X170008D01*
Y146857D01*
X169848D01*
X194683Y139927D02*
Y140087D01*
X194843D01*
Y139927D01*
X194683D01*
X19539Y13922D02*
Y13938D01*
X19555D01*
Y13922D01*
X19539D01*
X171994Y136251D02*
Y136411D01*
X172154D01*
Y136251D01*
X171994D01*
X172701Y136958D02*
Y137118D01*
X172861D01*
Y136958D01*
X172701D01*
X193967Y147504D02*
Y147664D01*
X194127D01*
Y147504D01*
X193967D01*
X194967D02*
Y147664D01*
X195127D01*
Y147504D01*
X194967D01*
X173955Y156949D02*
X173875Y157109D01*
X174035D01*
X173955Y156949D01*
X187204Y159298D02*
X187124Y159458D01*
X187284D01*
X187204Y159298D01*
X178769Y157059D02*
X178809Y157099D01*
X178849D01*
X178809Y157139D01*
X178849Y157179D01*
X178809D01*
X178769Y157219D01*
X178729Y157179D01*
X178689D01*
X178729Y157139D01*
X178689Y157099D01*
X178729D01*
X178769Y157059D01*
X178421Y159029D02*
X178461Y159069D01*
X178501D01*
X178461Y159109D01*
X178501Y159149D01*
X178461D01*
X178421Y159189D01*
X178381Y159149D01*
X178341D01*
X178381Y159109D01*
X178341Y159069D01*
X178381D01*
X178421Y159029D01*
X183613Y157913D02*
X183653Y157953D01*
X183693D01*
X183653Y157993D01*
X183693Y158033D01*
X183653D01*
X183613Y158073D01*
X183573Y158033D01*
X183533D01*
X183573Y157993D01*
X183533Y157953D01*
X183573D01*
X183613Y157913D01*
X183266Y159883D02*
X183306Y159923D01*
X183346D01*
X183306Y159963D01*
X183346Y160003D01*
X183306D01*
X183266Y160043D01*
X183226Y160003D01*
X183186D01*
X183226Y159963D01*
X183186Y159923D01*
X183226D01*
X183266Y159883D01*
X188007Y156956D02*
X188047Y156996D01*
X188087D01*
X188047Y157036D01*
X188087Y157076D01*
X188047D01*
X188007Y157116D01*
X187967Y157076D01*
X187927D01*
X187967Y157036D01*
X187927Y156996D01*
X187967D01*
X188007Y156956D01*
X189067Y158652D02*
X189107Y158692D01*
X189147D01*
X189107Y158732D01*
X189147Y158772D01*
X189107D01*
X189067Y158812D01*
X189027Y158772D01*
X188987D01*
X189027Y158732D01*
X188987Y158692D01*
X189027D01*
X189067Y158652D01*
X192179Y154349D02*
X192219Y154389D01*
X192259D01*
X192219Y154429D01*
X192259Y154469D01*
X192219D01*
X192179Y154509D01*
X192139Y154469D01*
X192099D01*
X192139Y154429D01*
X192099Y154389D01*
X192139D01*
X192179Y154349D01*
X193239Y156045D02*
X193279Y156085D01*
X193319D01*
X193279Y156125D01*
X193319Y156165D01*
X193279D01*
X193239Y156205D01*
X193199Y156165D01*
X193159D01*
X193199Y156125D01*
X193159Y156085D01*
X193199D01*
X193239Y156045D01*
X171645Y15048D02*
X171685Y15052D01*
X171725D01*
X171685Y15056D01*
X171725Y1506D01*
X171685D01*
X171645Y15064D01*
X171605Y1506D01*
X171565D01*
X171605Y15056D01*
X171565Y15052D01*
X171605D01*
X171645Y15048D01*
X170027Y151655D02*
X170067Y151695D01*
X170107D01*
X170067Y151735D01*
X170107Y151775D01*
X170067D01*
X170027Y151815D01*
X169987Y151775D01*
X169947D01*
X169987Y151735D01*
X169947Y151695D01*
X169987D01*
X170027Y151655D01*
X174537Y15446D02*
X174577Y1545D01*
X174617D01*
X174577Y15454D01*
X174617Y15458D01*
X174577D01*
X174537Y15462D01*
X174497Y15458D01*
X174457D01*
X174497Y15454D01*
X174457Y1545D01*
X174497D01*
X174537Y15446D01*
X172919Y155635D02*
X172959Y155675D01*
X172999D01*
X172959Y155715D01*
X172999Y155755D01*
X172959D01*
X172919Y155795D01*
X172879Y155755D01*
X172839D01*
X172879Y155715D01*
X172839Y155675D01*
X172879D01*
X172919Y155635D01*
X188417Y133324D02*
X188457Y133404D01*
X188417Y133484D01*
X188497Y133444D01*
X188577Y133484D01*
X188537Y133404D01*
X188577Y133324D01*
X188497Y133364D01*
X188417Y133324D01*
X181347Y152564D02*
X181387Y152644D01*
X181347Y152724D01*
X181427Y152684D01*
X181507Y152724D01*
X181467Y152644D01*
X181507Y152564D01*
X181427Y152604D01*
X181347Y152564D01*
X187006Y149495D02*
Y149455D01*
X187086D01*
Y149495D01*
X187126D01*
Y149575D01*
X187086D01*
Y149615D01*
X187006D01*
Y149575D01*
X186966D01*
Y149495D01*
X187006D01*
X191395Y150145D02*
Y150105D01*
X191475D01*
Y150145D01*
X191515D01*
Y150225D01*
X191475D01*
Y150265D01*
X191395D01*
Y150225D01*
X191355D01*
Y150145D01*
X191395D01*
X187675Y148914D02*
Y148874D01*
X187755D01*
Y148914D01*
X187795D01*
Y148994D01*
X187755D01*
Y149034D01*
X187675D01*
Y148994D01*
X187635D01*
Y148914D01*
X187675D01*
X191395Y151641D02*
Y151601D01*
X191475D01*
Y151641D01*
X191515D01*
Y151721D01*
X191475D01*
Y151761D01*
X191395D01*
Y151721D01*
X191355D01*
Y151641D01*
X191395D01*
X190766Y151424D02*
Y151384D01*
X190846D01*
Y151424D01*
X190886D01*
Y151504D01*
X190846D01*
Y151544D01*
X190766D01*
Y151504D01*
X190726D01*
Y151424D01*
X190766D01*
Y152802D02*
Y152762D01*
X190846D01*
Y152802D01*
X190886D01*
Y152882D01*
X190846D01*
Y152922D01*
X190766D01*
Y152882D01*
X190726D01*
Y152802D01*
X190766D01*
X19173Y149377D02*
Y149337D01*
X19181D01*
Y149377D01*
X19185D01*
Y149457D01*
X19181D01*
Y149497D01*
X19173D01*
Y149457D01*
X19169D01*
Y149377D01*
X19173D01*
X190633Y151011D02*
Y150971D01*
X190713D01*
Y151011D01*
X190753D01*
Y151091D01*
X190713D01*
Y151131D01*
X190633D01*
Y151091D01*
X190593D01*
Y151011D01*
X190633D01*
X192025Y151641D02*
Y151601D01*
X192105D01*
Y151641D01*
X192145D01*
Y151721D01*
X192105D01*
Y151761D01*
X192025D01*
Y151721D01*
X191985D01*
Y151641D01*
X192025D01*
X194152Y152704D02*
Y152664D01*
X194232D01*
Y152704D01*
X194272D01*
Y152784D01*
X194232D01*
Y152824D01*
X194152D01*
Y152784D01*
X194112D01*
Y152704D01*
X194152D01*
X194606Y152999D02*
Y152959D01*
X194686D01*
Y152999D01*
X194726D01*
Y153079D01*
X194686D01*
Y153119D01*
X194606D01*
Y153079D01*
X194566D01*
Y152999D01*
X194606D01*
X187367Y14922D02*
Y14918D01*
X187447D01*
Y14922D01*
X187487D01*
Y1493D01*
X187447D01*
Y14934D01*
X187367D01*
Y1493D01*
X187327D01*
Y14922D01*
X187367D01*
X19171Y14985D02*
Y14981D01*
X19179D01*
Y14985D01*
X19183D01*
Y14993D01*
X19179D01*
Y14997D01*
X19171D01*
Y14993D01*
X19167D01*
Y14985D01*
X19171D01*
X192419Y150066D02*
Y150026D01*
X192499D01*
Y150066D01*
X192539D01*
Y150146D01*
X192499D01*
Y150186D01*
X192419D01*
Y150146D01*
X192379D01*
Y150066D01*
X192419D01*
X1936D02*
Y150026D01*
X19368D01*
Y150066D01*
X19372D01*
Y150146D01*
X19368D01*
Y150186D01*
X1936D01*
Y150146D01*
X19356D01*
Y150066D01*
X1936D01*
X196704D02*
Y150026D01*
X196784D01*
Y150066D01*
X196824D01*
Y150146D01*
X196784D01*
Y150186D01*
X196704D01*
Y150146D01*
X196664D01*
Y150066D01*
X196704D01*
X194007Y150381D02*
Y150341D01*
X194087D01*
Y150381D01*
X194127D01*
Y150461D01*
X194087D01*
Y150501D01*
X194007D01*
Y150461D01*
X193967D01*
Y150381D01*
X194007D01*
Y151011D02*
Y150971D01*
X194087D01*
Y151011D01*
X194127D01*
Y151091D01*
X194087D01*
Y151131D01*
X194007D01*
Y151091D01*
X193967D01*
Y151011D01*
X194007D01*
X19014Y150381D02*
Y150341D01*
X19022D01*
Y150381D01*
X19026D01*
Y150461D01*
X19022D01*
Y150501D01*
X19014D01*
Y150461D01*
X1901D01*
Y150381D01*
X19014D01*
X188777Y151227D02*
Y151187D01*
X188857D01*
Y151227D01*
X188897D01*
Y151307D01*
X188857D01*
Y151347D01*
X188777D01*
Y151307D01*
X188737D01*
Y151227D01*
X188777D01*
X189191Y153983D02*
Y153943D01*
X189271D01*
Y153983D01*
X189311D01*
Y154063D01*
X189271D01*
Y154103D01*
X189191D01*
Y154063D01*
X189151D01*
Y153983D01*
X189191D01*
X186769Y152527D02*
Y152487D01*
X186849D01*
Y152527D01*
X186889D01*
Y152607D01*
X186849D01*
Y152647D01*
X186769D01*
Y152607D01*
X186729D01*
Y152527D01*
X186769D01*
X187065Y152113D02*
Y152073D01*
X187145D01*
Y152113D01*
X187185D01*
Y152193D01*
X187145D01*
Y152233D01*
X187065D01*
Y152193D01*
X187025D01*
Y152113D01*
X187065D01*
X189663Y152094D02*
Y152054D01*
X189743D01*
Y152094D01*
X189783D01*
Y152174D01*
X189743D01*
Y152214D01*
X189663D01*
Y152174D01*
X189623D01*
Y152094D01*
X189663D01*
X189762Y157066D02*
Y157026D01*
X189842D01*
Y157066D01*
X189882D01*
Y157146D01*
X189842D01*
Y157186D01*
X189762D01*
Y157146D01*
X189722D01*
Y157066D01*
X189762D01*
X184354Y15729D02*
X184394D01*
X184434Y15733D01*
X184474Y15729D01*
X184514D01*
Y15733D01*
X184474Y15737D01*
X184514Y15741D01*
Y15745D01*
X184474D01*
X184434Y15741D01*
X184394Y15745D01*
X184354D01*
Y15741D01*
X184394Y15737D01*
X184354Y15733D01*
Y15729D01*
X198817Y145406D02*
Y145366D01*
X198897D01*
Y145406D01*
X198937D01*
Y145486D01*
X198897D01*
Y145526D01*
X198817D01*
Y145486D01*
X198777D01*
Y145406D01*
X198817D01*
X191435Y153966D02*
Y153926D01*
X191515D01*
Y153966D01*
X191555D01*
Y154046D01*
X191515D01*
Y154086D01*
X191435D01*
Y154046D01*
X191395D01*
Y153966D01*
X191435D01*
X190451Y153098D02*
Y153058D01*
X190531D01*
Y153098D01*
X190571D01*
Y153178D01*
X190531D01*
Y153218D01*
X190451D01*
Y153178D01*
X190411D01*
Y153098D01*
X190451D01*
X193699Y153976D02*
Y153936D01*
X193779D01*
Y153976D01*
X193819D01*
Y154056D01*
X193779D01*
Y154096D01*
X193699D01*
Y154056D01*
X193659D01*
Y153976D01*
X193699D01*
X191081Y148275D02*
Y148235D01*
X191161D01*
Y148275D01*
X191201D01*
Y148355D01*
X191161D01*
Y148395D01*
X191081D01*
Y148355D01*
X191041D01*
Y148275D01*
X191081D01*
X19171Y152802D02*
Y152762D01*
X19179D01*
Y152802D01*
X19183D01*
Y152882D01*
X19179D01*
Y152922D01*
X19171D01*
Y152882D01*
X19167D01*
Y152802D01*
X19171D01*
X199506Y14472D02*
Y14468D01*
X199586D01*
Y14472D01*
X199626D01*
Y1448D01*
X199586D01*
Y14484D01*
X199506D01*
Y1448D01*
X199466D01*
Y14472D01*
X199506D01*
X199112Y143395D02*
Y143355D01*
X199192D01*
Y143395D01*
X199232D01*
Y143475D01*
X199192D01*
Y143515D01*
X199112D01*
Y143475D01*
X199072D01*
Y143395D01*
X199112D01*
X197585Y145814D02*
Y145774D01*
X197665D01*
Y145814D01*
X197705D01*
Y145894D01*
X197665D01*
Y145934D01*
X197585D01*
Y145894D01*
X197545D01*
Y145814D01*
X197585D01*
X196292Y140799D02*
Y140759D01*
X196372D01*
Y140799D01*
X196412D01*
Y140879D01*
X196372D01*
Y140919D01*
X196292D01*
Y140879D01*
X196252D01*
Y140799D01*
X196292D01*
X172437Y147897D02*
Y147857D01*
X172517D01*
Y147897D01*
X172557D01*
Y147977D01*
X172517D01*
Y148017D01*
X172437D01*
Y147977D01*
X172397D01*
Y147897D01*
X172437D01*
Y148397D02*
Y148357D01*
X172517D01*
Y148397D01*
X172557D01*
Y148477D01*
X172517D01*
Y148517D01*
X172437D01*
Y148477D01*
X172397D01*
Y148397D01*
X172437D01*
Y147397D02*
Y147357D01*
X172517D01*
Y147397D01*
X172557D01*
Y147477D01*
X172517D01*
Y147517D01*
X172437D01*
Y147477D01*
X172397D01*
Y147397D01*
X172437D01*
Y146897D02*
Y146857D01*
X172517D01*
Y146897D01*
X172557D01*
Y146977D01*
X172517D01*
Y147017D01*
X172437D01*
Y146977D01*
X172397D01*
Y146897D01*
X172437D01*
Y146397D02*
Y146357D01*
X172517D01*
Y146397D01*
X172557D01*
Y146477D01*
X172517D01*
Y146517D01*
X172437D01*
Y146477D01*
X172397D01*
Y146397D01*
X172437D01*
Y145897D02*
Y145857D01*
X172517D01*
Y145897D01*
X172557D01*
Y145977D01*
X172517D01*
Y146017D01*
X172437D01*
Y145977D01*
X172397D01*
Y145897D01*
X172437D01*
Y145397D02*
Y145357D01*
X172517D01*
Y145397D01*
X172557D01*
Y145477D01*
X172517D01*
Y145517D01*
X172437D01*
Y145477D01*
X172397D01*
Y145397D01*
X172437D01*
Y144897D02*
Y144857D01*
X172517D01*
Y144897D01*
X172557D01*
Y144977D01*
X172517D01*
Y145017D01*
X172437D01*
Y144977D01*
X172397D01*
Y144897D01*
X172437D01*
X195509Y143117D02*
X195549D01*
X195589Y143157D01*
X195629Y143117D01*
X195669D01*
Y143157D01*
X195629Y143197D01*
X195669Y143237D01*
Y143277D01*
X195629D01*
X195589Y143237D01*
X195549Y143277D01*
X195509D01*
Y143237D01*
X195549Y143197D01*
X195509Y143157D01*
Y143117D01*
X188787Y147479D02*
Y147439D01*
X188867D01*
Y147479D01*
X188907D01*
Y147559D01*
X188867D01*
Y147599D01*
X188787D01*
Y147559D01*
X188747D01*
Y147479D01*
X188787D01*
X189431Y146897D02*
Y146857D01*
X189511D01*
Y146897D01*
X189551D01*
Y146977D01*
X189511D01*
Y147017D01*
X189431D01*
Y146977D01*
X189391D01*
Y146897D01*
X189431D01*
X191073Y146946D02*
Y146906D01*
X191153D01*
Y146946D01*
X191193D01*
Y147026D01*
X191153D01*
Y147066D01*
X191073D01*
Y147026D01*
X191033D01*
Y146946D01*
X191073D01*
X191801Y15343D02*
Y15339D01*
X191881D01*
Y15343D01*
X191921D01*
Y15351D01*
X191881D01*
Y15355D01*
X191801D01*
Y15351D01*
X191761D01*
Y15343D01*
X191801D01*
X192197Y153556D02*
Y153516D01*
X192277D01*
Y153556D01*
X192317D01*
Y153636D01*
X192277D01*
Y153676D01*
X192197D01*
Y153636D01*
X192157D01*
Y153556D01*
X192197D01*
X192573Y153759D02*
Y153719D01*
X192653D01*
Y153759D01*
X192693D01*
Y153839D01*
X192653D01*
Y153879D01*
X192573D01*
Y153839D01*
X192533D01*
Y153759D01*
X192573D01*
D88*
X176698Y150842D02*
G03*
X176698Y150842I-00008J0D01*
G01*
Y151842D02*
G03*
X176698Y151842I-00008J0D01*
G01*
Y152842D02*
G03*
X176698Y152842I-00008J0D01*
G01*
Y154842D02*
G03*
X176698Y154842I-00008J0D01*
G01*
Y153842D02*
G03*
X176698Y153842I-00008J0D01*
G01*
X195692Y154165D02*
G03*
X195692Y154165I-00008J0D01*
G01*
X195104Y154974D02*
G03*
X195104Y154974I-00008J0D01*
G01*
X194516Y155783D02*
G03*
X194516Y155783I-00008J0D01*
G01*
X196279Y153356D02*
G03*
X196279Y153356I-00008J0D01*
G01*
X196867Y152547D02*
G03*
X196867Y152547I-00008J0D01*
G01*
X197455Y151738D02*
G03*
X197455Y151738I-00008J0D01*
G01*
X184551Y155762D02*
G03*
X184551Y155762I-00008J0D01*
G01*
X185551D02*
G03*
X185551Y155762I-00008J0D01*
G01*
X186551D02*
G03*
X186551Y155762I-00008J0D01*
G01*
X196503Y146986D02*
G03*
X196503Y146986I-00008J0D01*
G01*
X197487Y148954D02*
G03*
X197487Y148954I-00008J0D01*
G01*
X198471Y146986D02*
G03*
X198471Y146986I-00008J0D01*
G01*
X18063Y129811D02*
G03*
X18063Y129811I-00008J0D01*
G01*
Y131189D02*
G03*
X18063Y131189I-00008J0D01*
G01*
X177107Y136897D02*
G03*
X177107Y136897I-00008J0D01*
G01*
Y135519D02*
G03*
X177107Y135519I-00008J0D01*
G01*
X175113Y134333D02*
G03*
X175113Y134333I-00008J0D01*
G01*
X174139Y133359D02*
G03*
X174139Y133359I-00008J0D01*
G01*
X177869Y132266D02*
G03*
X177869Y132266I-00008J0D01*
G01*
X176894Y131292D02*
G03*
X176894Y131292I-00008J0D01*
G01*
X184173Y129522D02*
G03*
X184173Y129522I-00008J0D01*
G01*
Y1309D02*
G03*
X184173Y1309I-00008J0D01*
G01*
X194334Y136996D02*
G03*
X194334Y136996I-00008J0D01*
G01*
X191334D02*
G03*
X191334Y136996I-00008J0D01*
G01*
X187551Y151563D02*
G03*
X187551Y151563I-00008J0D01*
G01*
X186551D02*
G03*
X186551Y151563I-00008J0D01*
G01*
X185551D02*
G03*
X185551Y151563I-00008J0D01*
G01*
M02*
