G04 Layer_Color=128*
%FSTAX24Y24*%
%MOIN*%
G70*
G01*
G75*
%ADD87C,0.0020*%
D87*
X16877Y144279D02*
X169085D01*
X168928Y144122D02*
Y144437D01*
X16977Y144279D02*
X170085D01*
X169928Y144122D02*
Y144437D01*
X16977Y149594D02*
X170085D01*
X169928Y149437D02*
Y149752D01*
X16877Y149594D02*
X169085D01*
X168928Y149437D02*
Y149752D01*
X16877Y146937D02*
X169085D01*
X168928Y146779D02*
Y147094D01*
X16977Y146937D02*
X170085D01*
X169928Y146779D02*
Y147094D01*
X194606Y140007D02*
X194921D01*
X194763Y139849D02*
Y140164D01*
X195313Y1393D02*
X195628D01*
X19547Y139142D02*
Y139457D01*
X171916Y136331D02*
X172231D01*
X172074Y136173D02*
Y136488D01*
X172623Y137038D02*
X172938D01*
X172781Y13688D02*
Y137195D01*
X19389Y147584D02*
X194205D01*
X194047Y147427D02*
Y147742D01*
X19489Y147584D02*
X195205D01*
X195047Y147427D02*
Y147742D01*
X176421Y150842D02*
X176815D01*
X176618Y150645D02*
Y151039D01*
X176421Y151842D02*
X176815D01*
X176618Y151645D02*
Y152039D01*
X176421Y152842D02*
X176815D01*
X176618Y152645D02*
Y153039D01*
X176421Y154842D02*
X176815D01*
X176618Y154645D02*
Y155039D01*
X176421Y153842D02*
X176815D01*
X176618Y153645D02*
Y154039D01*
X173168Y157029D02*
X174743D01*
X173955Y156242D02*
Y157816D01*
X195415Y154165D02*
X195808D01*
X195612Y153968D02*
Y154362D01*
X194827Y154974D02*
X195221D01*
X195024Y154777D02*
Y155171D01*
X194239Y155783D02*
X194633D01*
X194436Y155586D02*
Y15598D01*
X196003Y153356D02*
X196396D01*
X196199Y153159D02*
Y153553D01*
X19659Y152547D02*
X196984D01*
X196787Y15235D02*
Y152744D01*
X197178Y151738D02*
X197572D01*
X197375Y151541D02*
Y151935D01*
X184274Y155762D02*
X184668D01*
X184471Y155565D02*
Y155959D01*
X185274Y155762D02*
X185668D01*
X185471Y155565D02*
Y155959D01*
X186274Y155762D02*
X186668D01*
X186471Y155565D02*
Y155959D01*
X196226Y146986D02*
X19662D01*
X196423Y146789D02*
Y147183D01*
X19721Y148954D02*
X197604D01*
X197407Y148757D02*
Y149151D01*
X198195Y146986D02*
X198588D01*
X198391Y146789D02*
Y147183D01*
X186417Y159378D02*
X187992D01*
X187204Y158591D02*
Y160166D01*
X178493Y157139D02*
X179044D01*
X178769Y156863D02*
Y157415D01*
X178146Y159109D02*
X178697D01*
X178421Y158833D02*
Y159384D01*
X183338Y157993D02*
X183889D01*
X183613Y157718D02*
Y158269D01*
X182991Y159963D02*
X183542D01*
X183266Y159687D02*
Y160238D01*
X187732Y157036D02*
X188283D01*
X188007Y156761D02*
Y157312D01*
X188791Y158732D02*
X189343D01*
X189067Y158457D02*
Y159008D01*
X191904Y154429D02*
X192455D01*
X192179Y154154D02*
Y154705D01*
X192964Y156125D02*
X193515D01*
X193239Y15585D02*
Y156401D01*
X171369Y15056D02*
X171921D01*
X171645Y150284D02*
Y150835D01*
X169751Y151735D02*
X170303D01*
X170027Y15146D02*
Y152011D01*
X174261Y15454D02*
X174812D01*
X174537Y154264D02*
Y154815D01*
X172643Y155715D02*
X173194D01*
X172919Y15544D02*
Y155991D01*
X186923Y133404D02*
X190072D01*
X188497Y131829D02*
Y134979D01*
X179853Y152644D02*
X183002D01*
X181427Y151069D02*
Y154219D01*
X180353Y129811D02*
X180746D01*
X18055Y129614D02*
Y130008D01*
X180353Y131189D02*
X180746D01*
X18055Y130992D02*
Y131386D01*
X176831Y136897D02*
X177224D01*
X177027Y136701D02*
Y137094D01*
X176831Y135519D02*
X177224D01*
X177027Y135323D02*
Y135716D01*
X174836Y134333D02*
X17523D01*
X175033Y134137D02*
Y13453D01*
X173862Y133359D02*
X174255D01*
X174059Y133162D02*
Y133556D01*
X177592Y132266D02*
X177986D01*
X177789Y13207D02*
Y132463D01*
X176618Y131292D02*
X177011D01*
X176814Y131095D02*
Y131489D01*
X183896Y129522D02*
X18429D01*
X184093Y129326D02*
Y129719D01*
X183896Y1309D02*
X18429D01*
X184093Y130703D02*
Y131097D01*
X194058Y136996D02*
X194451D01*
X194254Y136799D02*
Y137193D01*
X191058Y136996D02*
X191451D01*
X191254Y136799D02*
Y137193D01*
X187274Y151563D02*
X187668D01*
X187471Y151366D02*
Y15176D01*
X186274Y151563D02*
X186668D01*
X186471Y151366D02*
Y15176D01*
X185274Y151563D02*
X185668D01*
X185471Y151366D02*
Y15176D01*
X186987Y149535D02*
X187105D01*
X187046Y149476D02*
Y149594D01*
X191376Y150185D02*
X191495D01*
X191435Y150126D02*
Y150244D01*
X187656Y148954D02*
X187774D01*
X187715Y148895D02*
Y149013D01*
X191376Y151681D02*
X191495D01*
X191435Y151622D02*
Y15174D01*
X190746Y151464D02*
X190865D01*
X190806Y151405D02*
Y151523D01*
X190746Y152842D02*
X190865D01*
X190806Y152783D02*
Y152901D01*
X191711Y149417D02*
X191829D01*
X19177Y149358D02*
Y149476D01*
X190614Y151051D02*
X190732D01*
X190673Y150992D02*
Y15111D01*
X192006Y151681D02*
X192124D01*
X192065Y151622D02*
Y15174D01*
X194133Y152744D02*
X194251D01*
X194192Y152685D02*
Y152803D01*
X194587Y153039D02*
X194705D01*
X194646Y15298D02*
Y153098D01*
X187348Y14926D02*
X187466D01*
X187407Y149201D02*
Y149319D01*
X191691Y14989D02*
X191809D01*
X19175Y14983D02*
Y149949D01*
X1924Y150106D02*
X192518D01*
X192459Y150047D02*
Y150165D01*
X193581Y150106D02*
X193699D01*
X19364Y150047D02*
Y150165D01*
X196685Y150106D02*
X196803D01*
X196744Y150047D02*
Y150165D01*
X193988Y150421D02*
X194106D01*
X194047Y150362D02*
Y15048D01*
X193988Y151051D02*
X194106D01*
X194047Y150992D02*
Y15111D01*
X190121Y150421D02*
X190239D01*
X19018Y150362D02*
Y15048D01*
X188758Y151267D02*
X188876D01*
X188817Y151208D02*
Y151327D01*
X189172Y154023D02*
X18929D01*
X189231Y153964D02*
Y154082D01*
X18675Y152567D02*
X186869D01*
X186809Y152508D02*
Y152626D01*
X187046Y152153D02*
X187164D01*
X187105Y152094D02*
Y152212D01*
X189644Y152134D02*
X189762D01*
X189703Y152075D02*
Y152193D01*
X189743Y157106D02*
X189861D01*
X189802Y157047D02*
Y157165D01*
X184336Y15737D02*
X184533D01*
X184434Y157271D02*
Y157468D01*
X198798Y145446D02*
X198916D01*
X198857Y145387D02*
Y145505D01*
X191416Y154006D02*
X191534D01*
X191475Y153947D02*
Y154065D01*
X190432Y153138D02*
X19055D01*
X190491Y153078D02*
Y153197D01*
X19368Y154016D02*
X193798D01*
X193739Y153957D02*
Y154075D01*
X191061Y148315D02*
X19118D01*
X191121Y148256D02*
Y148374D01*
X191691Y152842D02*
X191809D01*
X19175Y152783D02*
Y152901D01*
X199487Y14476D02*
X199605D01*
X199546Y144701D02*
Y144819D01*
X199093Y143435D02*
X199211D01*
X199152Y143376D02*
Y143494D01*
X197566Y145854D02*
X197684D01*
X197625Y145795D02*
Y145913D01*
X196273Y140839D02*
X196391D01*
X196332Y14078D02*
Y140898D01*
X172418Y147937D02*
X172536D01*
X172477Y147878D02*
Y147996D01*
X172418Y148437D02*
X172536D01*
X172477Y148378D02*
Y148496D01*
X172418Y147437D02*
X172536D01*
X172477Y147378D02*
Y147496D01*
X172418Y146937D02*
X172536D01*
X172477Y146878D02*
Y146996D01*
X172418Y146437D02*
X172536D01*
X172477Y146378D02*
Y146496D01*
X172418Y145937D02*
X172536D01*
X172477Y145878D02*
Y145996D01*
X172418Y145437D02*
X172536D01*
X172477Y145378D02*
Y145496D01*
X172418Y144937D02*
X172536D01*
X172477Y144878D02*
Y144996D01*
X195491Y143197D02*
X195687D01*
X195589Y143098D02*
Y143295D01*
X188768Y147519D02*
X188886D01*
X188827Y14746D02*
Y147578D01*
X189412Y146937D02*
X18953D01*
X189471Y146878D02*
Y146996D01*
X191054Y146986D02*
X191172D01*
X191113Y146927D02*
Y147045D01*
X191782Y15347D02*
X1919D01*
X191841Y153411D02*
Y153529D01*
X192178Y153596D02*
X192296D01*
X192237Y153537D02*
Y153655D01*
X192554Y153799D02*
X192672D01*
X192613Y15374D02*
Y153858D01*
M02*
