M48
;Layer_Color=9474304
;FILE_FORMAT=2:4
INCH,LZ
;TYPE=PLATED
T1F00S00C0.0118
T2F00S00C0.0197
T3F00S00C0.0315
T4F00S00C0.0394
T5F00S00C0.0551
T6F00S00C0.1575
T7F00S00C0.3150
%
T01
X199152Y143435
X199546Y14476
X198857Y145446
X197625Y145854
X196744Y150106
X194047Y150421
Y151051
X19364Y150106
X192459
X19175Y14989
X19177Y149417
X191435Y150185
X19018Y150421
X190673Y151051
X190806Y151464
X191435Y151681
X192065
X19175Y152842
X191841Y15347
X192237Y153596
X192613Y153799
X193739Y154016
X194192Y152744
X194646Y153039
X190806Y152842
X190491Y153138
X189703Y152134
X188817Y151267
X189231Y154023
X191475Y154006
X191121Y148315
X191113Y146986
X189471Y146937
X188827Y147519
X187715Y148954
X196332Y140839
X187407Y14926
X187046Y149535
X187105Y152153
X186809Y152567
X172477Y148437
Y147937
Y147437
Y146937
Y146437
Y145937
Y145437
Y144937
X189802Y157106
T02
X195589Y143197
X184434Y15737
T03
X172074Y136331
X172781Y137038
X194763Y140007
X19547Y1393
X195047Y147584
X194047
X169928Y146937
X168928
Y144279
X169928
Y149594
X168928
T04
X184093Y129522
Y1309
X18055Y131189
Y129811
X177789Y132266
X176814Y131292
X177027Y135519
Y136897
X175033Y134333
X174059Y133359
X191254Y136996
X194254
X196423Y146986
X198391
X197407Y148954
X197375Y151738
X196787Y152547
X196199Y153356
X195612Y154165
X195024Y154974
X194436Y155783
X186471Y155762
X185471
X184471
X185471Y151563
X186471
X187471
X176618Y151842
Y150842
Y152842
Y153842
Y154842
T05
X193239Y156125
X192179Y154429
X174537Y15454
X172919Y155715
X171645Y15056
X170027Y151735
X178769Y157139
X178421Y159109
X183266Y159963
X183613Y157993
X188007Y157036
X189067Y158732
T06
X187204Y159378
X173955Y157029
T07
X188497Y133404
X181427Y152644
M30
