G04 Layer_Color=32768*
%FSTAX24Y24*%
%MOIN*%
G70*
G01*
G75*
%ADD86C,0.0039*%
D86*
X196787Y145657D02*
Y146051D01*
X19659Y145854D02*
X196984D01*
X196147Y146189D02*
X197427D01*
X196147Y145519D02*
X197427D01*
X196147D02*
Y146189D01*
X197427Y145519D02*
Y146189D01*
X196787Y14487D02*
Y145264D01*
X19659Y145067D02*
X196984D01*
X196147Y145401D02*
X197427D01*
X196147Y144732D02*
X197427D01*
X196147D02*
Y145401D01*
X197427Y144732D02*
Y145401D01*
X197045Y143889D02*
X197439D01*
X197242Y143692D02*
Y144086D01*
X197561Y143259D02*
Y144519D01*
X196923Y143259D02*
Y144519D01*
X197561D01*
X196923Y143259D02*
X197561D01*
X196136Y143889D02*
X196529D01*
X196332Y143692D02*
Y144086D01*
X196014Y143259D02*
Y144519D01*
X196651Y143259D02*
Y144519D01*
X196014Y143259D02*
X196651D01*
X196014Y144519D02*
X196651D01*
X198443Y14487D02*
Y145264D01*
X198246Y145067D02*
X19864D01*
X197813Y144748D02*
X199073D01*
X197813Y145386D02*
X199073D01*
Y144748D02*
Y145386D01*
X197813Y144748D02*
Y145386D01*
X196136Y142311D02*
X196529D01*
X196332Y142114D02*
Y142508D01*
X196667Y141671D02*
Y142951D01*
X195998Y141671D02*
Y142951D01*
X196667D01*
X195998Y141671D02*
X196667D01*
X197807Y142311D02*
X1982D01*
X198003Y142114D02*
Y142508D01*
X198322Y141681D02*
Y142941D01*
X197685Y141681D02*
Y142941D01*
X198322D01*
X197685Y141681D02*
X198322D01*
X196963Y142311D02*
X197357D01*
X19716Y142114D02*
Y142508D01*
X197479Y141681D02*
Y142941D01*
X196841Y141681D02*
Y142941D01*
X197479D01*
X196841Y141681D02*
X197479D01*
X17366Y149594D02*
Y149988D01*
X173463Y149791D02*
X173857D01*
X17302Y149456D02*
X1743D01*
X17302Y150126D02*
X1743D01*
Y149456D02*
Y150126D01*
X17302Y149456D02*
Y150126D01*
X189896Y156097D02*
X19029D01*
X190093Y1559D02*
Y156294D01*
X190428Y155457D02*
Y156737D01*
X189759Y155457D02*
Y156737D01*
X190428D01*
X189759Y155457D02*
X190428D01*
X185471Y157796D02*
Y15819D01*
X185274Y157993D02*
X185668D01*
X184841Y157674D02*
X186101D01*
X184841Y158312D02*
X186101D01*
Y157674D02*
Y158312D01*
X184841Y157674D02*
Y158312D01*
X177195Y156726D02*
X177588D01*
X177392Y156529D02*
Y156922D01*
X17771Y156096D02*
Y157356D01*
X177073Y156096D02*
Y157356D01*
X17771D01*
X177073Y156096D02*
X17771D01*
X176317Y156726D02*
X176711D01*
X176514Y156529D02*
Y156922D01*
X176833Y156096D02*
Y157356D01*
X176195Y156096D02*
Y157356D01*
X176833D01*
X176195Y156096D02*
X176833D01*
X172555Y154343D02*
Y154737D01*
X172358Y15454D02*
X172751D01*
X171915Y154874D02*
X173194D01*
X171915Y154205D02*
X173194D01*
X171915D02*
Y154874D01*
X173194Y154205D02*
Y154874D01*
X180994Y15793D02*
X181388D01*
X181191Y157733D02*
Y158127D01*
X181526Y157291D02*
Y15857D01*
X180856Y157291D02*
Y15857D01*
X181526D01*
X180856Y157291D02*
X181526D01*
X195117Y152183D02*
X19551D01*
X195313Y151986D02*
Y15238D01*
X194979Y151543D02*
Y152823D01*
X195648Y151543D02*
Y152823D01*
X194979Y151543D02*
X195648D01*
X194979Y152823D02*
X195648D01*
X193042Y154429D02*
X193436D01*
X193239Y154232D02*
Y154626D01*
X193558Y153799D02*
Y155059D01*
X19292Y153799D02*
Y155059D01*
X193558D01*
X19292Y153799D02*
X193558D01*
X190491Y154232D02*
Y154626D01*
X190294Y154429D02*
X190687D01*
X189861Y154748D02*
X191121D01*
X189861Y15411D02*
X191121D01*
X189861D02*
Y154748D01*
X191121Y15411D02*
Y154748D01*
X190491Y153433D02*
Y153827D01*
X190294Y15363D02*
X190687D01*
X189851Y153295D02*
X19113D01*
X189851Y153964D02*
X19113D01*
Y153295D02*
Y153964D01*
X189851Y153295D02*
Y153964D01*
X188817Y154232D02*
Y154626D01*
X188621Y154429D02*
X189014D01*
X188178Y154764D02*
X189457D01*
X188178Y154094D02*
X189457D01*
X188178D02*
Y154764D01*
X189457Y154094D02*
Y154764D01*
X188817Y153433D02*
Y153827D01*
X188621Y15363D02*
X189014D01*
X188187Y153311D02*
X189447D01*
X188187Y153949D02*
X189447D01*
Y153311D02*
Y153949D01*
X188187Y153311D02*
Y153949D01*
X190756Y147429D02*
Y147823D01*
X190559Y147626D02*
X190953D01*
X190117Y147291D02*
X191396D01*
X190117Y14796D02*
X191396D01*
Y147291D02*
Y14796D01*
X190117Y147291D02*
Y14796D01*
X185274Y154043D02*
X185668D01*
X185471Y153846D02*
Y15424D01*
X185152Y153413D02*
Y154673D01*
X18579Y153413D02*
Y154673D01*
X185152Y153413D02*
X18579D01*
X185152Y154673D02*
X18579D01*
X186274Y154043D02*
X186668D01*
X186471Y153846D02*
Y15424D01*
X18679Y153413D02*
Y154673D01*
X186152Y153413D02*
Y154673D01*
X18679D01*
X186152Y153413D02*
X18679D01*
X18616Y130204D02*
X186554D01*
X186357Y130008D02*
Y130401D01*
X186022Y129565D02*
Y130844D01*
X186691Y129565D02*
Y130844D01*
X186022Y129565D02*
X186691D01*
X186022Y130844D02*
X186691D01*
X193054Y133722D02*
Y134116D01*
X192857Y133919D02*
X19325D01*
X192424Y134238D02*
X193684D01*
X192424Y1336D02*
X193684D01*
X192424D02*
Y134238D01*
X193684Y1336D02*
Y134238D01*
X189408Y136996D02*
Y13739D01*
X189211Y137193D02*
X189605D01*
X188778Y136874D02*
X190038D01*
X188778Y137512D02*
X190038D01*
Y136874D02*
Y137512D01*
X188778Y136874D02*
Y137512D01*
X178187Y133847D02*
X178581D01*
X178384Y13365D02*
Y134044D01*
X17805Y133207D02*
Y134487D01*
X178719Y133207D02*
Y134487D01*
X17805Y133207D02*
X178719D01*
X17805Y134487D02*
X178719D01*
X198463Y145657D02*
Y146051D01*
X198266Y145854D02*
X19866D01*
X197823Y146189D02*
X199103D01*
X197823Y145519D02*
X199103D01*
X197823D02*
Y146189D01*
X199103Y145519D02*
Y146189D01*
X199349Y143889D02*
X199743D01*
X199546Y143692D02*
Y144086D01*
X199227Y143259D02*
Y144519D01*
X199865Y143259D02*
Y144519D01*
X199227Y143259D02*
X199865D01*
X199227Y144519D02*
X199865D01*
M02*
