G04 Layer_Color=8421504*
%FSTAX24Y24*%
%MOIN*%
G70*
G01*
G75*
%ADD14R,0.0453X0.0551*%
%ADD15R,0.0532X0.0354*%
%ADD16R,0.0354X0.0532*%
%ADD17R,0.0551X0.0453*%
%ADD18O,0.0984X0.0276*%
%ADD19R,0.0157X0.0748*%
%ADD20O,0.0591X0.0157*%
%ADD21O,0.0157X0.0591*%
%ADD22C,0.0472*%
%ADD23R,0.0394X0.0236*%
%ADD24R,0.2362X0.2205*%
%ADD25R,0.0709X0.0394*%
%ADD26R,0.0236X0.0394*%
D14*
X196423Y145854D02*
D03*
X197151D02*
D03*
X196423Y145067D02*
D03*
X197151D02*
D03*
X174024Y149791D02*
D03*
X173296D02*
D03*
X17219Y15454D02*
D03*
X172919D02*
D03*
X190855Y15363D02*
D03*
X190126D02*
D03*
X188453Y154429D02*
D03*
X189182D02*
D03*
X191121Y147626D02*
D03*
X190392D02*
D03*
X198099Y145854D02*
D03*
X198827D02*
D03*
D15*
X197242Y144302D02*
D03*
Y143476D02*
D03*
X196332D02*
D03*
Y144302D02*
D03*
X198003Y142724D02*
D03*
Y141897D02*
D03*
X19716Y142724D02*
D03*
Y141897D02*
D03*
X177392Y157139D02*
D03*
Y156312D02*
D03*
X176514Y157139D02*
D03*
Y156312D02*
D03*
X193239Y154843D02*
D03*
Y154016D02*
D03*
X185471Y15363D02*
D03*
Y154456D02*
D03*
X186471D02*
D03*
Y15363D02*
D03*
X199546Y143476D02*
D03*
Y144302D02*
D03*
D16*
X198857Y145067D02*
D03*
X19803D02*
D03*
X185884Y157993D02*
D03*
X185058D02*
D03*
X190077Y154429D02*
D03*
X190904D02*
D03*
X189231Y15363D02*
D03*
X188404D02*
D03*
X19264Y133919D02*
D03*
X193467D02*
D03*
X189821Y137193D02*
D03*
X188995D02*
D03*
D17*
X196332Y142675D02*
D03*
Y141947D02*
D03*
X190093Y156461D02*
D03*
Y155733D02*
D03*
X181191Y158294D02*
D03*
Y157566D02*
D03*
X195313Y151819D02*
D03*
Y152547D02*
D03*
X186357Y12984D02*
D03*
Y130569D02*
D03*
X178384Y133483D02*
D03*
Y134211D02*
D03*
D18*
X171658Y144937D02*
D03*
Y145437D02*
D03*
Y145937D02*
D03*
Y146437D02*
D03*
Y146937D02*
D03*
Y147437D02*
D03*
Y147937D02*
D03*
Y148437D02*
D03*
Y148937D02*
D03*
X175661Y148937D02*
D03*
Y148437D02*
D03*
Y147937D02*
D03*
Y147437D02*
D03*
Y146937D02*
D03*
Y146437D02*
D03*
Y145937D02*
D03*
Y145437D02*
D03*
Y144937D02*
D03*
D19*
X192223Y147626D02*
D03*
X192695D02*
D03*
X19175D02*
D03*
D20*
X18958Y149476D02*
D03*
Y149791D02*
D03*
Y150106D02*
D03*
Y150421D02*
D03*
Y150736D02*
D03*
Y151051D02*
D03*
Y151366D02*
D03*
Y151681D02*
D03*
X192976Y151681D02*
D03*
Y151366D02*
D03*
Y151051D02*
D03*
Y150736D02*
D03*
Y150421D02*
D03*
Y150106D02*
D03*
Y149791D02*
D03*
Y149476D02*
D03*
D21*
X190176Y152276D02*
D03*
X190491D02*
D03*
X190806D02*
D03*
X191121D02*
D03*
X191435D02*
D03*
X19175D02*
D03*
X192065D02*
D03*
X19238D02*
D03*
X19238Y148881D02*
D03*
X192065D02*
D03*
X19175D02*
D03*
X191435D02*
D03*
X191121D02*
D03*
X190806D02*
D03*
X190491D02*
D03*
X190176D02*
D03*
D22*
X197407Y149791D02*
D03*
X198391D02*
D03*
D23*
X189862Y13611D02*
D03*
X188954Y135736D02*
D03*
Y136484D02*
D03*
D24*
X18233Y133847D02*
D03*
D25*
X17936Y13295D02*
D03*
Y134745D02*
D03*
D26*
X198443Y144343D02*
D03*
X198817Y143435D02*
D03*
X198069D02*
D03*
M02*
