G04 Layer_Color=16711935*
%FSTAX24Y24*%
%MOIN*%
G70*
G01*
G75*
%ADD64C,0.0552*%
%ADD69O,0.0592X0.0710*%
G04:AMPARAMS|DCode=70|XSize=71mil|YSize=59.2mil|CornerRadius=0mil|HoleSize=0mil|Usage=FLASHONLY|Rotation=45.000|XOffset=0mil|YOffset=0mil|HoleType=Round|Shape=Round|*
%AMOVALD70*
21,1,0.0118,0.0592,0.0000,0.0000,45.0*
1,1,0.0592,-0.0042,-0.0042*
1,1,0.0592,0.0042,0.0042*
%
%ADD70OVALD70*%

G04:AMPARAMS|DCode=71|XSize=71mil|YSize=59.2mil|CornerRadius=0mil|HoleSize=0mil|Usage=FLASHONLY|Rotation=315.000|XOffset=0mil|YOffset=0mil|HoleType=Round|Shape=Round|*
%AMOVALD71*
21,1,0.0118,0.0592,0.0000,0.0000,315.0*
1,1,0.0592,-0.0042,0.0042*
1,1,0.0592,0.0042,-0.0042*
%
%ADD71OVALD71*%

%ADD72C,0.0730*%
%ADD73C,0.1655*%
%ADD74P,0.1032X4X81.0*%
%ADD75C,0.0789*%
%ADD76P,0.1245X4X325.0*%
%ADD77C,0.0880*%
%ADD78P,0.1245X4X283.0*%
%ADD79P,0.1245X4X369.0*%
%ADD80C,0.3230*%
%ADD81C,0.0867*%
%ADD82R,0.0769X0.0769*%
%ADD83C,0.0769*%
%ADD84C,0.0316*%
%ADD85C,0.0474*%
D64*
X184434Y15737D02*
D03*
D69*
X168928Y144279D02*
D03*
X169928D02*
D03*
Y149594D02*
D03*
X168928D02*
D03*
Y146937D02*
D03*
X169928D02*
D03*
X194047Y147584D02*
D03*
X195047D02*
D03*
D70*
X194763Y140007D02*
D03*
X19547Y1393D02*
D03*
D71*
X172074Y136331D02*
D03*
X172781Y137038D02*
D03*
D72*
X176618Y150842D02*
D03*
Y151842D02*
D03*
Y152842D02*
D03*
Y154842D02*
D03*
Y153842D02*
D03*
X184471Y155762D02*
D03*
X185471D02*
D03*
X186471D02*
D03*
X187471Y151563D02*
D03*
X186471D02*
D03*
X185471D02*
D03*
D73*
X173955Y157029D02*
D03*
X187204Y159378D02*
D03*
D74*
X195612Y154165D02*
D03*
X195024Y154974D02*
D03*
X194436Y155783D02*
D03*
X196199Y153356D02*
D03*
X196787Y152547D02*
D03*
X197375Y151738D02*
D03*
D75*
X196423Y146986D02*
D03*
X197407Y148954D02*
D03*
X198391Y146986D02*
D03*
D76*
X178769Y157139D02*
D03*
D77*
X178421Y159109D02*
D03*
X183613Y157993D02*
D03*
X183266Y159963D02*
D03*
X189067Y158732D02*
D03*
X192179Y154429D02*
D03*
X193239Y156125D02*
D03*
X170027Y151735D02*
D03*
X174537Y15454D02*
D03*
X172919Y155715D02*
D03*
D78*
X188007Y157036D02*
D03*
D79*
X171645Y15056D02*
D03*
D80*
X188497Y133404D02*
D03*
X181427Y152644D02*
D03*
D81*
X18055Y129811D02*
D03*
Y131189D02*
D03*
X177027Y136897D02*
D03*
Y135519D02*
D03*
X175033Y134333D02*
D03*
X174059Y133359D02*
D03*
X177789Y132266D02*
D03*
X176814Y131292D02*
D03*
X184093Y129522D02*
D03*
Y1309D02*
D03*
D82*
X194254Y136996D02*
D03*
D83*
X191254D02*
D03*
D84*
X187046Y149535D02*
D03*
X191435Y150185D02*
D03*
X187715Y148954D02*
D03*
X191435Y151681D02*
D03*
X190806Y151464D02*
D03*
Y152842D02*
D03*
X19177Y149417D02*
D03*
X190673Y151051D02*
D03*
X192065Y151681D02*
D03*
X194192Y152744D02*
D03*
X194646Y153039D02*
D03*
X187407Y14926D02*
D03*
X19175Y14989D02*
D03*
X192459Y150106D02*
D03*
X19364D02*
D03*
X196744D02*
D03*
X194047Y150421D02*
D03*
Y151051D02*
D03*
X19018Y150421D02*
D03*
X188817Y151267D02*
D03*
X189231Y154023D02*
D03*
X186809Y152567D02*
D03*
X187105Y152153D02*
D03*
X189703Y152134D02*
D03*
X189802Y157106D02*
D03*
X198857Y145446D02*
D03*
X191475Y154006D02*
D03*
X190491Y153138D02*
D03*
X193739Y154016D02*
D03*
X191121Y148315D02*
D03*
X19175Y152842D02*
D03*
X199546Y14476D02*
D03*
X199152Y143435D02*
D03*
X197625Y145854D02*
D03*
X196332Y140839D02*
D03*
X172477Y147937D02*
D03*
Y148437D02*
D03*
Y147437D02*
D03*
Y146937D02*
D03*
Y146437D02*
D03*
Y145937D02*
D03*
Y145437D02*
D03*
Y144937D02*
D03*
X188827Y147519D02*
D03*
X189471Y146937D02*
D03*
X191113Y146986D02*
D03*
X191841Y15347D02*
D03*
X192237Y153596D02*
D03*
X192613Y153799D02*
D03*
D85*
X195589Y143197D02*
D03*
M02*
