G04 Layer_Color=16711935*
%FSTAX24Y24*%
%MOIN*%
G70*
G01*
G75*
%ADD52C,0.0050*%
D52*
X19216Y140659D02*
G03*
X191142Y146477I-000509J002909D01*
G01*
X188661Y146452D02*
G03*
X189408Y146173I000611J000496D01*
G01*
X188661Y146452D02*
G03*
X176808Y144378I-005348J-004343D01*
G01*
X1762Y143862D02*
G03*
X176808Y144378I-000136J000776D01*
G01*
X174466Y143558D02*
G03*
X175484Y137741I000509J-002909D01*
G01*
X177965Y137766D02*
G03*
X177218Y138045I-000611J-000496D01*
G01*
X177965Y137766D02*
G03*
X189818Y13984I005348J004343D01*
G01*
X190426Y140356D02*
G03*
X189818Y13984I000136J-000776D01*
G01*
X169271Y140603D02*
G03*
X169195Y14097I-002858J-000397D01*
G01*
D02*
G03*
X167587Y142838I-002776J-000764D01*
G01*
X166887Y143844D02*
G03*
X167587Y142838I001179J000074D01*
G01*
X199783Y142533D02*
G03*
X200279Y144086I-001459J001321D01*
G01*
X199783Y142533D02*
G03*
X200279Y144086I-001459J001321D01*
G01*
X166887Y143844D02*
G03*
X167587Y142838I001179J000074D01*
G01*
X169195Y14097D02*
G03*
X167587Y142838I-002776J-000764D01*
G01*
X169271Y140603D02*
G03*
X169195Y14097I-002858J-000397D01*
G01*
X190426Y140356D02*
G03*
X189818Y13984I000136J-000776D01*
G01*
X177965Y137766D02*
G03*
X189818Y13984I005348J004343D01*
G01*
X177965Y137766D02*
G03*
X177218Y138045I-000611J-000496D01*
G01*
X174466Y143558D02*
G03*
X175484Y137741I000509J-002909D01*
G01*
X1762Y143862D02*
G03*
X176808Y144378I-000136J000776D01*
G01*
X188661Y146452D02*
G03*
X176808Y144378I-005348J-004343D01*
G01*
X188661Y146452D02*
G03*
X189408Y146173I000611J000496D01*
G01*
X19216Y140659D02*
G03*
X191142Y146477I-000509J002909D01*
G01*
X169271Y140603D02*
G03*
X17826Y129261I014123J001961D01*
G01*
Y129261D02*
G03*
X192539Y131624I005134J013303D01*
G01*
X192539D02*
G03*
X196073Y136537I-007814J009348D01*
G01*
X199783Y142533D02*
G03*
X196073Y136537I014468J-013099D01*
G01*
X199314Y14912D02*
G03*
X199026Y150082I-016151J-004307D01*
G01*
D02*
G03*
X19846Y15155I-015697J-005213D01*
G01*
X200279Y144086D02*
G03*
X199314Y14912I-035704J-004232D01*
G01*
X17781Y160413D02*
G03*
X166876Y144042I00556J-015549D01*
G01*
X19846Y15155D02*
G03*
X181279Y161242I-015098J-006689D01*
G01*
X180313Y161089D02*
G03*
X179314Y16087I003088J-016426D01*
G01*
Y16087D02*
G03*
X17781Y160413I004043J-016036D01*
G01*
X181279Y161242D02*
G03*
X180313Y161089I002124J-016582D01*
G01*
X181279Y161242D02*
G03*
X180313Y161089I002124J-016582D01*
G01*
X179314Y16087D02*
G03*
X17781Y160413I004043J-016036D01*
G01*
X180313Y161089D02*
G03*
X179314Y16087I003088J-016426D01*
G01*
X19846Y15155D02*
G03*
X181279Y161242I-015098J-006689D01*
G01*
X17781Y160413D02*
G03*
X166876Y144042I00556J-015549D01*
G01*
X200279Y144086D02*
G03*
X199314Y14912I-035704J-004232D01*
G01*
X199026Y150082D02*
G03*
X19846Y15155I-015697J-005213D01*
G01*
X199314Y14912D02*
G03*
X199026Y150082I-016151J-004307D01*
G01*
X199783Y142533D02*
G03*
X196073Y136537I014468J-013099D01*
G01*
X192539Y131624D02*
G03*
X196073Y136537I-007814J009348D01*
G01*
X17826Y129261D02*
G03*
X192539Y131624I005134J013303D01*
G01*
X169271Y140603D02*
G03*
X17826Y129261I014123J001961D01*
G01*
X189408Y146173D02*
X191142Y146477D01*
X174466Y143558D02*
X1762Y143862D01*
X175484Y137741D02*
X177218Y138045D01*
X190426Y140356D02*
X19216Y140659D01*
X166876Y144042D02*
X166887Y143844D01*
X166876Y144042D02*
X166887Y143844D01*
X190426Y140356D02*
X19216Y140659D01*
X175484Y137741D02*
X177218Y138045D01*
X174466Y143558D02*
X1762Y143862D01*
X189408Y146173D02*
X191142Y146477D01*
M02*
