G04 Layer_Physical_Order=1*
G04 Layer_Color=255*
%FSTAX24Y24*%
%MOIN*%
G70*
G01*
G75*
%ADD10C,0.0354*%
%ADD11C,0.0197*%
%ADD12C,0.0276*%
%ADD13C,0.0118*%
%ADD14R,0.0453X0.0551*%
%ADD15R,0.0532X0.0354*%
%ADD16R,0.0354X0.0532*%
%ADD17R,0.0551X0.0453*%
%ADD18O,0.0984X0.0276*%
%ADD19R,0.0157X0.0748*%
%ADD20O,0.0591X0.0157*%
%ADD21O,0.0157X0.0591*%
%ADD22C,0.0472*%
%ADD23R,0.0394X0.0236*%
%ADD24R,0.2362X0.2205*%
%ADD25R,0.0709X0.0394*%
%ADD26R,0.0236X0.0394*%
%ADD27C,0.0591*%
%ADD28C,0.0157*%
%ADD29C,0.0217*%
%ADD30C,0.0315*%
%ADD31C,0.0236*%
%ADD32C,0.0394*%
%ADD33O,0.0512X0.0630*%
G04:AMPARAMS|DCode=34|XSize=63mil|YSize=51.2mil|CornerRadius=0mil|HoleSize=0mil|Usage=FLASHONLY|Rotation=45.000|XOffset=0mil|YOffset=0mil|HoleType=Round|Shape=Round|*
%AMOVALD34*
21,1,0.0118,0.0512,0.0000,0.0000,45.0*
1,1,0.0512,-0.0042,-0.0042*
1,1,0.0512,0.0042,0.0042*
%
%ADD34OVALD34*%

G04:AMPARAMS|DCode=35|XSize=63mil|YSize=51.2mil|CornerRadius=0mil|HoleSize=0mil|Usage=FLASHONLY|Rotation=315.000|XOffset=0mil|YOffset=0mil|HoleType=Round|Shape=Round|*
%AMOVALD35*
21,1,0.0118,0.0512,0.0000,0.0000,315.0*
1,1,0.0512,-0.0042,0.0042*
1,1,0.0512,0.0042,-0.0042*
%
%ADD35OVALD35*%

%ADD36C,0.0650*%
%ADD37C,0.1575*%
%ADD38P,0.0919X4X81.0*%
%ADD39C,0.0709*%
%ADD40P,0.1131X4X325.0*%
%ADD41C,0.0800*%
%ADD42P,0.1131X4X283.0*%
%ADD43P,0.1131X4X369.0*%
%ADD44C,0.3150*%
%ADD45C,0.0787*%
%ADD46R,0.0689X0.0689*%
%ADD47C,0.0689*%
%ADD48C,0.0236*%
%ADD49C,0.0394*%
G36*
X184164Y161171D02*
X184963Y161113D01*
X185759Y161014D01*
X186548Y160877D01*
X18733Y160702D01*
X188103Y160488D01*
X188864Y160237D01*
X189612Y159948D01*
X190345Y159623D01*
X191061Y159263D01*
X191758Y158868D01*
X192435Y158439D01*
X193091Y157977D01*
X193723Y157484D01*
X194329Y156961D01*
X19491Y156408D01*
X195463Y155827D01*
X195986Y155221D01*
X196479Y154589D01*
X196941Y153933D01*
X19737Y153256D01*
X197765Y152559D01*
X198125Y151843D01*
X198289Y151474D01*
X198289Y151474D01*
X198442Y151129D01*
X198731Y15038D01*
X198849Y150023D01*
X198849Y150023D01*
X198864Y149976D01*
X198984Y149612D01*
X199121Y149118D01*
X199134Y149072D01*
X199149Y149024D01*
X199412Y147977D01*
X199659Y146833D01*
X199868Y145681D01*
X20004Y144523D01*
X200093Y144064D01*
X200093D01*
X200095Y144062D01*
X200109Y143854D01*
X200094Y143621D01*
X200048Y143392D01*
X200019Y143306D01*
X199969Y143315D01*
Y14381D01*
X199122D01*
Y14381D01*
X199093Y143789D01*
X198542D01*
Y14308D01*
X199093D01*
Y143103D01*
X199122Y143141D01*
X199911D01*
X199937Y143099D01*
X19987Y142962D01*
X19974Y142768D01*
X199644Y142659D01*
X199646Y142657D01*
X199157Y142099D01*
X198619Y141429D01*
X198309Y141006D01*
X198262Y141022D01*
Y141563D01*
X198427D01*
Y142232D01*
X19739D01*
X197375Y142282D01*
X197396Y142296D01*
X197396Y142296D01*
X19749Y14239D01*
X198427D01*
Y143059D01*
X198386D01*
X198345Y14308D01*
Y143789D01*
X197794D01*
Y14308D01*
X197753Y143059D01*
X19764D01*
Y143141D01*
X197665D01*
Y14381D01*
X197609D01*
X197601Y143822D01*
X197549Y143857D01*
X197488Y143869D01*
X197488Y143869D01*
X195432D01*
X195432Y143869D01*
X19537Y143857D01*
X195318Y143822D01*
X195318Y143822D01*
X195161Y143665D01*
X195115Y143685D01*
Y143787D01*
X195113Y143799D01*
X195114Y143812D01*
X195083Y144091D01*
X195078Y144106D01*
X195077Y144122D01*
X194937Y144669D01*
X194927Y14469D01*
X19492Y144713D01*
X194585Y145382D01*
X19457Y145401D01*
X19456Y145421D01*
X19407Y146032D01*
X194064Y146036D01*
X194061Y146043D01*
X19391Y146207D01*
X193642Y146597D01*
X193609Y147373D01*
X193658Y147384D01*
X193686Y147317D01*
X193753Y14723D01*
X193839Y147164D01*
X193939Y147123D01*
X194047Y147108D01*
X194155Y147123D01*
X194256Y147164D01*
X194342Y14723D01*
X194408Y147317D01*
X19445Y147417D01*
X194464Y147525D01*
Y147643D01*
X19445Y147751D01*
X194408Y147852D01*
X194342Y147938D01*
X194256Y148004D01*
X194155Y148046D01*
X194047Y14806D01*
X193939Y148046D01*
X193839Y148004D01*
X193753Y147938D01*
X193686Y147852D01*
X193645Y147751D01*
X193643Y147741D01*
X193593Y147743D01*
X193585Y147926D01*
Y149476D01*
X193577Y14952D01*
X193618Y14957D01*
X19708D01*
X197126Y14951D01*
X197186Y149464D01*
Y149417D01*
X197149Y149401D01*
X197042Y149319D01*
X19696Y149212D01*
X196909Y149088D01*
X196891Y148954D01*
X196909Y148821D01*
X19696Y148696D01*
X197042Y148589D01*
X197149Y148507D01*
X197274Y148456D01*
X197407Y148438D01*
X197541Y148456D01*
X197665Y148507D01*
X197772Y148589D01*
X197854Y148696D01*
X197906Y148821D01*
X197923Y148954D01*
X197906Y149088D01*
X197854Y149212D01*
X197772Y149319D01*
X197665Y149401D01*
X197628Y149417D01*
Y149464D01*
X197688Y14951D01*
X197751Y149593D01*
X197791Y149688D01*
X197804Y149791D01*
X197791Y149894D01*
X197751Y14999D01*
X197688Y150072D01*
X197606Y150135D01*
X19751Y150175D01*
X197407Y150188D01*
X197304Y150175D01*
X197209Y150135D01*
X197126Y150072D01*
X197096Y150032D01*
X197052Y150032D01*
X197017Y150074D01*
X197022Y150106D01*
X197012Y150178D01*
X196985Y150245D01*
X19694Y150303D01*
X196883Y150347D01*
X196816Y150375D01*
X196744Y150384D01*
X196672Y150375D01*
X196605Y150347D01*
X196579Y150327D01*
X194356D01*
X19432Y150377D01*
X194325Y150421D01*
X194316Y150493D01*
X194288Y15056D01*
X194268Y150586D01*
Y150886D01*
X194288Y150912D01*
X194316Y150979D01*
X194325Y151051D01*
X19432Y151095D01*
X194351Y151142D01*
X19436Y151146D01*
X194438Y151162D01*
X19451Y15121D01*
X194803Y151503D01*
X19485Y151574D01*
X194867Y151659D01*
Y152119D01*
X19488Y152163D01*
X195746D01*
Y152229D01*
X196422D01*
X19668Y151873D01*
X197461Y15244D01*
X196903Y153209D01*
X196894Y153221D01*
X196844Y15329D01*
X196306Y15403D01*
X196306Y15403D01*
X195727Y154827D01*
X195718Y154839D01*
X195689Y154879D01*
X195139Y155636D01*
X19511Y155676D01*
X195101Y155688D01*
X194543Y156457D01*
X193762Y15589D01*
X193872Y155738D01*
X193311Y155177D01*
X192816D01*
Y154508D01*
X193662D01*
Y154798D01*
X194152Y155288D01*
X194202Y155284D01*
X19432Y155121D01*
X19435Y155081D01*
X194359Y155069D01*
X194908Y154312D01*
X194938Y154272D01*
X194946Y15426D01*
X19541Y153621D01*
X195387Y153577D01*
X19265D01*
X192566Y15356D01*
X192494Y153512D01*
X192224Y153242D01*
X192176Y15317D01*
X19216Y153086D01*
Y152766D01*
X19211Y152725D01*
X192065Y152734D01*
X19205Y152731D01*
X192034Y152751D01*
X19202Y152775D01*
X192028Y152842D01*
X192019Y152914D01*
X191991Y152981D01*
X191947Y153039D01*
X191889Y153083D01*
X191822Y153111D01*
X19175Y15312D01*
X191679Y153111D01*
X191611Y153083D01*
X191554Y153039D01*
X19151Y152981D01*
X191482Y152914D01*
X191472Y152842D01*
X191481Y152775D01*
X191467Y152751D01*
X191451Y152731D01*
X191435Y152734D01*
X191343Y152715D01*
X191265Y152663D01*
X191213Y152585D01*
X191195Y152493D01*
Y15206D01*
X191213Y151967D01*
X191215Y151965D01*
Y151846D01*
X191195Y15182D01*
X191167Y151753D01*
X191158Y151681D01*
X191167Y151609D01*
X191195Y151542D01*
X191239Y151484D01*
X191296Y15144D01*
X191364Y151412D01*
X191435Y151403D01*
X191507Y151412D01*
X191574Y15144D01*
X191632Y151484D01*
X191676Y151542D01*
X191704Y151609D01*
X191713Y151681D01*
X191704Y151753D01*
X191693Y151779D01*
X191725Y151818D01*
X191776Y151818D01*
X191808Y151779D01*
X191797Y151753D01*
X191787Y151681D01*
X191797Y151609D01*
X191825Y151542D01*
X191869Y151484D01*
X191926Y15144D01*
X191993Y151412D01*
X192065Y151403D01*
X192137Y151412D01*
X192204Y15144D01*
X192262Y151484D01*
X192306Y151542D01*
X192334Y151609D01*
X192343Y151681D01*
X192334Y151753D01*
X192323Y151779D01*
X192359Y151823D01*
X19238Y151819D01*
X192473Y151837D01*
X192551Y151889D01*
X192603Y151967D01*
X192621Y15206D01*
Y152493D01*
X192603Y152585D01*
X192601Y152588D01*
Y152995D01*
X192742Y153135D01*
X194339D01*
X194375Y153085D01*
X194368Y153039D01*
X194371Y153016D01*
X194346Y152996D01*
X194325Y152987D01*
X194264Y153012D01*
X194192Y153022D01*
X19412Y153012D01*
X194053Y152985D01*
X193995Y15294D01*
X193951Y152883D01*
X193923Y152816D01*
X193914Y152744D01*
X193923Y152672D01*
X193951Y152605D01*
X193971Y152579D01*
Y152113D01*
X19376Y151902D01*
X193287D01*
X193284Y151903D01*
X193192Y151922D01*
X192759D01*
X192667Y151903D01*
X192589Y151851D01*
X192537Y151773D01*
X192518Y151681D01*
X192537Y151589D01*
X19258Y151523D01*
X192537Y151458D01*
X192518Y151366D01*
X192527Y151322D01*
X192486Y151272D01*
X19175D01*
X191666Y151255D01*
X191594Y151207D01*
X191279Y150892D01*
X191231Y15082D01*
X191215Y150736D01*
Y15035D01*
X191195Y150324D01*
X191167Y150257D01*
X191158Y150185D01*
X191167Y150113D01*
X191195Y150046D01*
X191239Y149988D01*
X191296Y149944D01*
X191364Y149916D01*
X191435Y149907D01*
X191453Y149909D01*
X191472Y14989D01*
X191482Y149818D01*
X19151Y149751D01*
X191554Y149693D01*
X191574Y149677D01*
Y149614D01*
X191574Y149614D01*
X191529Y149556D01*
X191502Y149489D01*
X191492Y149417D01*
X191502Y149345D01*
X191529Y149278D01*
X19156Y149238D01*
X191528Y149189D01*
X19151Y149097D01*
Y148664D01*
X191528Y148572D01*
X19153Y148569D01*
Y148564D01*
X19141Y148444D01*
X191393Y148447D01*
X191361Y148466D01*
Y148881D01*
Y149097D01*
X191343Y149189D01*
X191291Y149268D01*
X191213Y14932D01*
X191121Y149338D01*
X191028Y14932D01*
X19095Y149268D01*
X190898Y149189D01*
X19088Y149097D01*
Y148881D01*
Y148453D01*
X190852Y148387D01*
X190843Y148315D01*
X190852Y148243D01*
X19088Y148176D01*
Y148059D01*
X190737D01*
Y147193D01*
X191504D01*
X191514Y147147D01*
Y147094D01*
X191987D01*
Y148048D01*
X192189Y148251D01*
X192223Y148282D01*
X192256Y148251D01*
X192459Y148048D01*
Y147094D01*
X192932D01*
Y148157D01*
X19291D01*
X192899Y148209D01*
X192851Y148281D01*
X192601Y148531D01*
Y148569D01*
X192603Y148572D01*
X192621Y148664D01*
Y149097D01*
X192603Y149189D01*
X192551Y149268D01*
X192473Y14932D01*
X19238Y149338D01*
X192288Y14932D01*
X192223Y149276D01*
X192158Y14932D01*
X192085Y149334D01*
X192067Y149338D01*
X192063Y149348D01*
X192052Y149386D01*
X192283Y149618D01*
X192331Y14969D01*
X192348Y149774D01*
Y149807D01*
X192398Y149836D01*
X192459Y149828D01*
X192485Y149831D01*
X192519Y149795D01*
X192518Y149791D01*
X192537Y149699D01*
X19258Y149634D01*
X192537Y149568D01*
X192518Y149476D01*
X192537Y149384D01*
X192589Y149306D01*
X192667Y149254D01*
X192759Y149235D01*
X193144D01*
Y147921D01*
X193145Y147916D01*
X193144Y147912D01*
X193203Y146515D01*
X193207Y146497D01*
X193208Y146478D01*
X193218Y146455D01*
X193223Y146431D01*
X193234Y146416D01*
X193242Y146399D01*
X193321Y146285D01*
X193286Y146246D01*
X193013Y146397D01*
X192688Y146532D01*
X19235Y146629D01*
X192002Y146688D01*
X191651Y146708D01*
X191299Y146688D01*
X191128Y146659D01*
X19111Y14666D01*
X189376Y146356D01*
X189375Y146356D01*
X189272Y146346D01*
X189155Y146358D01*
X189042Y146392D01*
X188937Y146448D01*
X188846Y146523D01*
X188807Y146571D01*
X188807Y146571D01*
X188772Y146606D01*
X188661Y146743D01*
X188317Y147113D01*
X187947Y147457D01*
X187554Y147774D01*
X187139Y148062D01*
X186809Y148258D01*
X186826Y148306D01*
X186933Y148289D01*
X186943Y14829D01*
X186952Y148287D01*
X186985Y148292D01*
X187019Y148293D01*
X187028Y148297D01*
X187038Y148298D01*
X187353Y148405D01*
X187385Y148424D01*
X187418Y14844D01*
X187719Y148677D01*
X187787Y148686D01*
X187854Y148713D01*
X187912Y148758D01*
X187956Y148815D01*
X187983Y148882D01*
X187987Y148909D01*
X188011Y148922D01*
X18804Y148931D01*
X188305Y148885D01*
X188324Y148885D01*
X188343Y148881D01*
X189935D01*
Y148664D01*
X189953Y148572D01*
X190005Y148494D01*
X190083Y148442D01*
X190176Y148423D01*
X190268Y148442D01*
X190333Y148485D01*
X190398Y148442D01*
X190491Y148423D01*
X190583Y148442D01*
X190661Y148494D01*
X190713Y148572D01*
X190731Y148664D01*
Y149097D01*
X190713Y149189D01*
X190661Y149268D01*
X190583Y14932D01*
X190491Y149338D01*
X190398Y14932D01*
X190333Y149276D01*
X190268Y14932D01*
X190176Y149338D01*
X190099Y149323D01*
X190032D01*
X190008Y149367D01*
X190019Y149384D01*
X190038Y149476D01*
X190019Y149568D01*
X189976Y149634D01*
X190019Y149699D01*
X190038Y149791D01*
X190019Y149883D01*
X189976Y149949D01*
X190019Y150014D01*
X190038Y150106D01*
X190033Y150129D01*
X190077Y150165D01*
X190108Y150153D01*
X19018Y150143D01*
X190252Y150153D01*
X190319Y15018D01*
X190376Y150224D01*
X19042Y150282D01*
X190448Y150349D01*
X190458Y150421D01*
X190448Y150493D01*
X19042Y15056D01*
X190376Y150618D01*
X190319Y150662D01*
X190252Y15069D01*
X19018Y150699D01*
X190108Y15069D01*
X190077Y150677D01*
X190033Y150713D01*
X190038Y150736D01*
X190019Y150828D01*
X189976Y150893D01*
X190019Y150959D01*
X190038Y151051D01*
X190019Y151143D01*
X189976Y151208D01*
X190019Y151274D01*
X190027Y151314D01*
X190082Y15133D01*
X1904Y151011D01*
X190405Y150979D01*
X190432Y150912D01*
X190477Y150854D01*
X190534Y15081D01*
X190601Y150782D01*
X190673Y150773D01*
X190745Y150782D01*
X190812Y15081D01*
X19087Y150854D01*
X190914Y150912D01*
X190942Y150979D01*
X190951Y151051D01*
X190942Y151123D01*
X190914Y15119D01*
X19092Y151213D01*
X190945Y151224D01*
X191002Y151268D01*
X191046Y151325D01*
X191074Y151392D01*
X191084Y151464D01*
X191074Y151536D01*
X191046Y151603D01*
X191002Y151661D01*
X190945Y151705D01*
X190877Y151733D01*
X190806Y151742D01*
X190734Y151733D01*
X190667Y151705D01*
X190666Y151704D01*
X190581Y15179D01*
X190595Y151846D01*
X190648Y151881D01*
X190713Y151837D01*
X190806Y151819D01*
X190898Y151837D01*
X190976Y151889D01*
X191028Y151967D01*
X191046Y15206D01*
Y152493D01*
X191028Y152585D01*
X191026Y152588D01*
Y152677D01*
X191046Y152703D01*
X191074Y15277D01*
X191084Y152842D01*
X191074Y152914D01*
X191046Y152981D01*
X191026Y153007D01*
Y153197D01*
X191239D01*
Y154006D01*
Y154661D01*
X191282Y154685D01*
X191621Y154473D01*
X191617Y154449D01*
X191631Y154303D01*
X191683Y154165D01*
X191768Y154046D01*
X191881Y153952D01*
X192015Y153891D01*
X19216Y153867D01*
X192306Y153881D01*
X192443Y153933D01*
X192563Y154018D01*
X192656Y154131D01*
X192717Y154265D01*
X192741Y15441D01*
X192727Y154556D01*
X192676Y154693D01*
X192591Y154813D01*
X192477Y154906D01*
X192344Y154967D01*
X192199Y154991D01*
X192053Y154977D01*
X191915Y154926D01*
X191895Y154911D01*
X190526Y155766D01*
Y156117D01*
X189966D01*
X188617Y15696D01*
X188775Y157214D01*
X18783Y157804D01*
X187671Y15755D01*
X186612Y158212D01*
X186608Y158214D01*
X186605Y158217D01*
X186578Y158228D01*
X186551Y15824D01*
X186547Y158241D01*
X186542Y158242D01*
X186513Y158246D01*
X186485Y158251D01*
X18648Y158251D01*
X186476Y158251D01*
X186219D01*
Y158417D01*
X18555D01*
Y15757D01*
X186219D01*
Y157735D01*
X186402D01*
X187398Y157113D01*
X187239Y156859D01*
X188185Y156268D01*
X188343Y156522D01*
X18966Y155699D01*
Y155349D01*
X19022D01*
X190276Y155314D01*
X190263Y155266D01*
X188864D01*
X188798Y155257D01*
X188761Y155242D01*
X188711Y155272D01*
Y155404D01*
X188703Y155471D01*
X188677Y155533D01*
X188636Y155587D01*
X188278Y155945D01*
X188224Y155986D01*
X188162Y156011D01*
X188095Y15602D01*
X186881D01*
X186815Y156106D01*
X186714Y156184D01*
X186597Y156232D01*
X186471Y156249D01*
X186345Y156232D01*
X186228Y156184D01*
X186127Y156106D01*
X186049Y156005D01*
X186001Y155888D01*
X185996Y155852D01*
X185946D01*
X185941Y155888D01*
X185892Y156005D01*
X185815Y156106D01*
X185714Y156184D01*
X185597Y156232D01*
X185471Y156249D01*
X185345Y156232D01*
X185228Y156184D01*
X185127Y156106D01*
X185049Y156005D01*
X185001Y155888D01*
X184996Y155852D01*
X184946D01*
X184941Y155888D01*
X184892Y156005D01*
X184815Y156106D01*
X184714Y156184D01*
X184597Y156232D01*
X184471Y156249D01*
X184345Y156232D01*
X184228Y156184D01*
X184127Y156106D01*
X184049Y156005D01*
X184001Y155888D01*
X183984Y155762D01*
X184001Y155636D01*
X184049Y155519D01*
X184127Y155418D01*
X184213Y155352D01*
Y154787D01*
X184222Y15472D01*
X184247Y154658D01*
X184288Y154605D01*
X184619Y154274D01*
X184673Y154233D01*
X184735Y154207D01*
X184802Y154198D01*
X185048D01*
Y154122D01*
X185894D01*
Y154198D01*
X186048D01*
Y154122D01*
X186894D01*
Y154198D01*
X187029D01*
X187213Y154015D01*
Y15332D01*
X187222Y153253D01*
X187247Y153191D01*
X187288Y153138D01*
X187592Y152834D01*
X187573Y152787D01*
X186974D01*
X186948Y152807D01*
X186881Y152835D01*
X186809Y152845D01*
X186742Y152836D01*
X186727Y152838D01*
X186692Y152861D01*
Y153295D01*
X186894D01*
Y153964D01*
X186048D01*
Y153295D01*
X18625D01*
Y151994D01*
X186228Y151984D01*
X186127Y151907D01*
X186049Y151806D01*
X186001Y151689D01*
X185996Y151653D01*
X185946D01*
X185941Y151689D01*
X185892Y151806D01*
X185815Y151907D01*
X185714Y151984D01*
X185692Y151994D01*
Y153295D01*
X185894D01*
Y153964D01*
X185048D01*
Y153295D01*
X18525D01*
Y151994D01*
X185228Y151984D01*
X185127Y151907D01*
X185049Y151806D01*
X185001Y151689D01*
X184984Y151563D01*
X185001Y151437D01*
X185049Y151319D01*
X185127Y151219D01*
X185228Y151141D01*
X185345Y151093D01*
X185471Y151076D01*
X185597Y151093D01*
X185714Y151141D01*
X185815Y151219D01*
X185892Y151319D01*
X185941Y151437D01*
X185946Y151473D01*
X185996D01*
X186001Y151437D01*
X186049Y151319D01*
X186127Y151219D01*
X186228Y151141D01*
X186345Y151093D01*
X186471Y151076D01*
X186597Y151093D01*
X186714Y151141D01*
X186815Y151219D01*
X186892Y151319D01*
X186941Y151437D01*
X186946Y151473D01*
X186996D01*
X187001Y151437D01*
X187049Y151319D01*
X187127Y151219D01*
X187228Y151141D01*
X187345Y151093D01*
X187471Y151076D01*
X187597Y151093D01*
X187714Y151141D01*
X187815Y151219D01*
X187892Y151319D01*
X187941Y151437D01*
X187948Y151493D01*
X187998Y15149D01*
Y150422D01*
X187958Y150392D01*
X187505Y150533D01*
X187499Y150534D01*
X187493Y150537D01*
X18706Y150646D01*
X187033Y150647D01*
X187006Y150652D01*
X186627D01*
X186095Y150722D01*
X184919Y150934D01*
X184909Y150933D01*
X184899Y150936D01*
X183954Y151015D01*
X18395Y151015D01*
X183945Y151016D01*
X182882Y151063D01*
X182877Y151062D01*
X182872Y151063D01*
X181731D01*
X181716Y15106D01*
X181701Y151061D01*
X180559Y150905D01*
X180544Y1509D01*
X180528Y150899D01*
X179638Y150641D01*
X179293Y150595D01*
X17903Y150738D01*
X177079Y152693D01*
X177088Y152716D01*
X177105Y152842D01*
X177088Y152968D01*
X17704Y153086D01*
X176962Y153186D01*
X176862Y153264D01*
X176744Y153312D01*
X176708Y153317D01*
Y153367D01*
X176744Y153372D01*
X176862Y153421D01*
X176962Y153498D01*
X17704Y153599D01*
X177088Y153716D01*
X177105Y153842D01*
X177091Y15395D01*
X177574Y154433D01*
X177615Y154487D01*
X177641Y154549D01*
X17765Y154616D01*
Y155978D01*
X177815D01*
Y156054D01*
X183376D01*
X183443Y156063D01*
X183506Y156089D01*
X183559Y15613D01*
X184406Y156976D01*
X184434Y156973D01*
X184537Y156986D01*
X184633Y157026D01*
X184715Y157089D01*
X184778Y157171D01*
X184818Y157267D01*
X184831Y15737D01*
X184827Y157398D01*
X184999Y15757D01*
X185392D01*
Y158417D01*
X184723D01*
Y158024D01*
X184462Y157763D01*
X184434Y157767D01*
X184331Y157753D01*
X184236Y157714D01*
X184153Y157651D01*
X18409Y157568D01*
X184051Y157473D01*
X184037Y15737D01*
X184041Y157341D01*
X18327Y15657D01*
X179041D01*
X179036Y15662D01*
X179414Y156687D01*
X179362Y156982D01*
X18072Y157221D01*
X180758Y157189D01*
Y157182D01*
X181624D01*
Y15738D01*
X183169Y157653D01*
X183183Y157632D01*
X183291Y157533D01*
X183421Y157465D01*
X183564Y157433D01*
X183711Y15744D01*
X183851Y157484D01*
X183975Y157563D01*
X184074Y157671D01*
X184142Y157801D01*
X184174Y157944D01*
X184167Y158091D01*
X184123Y158231D01*
X184044Y158355D01*
X183936Y158454D01*
X183806Y158522D01*
X183662Y158553D01*
X183516Y158547D01*
X183376Y158503D01*
X183252Y158424D01*
X183153Y158316D01*
X183085Y158186D01*
X18308Y158161D01*
X181662Y157911D01*
X181624Y157943D01*
Y15795D01*
X180758D01*
Y157752D01*
X179273Y15749D01*
X179221Y157785D01*
X178123Y157591D01*
X17815Y157435D01*
X178118Y157397D01*
X177815D01*
Y157474D01*
X176987D01*
X176937Y157474D01*
X176918Y157474D01*
X176091D01*
Y157397D01*
X175956D01*
X175889Y157388D01*
X175827Y157363D01*
X175774Y157321D01*
X175585Y157133D01*
X175544Y157079D01*
X175518Y157017D01*
X175509Y15695D01*
Y155016D01*
X175291Y154798D01*
X175032D01*
X174974Y154894D01*
X174867Y154995D01*
X174738Y155065D01*
X174596Y155099D01*
X174449Y155095D01*
X174308Y155053D01*
X174183Y154977D01*
X174082Y15487D01*
X174043Y154798D01*
X173303D01*
Y154973D01*
X172535D01*
Y154107D01*
X173303D01*
Y154282D01*
X174041D01*
X1741Y154186D01*
X174206Y154085D01*
X174335Y154015D01*
X174478Y153981D01*
X174625Y153984D01*
X174766Y154026D01*
X174891Y154103D01*
X174992Y154209D01*
X175031Y154282D01*
X175398D01*
X175465Y154291D01*
X175527Y154316D01*
X17558Y154357D01*
X17595Y154727D01*
X175991Y15478D01*
X176017Y154842D01*
X176025Y154909D01*
Y156811D01*
X176041Y156822D01*
X176091Y156804D01*
Y156804D01*
X176918D01*
X176968Y156804D01*
X176987Y156804D01*
X177815D01*
Y156881D01*
X178248D01*
X178296Y156609D01*
X178264Y15657D01*
X177815D01*
Y156647D01*
X176968D01*
Y156647D01*
X176937D01*
Y156647D01*
X176091D01*
Y155978D01*
X176937D01*
Y155978D01*
X176968D01*
Y155978D01*
X177133D01*
Y154722D01*
X176726Y154315D01*
X176618Y154329D01*
X176492Y154312D01*
X176375Y154264D01*
X176274Y154186D01*
X176197Y154086D01*
X176148Y153968D01*
X176132Y153842D01*
X176148Y153716D01*
X176197Y153599D01*
X176274Y153498D01*
X176375Y153421D01*
X176492Y153372D01*
X176528Y153367D01*
Y153317D01*
X176492Y153312D01*
X176375Y153264D01*
X176274Y153186D01*
X176197Y153086D01*
X176148Y152968D01*
X176132Y152842D01*
X176148Y152716D01*
X176197Y152599D01*
X176274Y152498D01*
X176375Y152421D01*
X176492Y152372D01*
X176528Y152367D01*
Y152317D01*
X176492Y152312D01*
X176375Y152264D01*
X176274Y152186D01*
X176197Y152086D01*
X176148Y151968D01*
X176132Y151842D01*
X176148Y151716D01*
X176197Y151599D01*
X176274Y151498D01*
X176375Y151421D01*
X176492Y151372D01*
X176528Y151367D01*
Y151317D01*
X176492Y151312D01*
X176375Y151264D01*
X176274Y151186D01*
X176197Y151086D01*
X176148Y150968D01*
X176132Y150842D01*
X176148Y150716D01*
X176197Y150599D01*
X176274Y150498D01*
X176375Y150421D01*
X176492Y150372D01*
X176618Y150356D01*
X176744Y150372D01*
X176767Y150382D01*
X177783Y149365D01*
X177787Y149363D01*
X177929Y149241D01*
X178092Y149141D01*
X178269Y149068D01*
X178456Y149023D01*
X178646Y149008D01*
X178646Y149008D01*
X178679Y14901D01*
X178695Y149012D01*
X178695Y149012D01*
Y149012D01*
X178695Y149012D01*
X17898Y149055D01*
X179Y149007D01*
X178568Y14869D01*
X178561Y148683D01*
X178552Y148677D01*
X178231Y148392D01*
X177983Y148209D01*
X17758Y148142D01*
X176219Y148153D01*
X176208Y148162D01*
Y148212D01*
X176226Y148226D01*
X176274Y148288D01*
X176303Y14836D01*
X176314Y148437D01*
X176303Y148514D01*
X176274Y148586D01*
X176226Y148647D01*
X176165Y148695D01*
X176093Y148724D01*
X176016Y148735D01*
X175307D01*
X17523Y148724D01*
X175158Y148695D01*
X175097Y148647D01*
X175049Y148586D01*
X175019Y148514D01*
X175009Y148437D01*
X175019Y14836D01*
X175049Y148288D01*
X175097Y148226D01*
X175115Y148212D01*
Y148162D01*
X175097Y148147D01*
X175049Y148086D01*
X175019Y148014D01*
X175009Y147937D01*
X175019Y14786D01*
X175049Y147788D01*
X175097Y147726D01*
X175115Y147712D01*
Y147662D01*
X175097Y147647D01*
X175049Y147586D01*
X175019Y147514D01*
X175009Y147437D01*
X175019Y14736D01*
X175049Y147288D01*
X175097Y147226D01*
X175115Y147212D01*
Y147162D01*
X175097Y147147D01*
X175049Y147086D01*
X175019Y147014D01*
X175009Y146937D01*
X175019Y14686D01*
X175049Y146788D01*
X175097Y146726D01*
X175115Y146712D01*
Y146662D01*
X175097Y146647D01*
X175049Y146586D01*
X175019Y146514D01*
X175009Y146437D01*
X175019Y14636D01*
X175049Y146288D01*
X175097Y146226D01*
X175115Y146212D01*
Y146162D01*
X175097Y146147D01*
X175049Y146086D01*
X175019Y146014D01*
X175009Y145937D01*
X175019Y14586D01*
X175049Y145788D01*
X175097Y145726D01*
X175115Y145712D01*
Y145662D01*
X175097Y145647D01*
X175049Y145586D01*
X175019Y145514D01*
X175009Y145437D01*
X175019Y14536D01*
X175049Y145288D01*
X175097Y145226D01*
X175115Y145212D01*
Y145162D01*
X175097Y145147D01*
X175049Y145086D01*
X175019Y145014D01*
X175009Y144937D01*
X175019Y14486D01*
X175049Y144788D01*
X175097Y144726D01*
X175158Y144679D01*
X17523Y144649D01*
X175307Y144639D01*
X176016D01*
X176093Y144649D01*
X176165Y144679D01*
X176226Y144726D01*
X176274Y144788D01*
X176303Y14486D01*
X176314Y144937D01*
X176303Y145014D01*
X176274Y145086D01*
X176226Y145147D01*
X176208Y145162D01*
Y145212D01*
X176226Y145226D01*
X176274Y145288D01*
X176303Y14536D01*
X176314Y145437D01*
X176303Y145514D01*
X176274Y145586D01*
X176226Y145647D01*
X176237Y145702D01*
X176251Y145716D01*
X176902D01*
X176922Y14572D01*
X176942Y14572D01*
X177202Y145767D01*
X177233Y145722D01*
X177102Y1455D01*
X176876Y145049D01*
X176682Y144582D01*
X17665Y144486D01*
X176631Y14444D01*
D01*
X176614Y144393D01*
X176565Y144303D01*
X17649Y144211D01*
X176399Y144136D01*
X176295Y144081D01*
X176182Y144046D01*
X17617Y144045D01*
X176168Y144045D01*
X174434Y143742D01*
X174418Y143735D01*
X174276Y143711D01*
X173938Y143614D01*
X173613Y143479D01*
X173304Y143309D01*
X173017Y143105D01*
X172755Y14287D01*
X17252Y142608D01*
X172316Y142321D01*
X172146Y142012D01*
X172011Y141687D01*
X171914Y141349D01*
X171855Y141001D01*
X171835Y14065D01*
X171855Y140298D01*
X171914Y139951D01*
X172011Y139613D01*
X172146Y139287D01*
X172316Y138979D01*
X17252Y138692D01*
X172755Y138429D01*
X173017Y138195D01*
X173304Y137991D01*
X173613Y137821D01*
X173938Y137686D01*
X174276Y137588D01*
X174623Y137529D01*
X174975Y13751D01*
X175327Y137529D01*
X175498Y137558D01*
X175516Y137558D01*
X17725Y137861D01*
X177251Y137862D01*
X177354Y137872D01*
X177471Y13786D01*
X177584Y137826D01*
X177688Y13777D01*
X17778Y137695D01*
X177819Y137647D01*
X177819Y137647D01*
X177854Y137612D01*
X177965Y137475D01*
X178309Y137105D01*
X178679Y136761D01*
X179072Y136444D01*
X179487Y136156D01*
X179921Y135898D01*
X180373Y135672D01*
X18084Y135478D01*
X181319Y135319D01*
X181809Y135194D01*
X182306Y135104D01*
X182808Y13505D01*
X183313Y135032D01*
X183818Y13505D01*
X18432Y135104D01*
X184817Y135194D01*
X185307Y135319D01*
X185786Y135478D01*
X186253Y135672D01*
X186704Y135898D01*
X187139Y136156D01*
X187554Y136444D01*
X187947Y136761D01*
X188317Y137105D01*
X188613Y137423D01*
X18866Y137405D01*
Y136769D01*
X188614Y13676D01*
X188599D01*
Y136208D01*
X188936D01*
X188954Y136206D01*
X188972Y136208D01*
X189308D01*
Y13676D01*
X189329Y136769D01*
Y137616D01*
X188833D01*
X188811Y137661D01*
X188978Y137868D01*
X189266Y138283D01*
X189524Y138717D01*
X189655Y138979D01*
X189703Y138966D01*
X189625Y137616D01*
X189487D01*
Y136769D01*
X190156D01*
Y137616D01*
X190104D01*
X190069Y137652D01*
X190164Y139288D01*
X190287Y139652D01*
X190362Y139773D01*
X19047Y139833D01*
X190651Y139852D01*
X190658Y139854D01*
X190666Y139854D01*
X19242Y140159D01*
X192439Y140167D01*
X192459Y14017D01*
X193149Y140429D01*
X193176Y140386D01*
X19295Y140169D01*
X192948Y140167D01*
X192945Y140165D01*
X192911Y14012D01*
X192876Y140076D01*
X192874Y140073D01*
X192872Y140071D01*
X19285Y140019D01*
X192828Y139967D01*
X192827Y139964D01*
X192826Y139961D01*
X192472Y138672D01*
X192465Y138626D01*
X192456Y138581D01*
X192185Y134406D01*
X192162Y13406D01*
X19165Y133214D01*
X190366Y13204D01*
X189858Y131781D01*
X188886Y131285D01*
X187594Y131213D01*
X186385Y131263D01*
X18442Y131344D01*
X184371Y131382D01*
X184237Y131437D01*
X184093Y131456D01*
X183949Y131437D01*
X183815Y131382D01*
X183814Y131381D01*
X182358Y1315D01*
X181033Y131608D01*
X180319Y132472D01*
X180318Y132473D01*
X180317Y132474D01*
X18012Y132705D01*
Y133157D01*
X180107Y133219D01*
X180073Y133271D01*
X180021Y133306D01*
X179959Y133318D01*
X178975D01*
X178913Y133306D01*
X178911Y133304D01*
X178848D01*
Y133251D01*
X178827Y133219D01*
X178814Y133157D01*
Y132567D01*
X178818Y132546D01*
X17882Y132524D01*
X178825Y132515D01*
X178827Y132505D01*
X178838Y132487D01*
X178848Y132468D01*
X180226Y130693D01*
X180234Y130687D01*
X18024Y130678D01*
X180257Y130666D01*
X180273Y130652D01*
X180283Y130649D01*
X180292Y130643D01*
X180313Y130639D01*
X180333Y130633D01*
X180343Y130633D01*
X180353Y130631D01*
X181732Y130634D01*
X182284Y130589D01*
X183748Y13047D01*
X183815Y130419D01*
X183949Y130363D01*
X184093Y130344D01*
X184237Y130363D01*
X184371Y130419D01*
X184387Y130431D01*
X185924Y130368D01*
Y130185D01*
X18679D01*
Y130296D01*
X186826Y13033D01*
X187578Y130299D01*
X1876Y130301D01*
X187622Y1303D01*
X189033Y130378D01*
X189067Y130385D01*
X189102Y130388D01*
X189126Y130396D01*
X18915Y130401D01*
X189182Y130416D01*
X189215Y130428D01*
X190273Y130967D01*
X190836Y131254D01*
X190837Y131255D01*
X190839Y131256D01*
X190886Y131289D01*
X190934Y131322D01*
X190935Y131323D01*
X190937Y131324D01*
X192314Y132584D01*
X192318Y132588D01*
X192322Y132591D01*
X192356Y132634D01*
X192391Y132675D01*
X192394Y13268D01*
X192397Y132685D01*
X192888Y133496D01*
X192975D01*
Y133639D01*
X193001Y133682D01*
X193021Y133728D01*
X193043Y133772D01*
X193045Y133782D01*
X193049Y133791D01*
X193056Y13384D01*
X193066Y133889D01*
X193066Y133891D01*
X193066Y133891D01*
X193066Y133891D01*
X193082Y134138D01*
X193132Y134137D01*
Y133496D01*
X193802D01*
Y133933D01*
X194141Y134379D01*
X194155Y134404D01*
X194171Y134429D01*
X19449Y135138D01*
X194496Y135158D01*
X194504Y135177D01*
X194505Y13519D01*
X194509Y135202D01*
X19451Y135223D01*
X194512Y135244D01*
Y136494D01*
X194756D01*
Y137498D01*
X193752D01*
Y136494D01*
X193996D01*
Y135299D01*
X193712Y134668D01*
X193464Y134342D01*
X193146D01*
X193145Y134342D01*
X193098Y134378D01*
X193365Y138475D01*
X193673Y139597D01*
X19436Y140256D01*
X194398Y140222D01*
X19436Y140174D01*
X194319Y140073D01*
X194304Y139965D01*
X194319Y139857D01*
X19436Y139757D01*
X194426Y13967D01*
X194513Y139604D01*
X194613Y139562D01*
X194721Y139548D01*
X194829Y139562D01*
X19493Y139604D01*
X195016Y13967D01*
X195095Y139749D01*
X195284D01*
X195298Y139716D01*
X195298Y139699D01*
X195217Y139636D01*
X195134Y139553D01*
X195067Y139466D01*
X195026Y139366D01*
X195011Y139258D01*
X195026Y13915D01*
X195067Y13905D01*
X195134Y138963D01*
X19522Y138897D01*
X19532Y138855D01*
X195428Y138841D01*
X195536Y138855D01*
X195637Y138897D01*
X195723Y138963D01*
X195802Y139042D01*
X196377D01*
X196444Y13905D01*
X196506Y139076D01*
X19656Y139117D01*
X197794Y140352D01*
X197833Y14032D01*
X197633Y140021D01*
X197187Y139286D01*
X196773Y138532D01*
X196393Y137761D01*
X196047Y136974D01*
X195921Y136649D01*
X195899Y136605D01*
X195899Y136605D01*
X195812Y136379D01*
X195537Y135765D01*
X195228Y135167D01*
X194886Y134587D01*
X194512Y134027D01*
X194108Y133489D01*
X193673Y132975D01*
X193211Y132486D01*
X192722Y132023D01*
X192418Y131767D01*
X192419Y131767D01*
X192253Y131625D01*
X191668Y131176D01*
X191061Y130759D01*
X190432Y130374D01*
X189785Y130022D01*
X189119Y129705D01*
X188439Y129423D01*
X187744Y129177D01*
X187037Y128968D01*
X186321Y128796D01*
X185596Y128661D01*
X184865Y128565D01*
X184131Y128507D01*
X183394Y128488D01*
X182657Y128507D01*
X181923Y128565D01*
X181192Y128661D01*
X180467Y128796D01*
X179751Y128968D01*
X179044Y129177D01*
X17835Y129423D01*
X17834Y129428D01*
X178332Y129433D01*
X178327Y129434D01*
X17828Y129452D01*
X177669Y129705D01*
X177004Y130022D01*
X176703Y130185D01*
X176705Y130235D01*
X177147Y130421D01*
X177154Y130425D01*
X177163Y130428D01*
X17718Y130443D01*
X177199Y130456D01*
X177204Y130463D01*
X17721Y130468D01*
X177486Y130813D01*
X177492Y130825D01*
X177501Y130836D01*
X177507Y130853D01*
X177515Y130868D01*
X177516Y130882D01*
X17752Y130895D01*
X17756Y13125D01*
X177558Y13127D01*
X177559Y13129D01*
X17752Y131566D01*
X177513Y131585D01*
X177509Y131604D01*
X177503Y131614D01*
X177499Y131625D01*
X177485Y13164D01*
X177474Y131657D01*
X177199Y131932D01*
X177178Y131946D01*
X177159Y131961D01*
X177152Y131963D01*
X177147Y131967D01*
X177122Y131972D01*
X177099Y131979D01*
X176632Y132018D01*
X176625Y132017D01*
X176618Y132019D01*
X176153D01*
X175716Y132091D01*
X175174Y132396D01*
X174849Y132707D01*
X174644Y133049D01*
X174607Y133562D01*
X174604Y133575D01*
X174604Y133587D01*
X174596Y133604D01*
X174591Y133623D01*
X174583Y133633D01*
X174578Y133644D01*
X174381Y13392D01*
X174372Y133928D01*
X174365Y133939D01*
X174349Y13395D01*
X174335Y133963D01*
X174324Y133967D01*
X174314Y133974D01*
X173946Y134132D01*
X173935Y134134D01*
X173926Y134139D01*
X173535Y134249D01*
X173256Y134458D01*
X17284Y134913D01*
X172548Y135313D01*
X172446Y13572D01*
X172518Y136122D01*
X172557Y136314D01*
X172557Y136315D01*
X172558Y136315D01*
X172558Y136346D01*
X172558Y136377D01*
X172557Y136377D01*
Y136378D01*
X172518Y136575D01*
X172515Y136582D01*
X172514Y13659D01*
X172503Y136611D01*
X172494Y136632D01*
X172489Y136638D01*
X172485Y136645D01*
X172209Y136981D01*
X172203Y136986D01*
X172198Y136993D01*
X172179Y137006D01*
X172161Y137021D01*
X172153Y137023D01*
X172146Y137028D01*
X171689Y137214D01*
X171293Y137481D01*
X171007Y13788D01*
X17082Y138367D01*
X170548Y139259D01*
X170353Y140272D01*
X170236Y140979D01*
X170233Y140987D01*
X170232Y140995D01*
X170035Y141704D01*
X170027Y14172D01*
X170022Y141736D01*
X169673Y142396D01*
X169446Y143002D01*
X169332Y143671D01*
Y144127D01*
X169345Y14422D01*
Y144338D01*
X169332Y144432D01*
Y144653D01*
Y146784D01*
X169345Y146878D01*
Y146996D01*
X169332Y147089D01*
Y149442D01*
X169345Y149535D01*
Y14956D01*
X169467Y149682D01*
X169511Y14966D01*
X169511Y149653D01*
Y149535D01*
X169525Y149427D01*
X169567Y149327D01*
X16963Y149244D01*
Y148807D01*
X169629D01*
X16963Y1488D01*
Y148323D01*
X169629D01*
X169642Y148189D01*
X169681Y148061D01*
X169744Y147942D01*
X169829Y147839D01*
X169933Y147754D01*
X170048Y147692D01*
X170054Y14767D01*
X170057Y14764D01*
X169984Y147601D01*
X169863Y147502D01*
X169763Y147381D01*
X169759Y147374D01*
X169719Y147357D01*
X169633Y147291D01*
X169567Y147204D01*
X169525Y147104D01*
X169511Y146996D01*
Y146878D01*
X169525Y14677D01*
X169567Y146669D01*
X169633Y146583D01*
X169719Y146517D01*
X169759Y1465D01*
X169763Y146493D01*
X169863Y146372D01*
X169984Y146272D01*
X170122Y146198D01*
X170125Y146197D01*
X17013Y146144D01*
X170023Y146086D01*
X169889Y145976D01*
X169778Y145841D01*
X169696Y145687D01*
X169645Y14552D01*
X169628Y145347D01*
X16963D01*
Y144864D01*
X169628Y144847D01*
X16963D01*
Y144629D01*
X169567Y144547D01*
X169525Y144446D01*
X169511Y144338D01*
Y14422D01*
X169525Y144112D01*
X169567Y144012D01*
X169633Y143925D01*
X169719Y143859D01*
X16982Y143817D01*
X169928Y143803D01*
X170036Y143817D01*
X170136Y143859D01*
X170222Y143925D01*
X170289Y144012D01*
X17033Y144112D01*
X170345Y14422D01*
Y144338D01*
X17033Y144446D01*
X170295Y144532D01*
X170311Y144553D01*
X170371Y1446D01*
X170442Y144629D01*
X170517Y144639D01*
X170518Y144639D01*
X172477D01*
X172554Y144649D01*
X172626Y144679D01*
X172688Y144726D01*
X172735Y144788D01*
X172765Y14486D01*
X172775Y144937D01*
X172765Y145014D01*
X172735Y145086D01*
X172688Y145147D01*
X172669Y145162D01*
Y145212D01*
X172688Y145226D01*
X172735Y145288D01*
X172765Y14536D01*
X172775Y145437D01*
X172765Y145514D01*
X172735Y145586D01*
X172688Y145647D01*
X172669Y145662D01*
Y145712D01*
X172688Y145726D01*
X172735Y145788D01*
X172765Y14586D01*
X172775Y145937D01*
X172765Y146014D01*
X172735Y146086D01*
X172688Y146147D01*
X172669Y146162D01*
Y146212D01*
X172688Y146226D01*
X172735Y146288D01*
X172765Y14636D01*
X172775Y146437D01*
X172765Y146514D01*
X172735Y146586D01*
X172688Y146647D01*
X172669Y146662D01*
Y146712D01*
X172688Y146726D01*
X172735Y146788D01*
X172765Y14686D01*
X172775Y146937D01*
X172765Y147014D01*
X172735Y147086D01*
X172688Y147147D01*
X172669Y147162D01*
Y147212D01*
X172688Y147226D01*
X172735Y147288D01*
X172765Y14736D01*
X172775Y147437D01*
X172765Y147514D01*
X172735Y147586D01*
X172688Y147647D01*
X172669Y147662D01*
Y147712D01*
X172688Y147726D01*
X172735Y147788D01*
X172765Y14786D01*
X172775Y147937D01*
X172765Y148014D01*
X172735Y148086D01*
X172688Y148147D01*
X172669Y148162D01*
Y148212D01*
X172688Y148226D01*
X172735Y148288D01*
X172765Y14836D01*
X172775Y148437D01*
X172765Y148514D01*
X172739Y148577D01*
X17276Y148627D01*
X173257D01*
X173318Y148639D01*
X17337Y148674D01*
X173655Y148959D01*
X17369Y149011D01*
X173702Y149072D01*
X173702Y149072D01*
Y149545D01*
Y150086D01*
X17369Y150148D01*
X17368Y150164D01*
Y150224D01*
X173619D01*
X173603Y150235D01*
X173542Y150247D01*
X172676D01*
X172676Y150247D01*
X172614Y150235D01*
X172562Y1502D01*
X172168Y149806D01*
X172168Y149806D01*
X172019Y149656D01*
X171561D01*
X171018Y1502D01*
X170466Y150751D01*
X170414Y150786D01*
X170353Y150798D01*
X170353Y150798D01*
X168857D01*
X168838Y150794D01*
X168819Y150794D01*
X168248Y150656D01*
X168239Y150652D01*
X168229Y15065D01*
X168211Y150639D01*
X168191Y15063D01*
X168184Y150622D01*
X168176Y150617D01*
X168123Y150567D01*
X168081Y150595D01*
X168281Y151113D01*
X168606Y151846D01*
X168967Y152562D01*
X169362Y153259D01*
X169791Y153937D01*
X170252Y154592D01*
X170745Y155224D01*
X171269Y155831D01*
X171822Y156411D01*
X172402Y156964D01*
X173009Y157488D01*
X173641Y157981D01*
X174296Y158442D01*
X174973Y158871D01*
X175671Y159266D01*
X176387Y159627D01*
X17712Y159951D01*
X177824Y160223D01*
X177872Y160239D01*
X177881Y160241D01*
X177886Y160244D01*
X177919Y160256D01*
X17861Y160485D01*
X179311Y160679D01*
X179359Y160692D01*
X179385Y160697D01*
X179385Y160698D01*
X179388Y160699D01*
X179407Y160704D01*
X180176Y160877D01*
X180347Y160906D01*
Y160906D01*
X180396Y160915D01*
X180977Y161016D01*
X181303Y161056D01*
X181303Y161056D01*
X181762Y161113D01*
X182561Y161171D01*
X183362Y161191D01*
X184164Y161171D01*
D02*
G37*
G36*
X170904Y150086D02*
X171495Y149496D01*
X172085D01*
X172282Y149693D01*
X172676Y150086D01*
X173542D01*
Y149545D01*
Y149072D01*
X173257Y148787D01*
X170835D01*
X17051Y149112D01*
Y149575D01*
Y149811D01*
X170235Y150086D01*
X170065D01*
X170046Y150094D01*
X169928Y15011D01*
X169809Y150094D01*
X16979Y150086D01*
X169644D01*
X169526Y149968D01*
X169172Y149614D01*
Y144653D01*
Y143658D01*
X16929Y14296D01*
X169526Y14233D01*
X16988Y141661D01*
X170077Y140953D01*
X170195Y140244D01*
X170392Y13922D01*
X170668Y138315D01*
X170865Y137803D01*
X17118Y137364D01*
X171613Y137071D01*
X172085Y136879D01*
X172361Y136543D01*
X1724Y136346D01*
X172361Y136152D01*
X172282Y135714D01*
X1724Y135244D01*
X172715Y134811D01*
X173148Y134338D01*
X173463Y134102D01*
X173882Y133984D01*
X17425Y133827D01*
X174447Y133551D01*
X174487Y133D01*
X174723Y132606D01*
X175077Y132266D01*
X175661Y131937D01*
X17614Y131858D01*
X176618D01*
X177085Y131819D01*
X177361Y131543D01*
X1774Y131267D01*
X177361Y130913D01*
X177085Y130569D01*
X176518Y130331D01*
X176376Y130408D01*
X175749Y130792D01*
X175143Y131208D01*
X17456Y131655D01*
X174002Y132133D01*
X173468Y132639D01*
X172963Y133172D01*
X172485Y13373D01*
X172038Y134313D01*
X171622Y134919D01*
X171238Y135546D01*
X170887Y136192D01*
X170571Y136855D01*
X17029Y137534D01*
X170044Y138226D01*
X169835Y138931D01*
X169664Y139646D01*
X16953Y140368D01*
X169495Y140634D01*
X169492Y140634D01*
X169447Y140899D01*
X169423Y140981D01*
X16941Y141029D01*
X169404Y141057D01*
X169399Y141064D01*
X169396Y141076D01*
X169351Y141232D01*
X169217Y141554D01*
X169049Y141859D01*
X168847Y142143D01*
X168615Y142403D01*
X168356Y142635D01*
X168071Y142836D01*
X167767Y143005D01*
X167723Y143023D01*
X167679Y143044D01*
X167674Y143047D01*
X167672Y143047D01*
X167635Y143066D01*
X167533Y14312D01*
X167388Y14324D01*
X167269Y143385D01*
X16718Y143551D01*
X167126Y143731D01*
X167113Y143858D01*
X167113Y143858D01*
X167113D01*
X167113Y143858D01*
X167102Y144055D01*
X167097Y144074D01*
X167078Y144864D01*
X167097Y145663D01*
X167156Y14646D01*
X167254Y147254D01*
X167391Y148042D01*
X167566Y148822D01*
X167779Y149593D01*
X167985Y150216D01*
X168286Y1505D01*
X168857Y150638D01*
X170353D01*
X170904Y150086D01*
D02*
G37*
G36*
X197479Y143699D02*
Y142606D01*
X197282Y142409D01*
X19578D01*
X195425Y142055D01*
X195156Y142324D01*
Y143433D01*
X195432Y143708D01*
X197488D01*
X197479Y143699D01*
D02*
G37*
G36*
X196737Y142232D02*
X196737Y142199D01*
Y141563D01*
X196902D01*
Y140859D01*
X196308Y140265D01*
X19516D01*
X1951Y140343D01*
X195013Y14041D01*
X194913Y140451D01*
X194805Y140466D01*
X194697Y140451D01*
X194622Y14042D01*
X194596Y140464D01*
X195035Y140843D01*
X195041Y140851D01*
X19505Y140857D01*
X195081Y140896D01*
X195114Y140933D01*
X195118Y140942D01*
X195125Y14095D01*
X195504Y141567D01*
X195521Y141605D01*
X195541Y141641D01*
X195733Y142135D01*
X195846Y142249D01*
X196694D01*
X196737Y142232D01*
D02*
G37*
G36*
X179959Y132645D02*
X180195Y13237D01*
X180943Y131464D01*
X181809Y130795D01*
X180353Y130792D01*
X178975Y132567D01*
Y133157D01*
X179959D01*
Y132645D01*
D02*
G37*
%LPC*%
G36*
X193662Y15435D02*
X192816D01*
Y153681D01*
X193662D01*
Y153698D01*
X193739D01*
X193821Y153709D01*
X193897Y153741D01*
X193963Y153791D01*
X194014Y153857D01*
X194045Y153934D01*
X194056Y154016D01*
X194045Y154098D01*
X194014Y154175D01*
X193963Y15424D01*
X193897Y154291D01*
X193821Y154323D01*
X193739Y154333D01*
X193662D01*
Y15435D01*
D02*
G37*
G36*
X171522Y151338D02*
X170866Y150436D01*
X171768Y149781D01*
X172424Y150683D01*
X171522Y151338D01*
D02*
G37*
G36*
X198391Y150188D02*
X198289Y150175D01*
X198193Y150135D01*
X198111Y150072D01*
X198048Y14999D01*
X198008Y149894D01*
X197994Y149791D01*
X198008Y149688D01*
X198048Y149593D01*
X198111Y14951D01*
X198133Y149493D01*
Y147433D01*
X198026Y147351D01*
X197944Y147244D01*
X197617D01*
X19755Y147235D01*
X197488Y147209D01*
X197434Y147168D01*
X196969Y146703D01*
X196928Y146649D01*
X196902Y146587D01*
X196893Y14652D01*
Y146287D01*
X196681D01*
Y146539D01*
X196788Y146621D01*
X19687Y146728D01*
X196922Y146852D01*
X196939Y146986D01*
X196922Y147119D01*
X19687Y147244D01*
X196788Y147351D01*
X196681Y147433D01*
X196557Y147484D01*
X196423Y147502D01*
X196289Y147484D01*
X196007Y147767D01*
X195953Y147808D01*
X195891Y147834D01*
X195824Y147842D01*
X195412D01*
X195408Y147852D01*
X195342Y147938D01*
X195256Y148004D01*
X195155Y148046D01*
X195047Y14806D01*
X194939Y148046D01*
X194839Y148004D01*
X194753Y147938D01*
X194686Y147852D01*
X194645Y147751D01*
X19463Y147643D01*
Y147525D01*
X194645Y147417D01*
X194686Y147317D01*
X194753Y14723D01*
X194839Y147164D01*
X194939Y147123D01*
X195047Y147108D01*
X195155Y147123D01*
X195256Y147164D01*
X195342Y14723D01*
X195408Y147317D01*
X195412Y147326D01*
X195717D01*
X195924Y147119D01*
X195907Y146986D01*
X195924Y146852D01*
X195976Y146728D01*
X196058Y146621D01*
X196165Y146539D01*
Y146287D01*
X196039D01*
Y145421D01*
Y144637D01*
X195909D01*
Y143968D01*
X196756D01*
Y144634D01*
X196819D01*
Y143968D01*
X197665D01*
Y144085D01*
X198168D01*
Y143989D01*
X198719D01*
Y144643D01*
X199191D01*
Y145421D01*
X199211D01*
Y146287D01*
X197715D01*
Y146172D01*
X197535D01*
Y146287D01*
X197409D01*
Y146413D01*
X197723Y146728D01*
X197944D01*
X198026Y146621D01*
X198133Y146539D01*
X198258Y146487D01*
X198391Y146469D01*
X198525Y146487D01*
X19865Y146539D01*
X198756Y146621D01*
X198839Y146728D01*
X19889Y146852D01*
X198908Y146986D01*
X19889Y147119D01*
X198839Y147244D01*
X198756Y147351D01*
X19865Y147433D01*
Y149493D01*
X198672Y14951D01*
X198735Y149593D01*
X198775Y149688D01*
X198789Y149791D01*
X198775Y149894D01*
X198735Y14999D01*
X198672Y150072D01*
X19859Y150135D01*
X198494Y150175D01*
X198391Y150188D01*
D02*
G37*
G36*
X191254Y137502D02*
X191123Y137485D01*
X191001Y137434D01*
X190896Y137354D01*
X190816Y137249D01*
X190765Y137127D01*
X190748Y136996D01*
X190765Y136865D01*
X190816Y136743D01*
X190896Y136638D01*
X190994Y136563D01*
X190981Y136497D01*
X190944Y136442D01*
X190936Y136429D01*
X190923Y13642D01*
X190867Y136383D01*
X19079Y136368D01*
X190786Y136368D01*
X190217D01*
Y136386D01*
X189508D01*
Y135834D01*
X190217D01*
Y135852D01*
X190786D01*
Y135851D01*
X190928Y135865D01*
X191064Y135906D01*
X19119Y135973D01*
X191255Y136027D01*
X191275Y136042D01*
X191277Y136044D01*
X191301Y136064D01*
X19132Y136087D01*
X191323Y13609D01*
X191338Y136109D01*
X191391Y136174D01*
X191458Y1363D01*
X1915Y136436D01*
X191512Y136561D01*
X191612Y136638D01*
X191693Y136743D01*
X191743Y136865D01*
X191761Y136996D01*
X191743Y137127D01*
X191693Y137249D01*
X191612Y137354D01*
X191508Y137434D01*
X191385Y137485D01*
X191254Y137502D01*
D02*
G37*
G36*
X177027Y136075D02*
X177015Y136074D01*
X176814D01*
X176814Y136074D01*
X176753Y136061D01*
X176701Y136027D01*
X176701Y136027D01*
X176499Y135825D01*
X176464Y135773D01*
X176452Y135711D01*
X176452Y135711D01*
Y135165D01*
X176464Y135104D01*
X176499Y135052D01*
X176499Y135052D01*
X17768Y13387D01*
X177732Y133836D01*
X177794Y133823D01*
X177794Y133823D01*
X179447D01*
X179509Y133836D01*
X179561Y13387D01*
X179876Y134185D01*
X179911Y134238D01*
X179923Y134299D01*
X179923Y134299D01*
Y134919D01*
X179923Y134919D01*
X179911Y134981D01*
X179876Y135033D01*
X179876Y135033D01*
X179872Y135036D01*
Y135099D01*
X179809D01*
X178882Y136027D01*
X17883Y136061D01*
X178768Y136074D01*
X178768Y136074D01*
X17704D01*
X177027Y136075D01*
D02*
G37*
%LPD*%
G36*
X179762Y134919D02*
Y134299D01*
X179447Y133984D01*
X177794D01*
X176613Y135165D01*
Y135711D01*
X176814Y135913D01*
X178768D01*
X179762Y134919D01*
D02*
G37*
D10*
X189067Y159004D02*
G03*
X188774Y159711I-001J0D01*
G01*
X173875Y155715D02*
G03*
X174582Y156008I0J001D01*
G01*
X184186Y160468D02*
G03*
X183478Y160175I0J-001D01*
G01*
X188774Y159711D02*
G03*
X186947Y160468I-001827J-001827D01*
G01*
X176806Y159109D02*
G03*
X176099Y158816I0J-001D01*
G01*
X175528Y158245D02*
G03*
X175235Y157538I000707J-000707D01*
G01*
X174942Y156368D02*
G03*
X175235Y157075I-000707J000707D01*
G01*
X187062Y135736D02*
X188954D01*
X185173Y133847D02*
X187062Y135736D01*
X18233Y133847D02*
X185173D01*
X196904Y151267D02*
X197375Y151738D01*
X195865Y151267D02*
X196904D01*
X195313Y151819D02*
X195865Y151267D01*
X189067Y158732D02*
Y159004D01*
X172919Y155715D02*
X173875D01*
X172108Y1546D02*
X172919Y155715D01*
X170027Y151735D02*
X172108Y1546D01*
X170134Y151842D02*
X174763D01*
X170027Y151735D02*
X170134Y151842D01*
X199546Y144302D02*
Y14476D01*
X196273Y141947D02*
X196332D01*
X174024Y149137D02*
Y149791D01*
Y145725D02*
Y149137D01*
X189067Y158732D02*
X190093Y156461D01*
X183266Y159963D02*
X183478Y160175D01*
X181191Y158294D02*
X183266Y159963D01*
X18025Y159431D02*
X183266Y159963D01*
X184186Y160468D02*
X186947D01*
X178421Y159109D02*
X18025Y159431D01*
X176806Y159109D02*
X178421D01*
X175528Y158245D02*
X176099Y158816D01*
X175235Y157075D02*
Y157538D01*
X174582Y156008D02*
X174942Y156368D01*
X189067Y158732D02*
X193239Y156125D01*
X174024Y149791D02*
Y151103D01*
X174763Y151842D01*
X196332Y140839D02*
Y141947D01*
X177789Y132266D02*
X18055Y129811D01*
X184093Y129522D01*
X175033Y134333D02*
X177789Y132266D01*
X175033Y134333D02*
X177027Y136897D01*
X172781Y137038D02*
X177027Y136897D01*
X184093Y129522D02*
X186357Y12984D01*
X177789Y132266D02*
X178384Y133483D01*
X180687Y1352D02*
X18233Y133847D01*
X180416Y135367D02*
X180687Y1352D01*
X179809Y135673D02*
X180416Y135367D01*
X179191Y136041D02*
X179809Y135673D01*
X178683Y136468D02*
X179191Y136041D01*
X177027Y136897D02*
X178683Y136468D01*
D11*
X190786Y13611D02*
G03*
X191092Y136224I0J000468D01*
G01*
D02*
G03*
X19114Y136272I-000306J000354D01*
G01*
D02*
G03*
X191254Y136578I-000354J000306D01*
G01*
X185646Y154456D02*
X186471D01*
X196377Y1393D02*
X198003Y140926D01*
X19547Y1393D02*
X196377D01*
X198003Y140926D02*
Y141897D01*
X194254Y135244D02*
Y136996D01*
X193935Y134535D02*
X194254Y135244D01*
X193467Y133919D02*
X193935Y134535D01*
X177392Y156312D02*
X183376D01*
X187471Y15332D02*
Y154122D01*
X189703Y152134D02*
Y152645D01*
X189408Y152941D02*
X189703Y152645D01*
X18785Y152941D02*
X189408D01*
X187471Y15332D02*
X18785Y152941D01*
X187136Y154456D02*
X187471Y154122D01*
X186471Y154456D02*
X187136D01*
X188453Y154596D02*
Y155404D01*
Y154429D02*
Y154596D01*
X186471Y155762D02*
X188095D01*
X188453Y155404D01*
X183376Y156312D02*
X185058Y157993D01*
X188453Y154596D02*
X188864Y155008D01*
X190541D01*
X190904Y154645D01*
Y154429D02*
Y154645D01*
X194282Y155783D02*
X194436D01*
X193341Y154843D02*
X194282Y155783D01*
X193239Y154843D02*
X193341D01*
X198391Y146986D02*
Y149791D01*
X195824Y147584D02*
X196423Y146986D01*
X195047Y147584D02*
X195824D01*
X196332Y143476D02*
X197242D01*
Y142724D02*
Y143476D01*
X190093Y155733D02*
X192179Y154429D01*
X188007Y157036D02*
X190093Y155733D01*
X186476Y157993D02*
X188007Y157036D01*
X185884Y157993D02*
X185884Y157993D01*
X186476D01*
X175956Y157139D02*
X176514D01*
X175767Y15695D02*
X175956Y157139D01*
X175767Y154909D02*
Y15695D01*
X175398Y15454D02*
X175767Y154909D01*
X174537Y15454D02*
X175398D01*
X176514Y156312D02*
X177392D01*
X181191Y157566D02*
X183613Y157993D01*
X178769Y157139D02*
X181191Y157566D01*
X177392Y157139D02*
X178769D01*
X172919Y15454D02*
X174537D01*
X191254Y136578D02*
Y136996D01*
X189862Y13611D02*
X190786D01*
X19803Y144383D02*
Y145067D01*
Y144383D02*
X198069Y144343D01*
X197239D02*
X198069D01*
X198443D01*
X196423Y144393D02*
Y145067D01*
Y145854D01*
X198817Y143435D02*
X199505D01*
X196423Y145854D02*
Y146986D01*
X197617D02*
X198391D01*
X197151Y14652D02*
X197617Y146986D01*
X197151Y145854D02*
Y14652D01*
X195438Y139331D02*
X19547D01*
X196415Y140007D02*
X19716Y140752D01*
Y141897D01*
X194763Y140007D02*
X196415D01*
X19716Y141897D02*
X197242D01*
X198069Y142724D02*
Y143435D01*
X176618Y153842D02*
X177392Y154616D01*
Y156312D01*
X184471Y154787D02*
X184802Y154456D01*
X185471D01*
X184471Y154787D02*
Y155762D01*
X185558Y154544D02*
X185646Y154456D01*
X195811Y143197D02*
X196332Y142675D01*
X196053Y143197D02*
X196332Y143476D01*
X195589Y143197D02*
X195811D01*
X196053D01*
D12*
X169928Y148807D02*
G03*
X170298Y148437I00037J0D01*
G01*
X169928Y148323D02*
G03*
X170313Y147937I000386J0D01*
G01*
X170518Y145937D02*
G03*
X169928Y145347I0J-00059D01*
G01*
X170518Y145437D02*
G03*
X169928Y144847I0J-00059D01*
G01*
X170518Y144937D02*
G03*
X169928Y144347I0J-00059D01*
G01*
X169928Y146937D02*
G03*
X170428Y146437I0005J0D01*
G01*
Y147437D02*
G03*
X169928Y146937I0J-0005D01*
G01*
X175661Y147937D02*
Y148437D01*
X174024Y149137D02*
X174224Y148937D01*
X175661D01*
X173296Y149228D02*
Y149791D01*
X173004Y148937D02*
X173296Y149228D01*
X171658Y148937D02*
X173004D01*
X175661Y145437D02*
Y145937D01*
Y144937D02*
Y145437D01*
Y146937D02*
Y147437D01*
Y146437D02*
Y146937D01*
X171035Y148937D02*
X171658D01*
X17078Y149192D02*
X171035Y148937D01*
X17078Y149192D02*
Y14989D01*
X170425Y150244D02*
X17078Y14989D01*
X169578Y150244D02*
X170425D01*
X168928Y149594D02*
X169578Y150244D01*
X169928Y144279D02*
Y144347D01*
X171658Y147937D02*
X172477D01*
X171658Y148437D02*
X172477D01*
X170313Y147937D02*
X171658D01*
X169928Y148807D02*
Y149594D01*
Y148323D02*
Y148807D01*
X170298Y148437D02*
X171658D01*
Y144937D02*
X172477D01*
X171658Y145437D02*
X172477D01*
X171658Y145937D02*
X172477D01*
X170518D02*
X171658D01*
X170518Y145437D02*
X171658D01*
X170518Y144937D02*
X171658D01*
X169928Y144847D02*
Y145347D01*
Y144347D02*
Y144847D01*
X171658Y146437D02*
X172477D01*
X171658Y146937D02*
X172477D01*
X171658Y147437D02*
X172477D01*
X170428D02*
X171658D01*
X170428Y146437D02*
X171658D01*
X169928Y146937D02*
X171658D01*
D13*
X177939Y149521D02*
G03*
X178646Y149228I000707J000707D01*
G01*
X178466Y149995D02*
G03*
X179155Y149709I000689J000689D01*
G01*
X175661Y146937D02*
X177046Y146937D01*
X1774Y146986D01*
X177714Y14712D01*
X183344Y14989D02*
X18429Y149868D01*
X183262Y149891D02*
X183344Y14989D01*
X182263D02*
X182282Y149893D01*
X181073Y149699D02*
X182263Y14989D01*
X186967Y149369D02*
X187046Y149535D01*
X186849Y149288D02*
X186967Y149369D01*
X186673Y149274D02*
X186849Y149288D01*
X1864Y149355D02*
X186673Y149274D01*
X185736Y149585D02*
X1864Y149355D01*
X185156Y149743D02*
X185736Y149585D01*
X18429Y149868D02*
X185156Y149743D01*
X182282Y149893D02*
X183262Y149891D01*
X180119Y149415D02*
X181073Y149699D01*
X179191Y148874D02*
X180119Y149415D01*
X178698Y148512D02*
X179191Y148874D01*
X17837Y148221D02*
X178698Y148512D01*
X178071Y148D02*
X17837Y148221D01*
X177597Y147921D02*
X178071Y148D01*
X175661Y147937D02*
X177597Y147921D01*
X191121Y149531D02*
Y152276D01*
X191435Y150185D02*
Y150736D01*
X19177Y149417D02*
X192127Y149774D01*
X187282Y148614D02*
X187715Y148954D01*
X191435Y151681D02*
Y152276D01*
X190594Y151464D02*
X190806D01*
Y152842D02*
Y154331D01*
Y152276D02*
Y152842D01*
X190043Y151681D02*
X190673Y151051D01*
X192065Y151681D02*
Y152276D01*
X194192Y152021D02*
Y152744D01*
X194646Y151659D02*
Y153039D01*
X19265Y153356D02*
X196199D01*
X187243Y149023D02*
X187407Y14926D01*
X187105Y148934D02*
X187243Y149023D01*
X186849Y148866D02*
X187105Y148934D01*
X186569Y148905D02*
X186849Y148866D01*
X186258Y149023D02*
X186569Y148905D01*
X185589Y149254D02*
X186258Y149023D01*
X184802Y149417D02*
X185589Y149254D01*
X183896Y149545D02*
X184802Y149417D01*
X182991Y149575D02*
X183896Y149545D01*
X18217Y149531D02*
X182991Y149575D01*
X181221Y149369D02*
X18217Y149531D01*
X180257Y149078D02*
X181221Y149369D01*
X179317Y148536D02*
X180257Y149078D01*
X178789Y148146D02*
X179317Y148536D01*
X178473Y147872D02*
X178789Y148146D01*
X178294Y147694D02*
X178473Y147872D01*
X178071Y147466D02*
X178294Y147694D01*
X178071Y147465D02*
X178071Y147466D01*
X177714Y14712D02*
X178071Y147465D01*
X175661Y145937D02*
X176902D01*
X177203Y145992D01*
X17744Y146228D01*
X191435Y148881D02*
Y14937D01*
X191278Y149527D02*
X191435Y14937D01*
X190176Y151882D02*
X190594Y151464D01*
X190176Y151882D02*
Y152276D01*
X19175Y14989D02*
Y150449D01*
X188303Y149476D02*
X18958D01*
X192127Y149774D02*
Y150272D01*
X192459Y150106D02*
X192976D01*
X19364D02*
X196744D01*
X192976Y149791D02*
X197407D01*
X194047Y150421D02*
Y151051D01*
X194353Y151366D02*
X194646Y151659D01*
X192976Y151366D02*
X194353D01*
X193851Y151681D02*
X194192Y152021D01*
X192976Y151681D02*
X193851D01*
X18958Y150421D02*
X19018D01*
X18848Y150106D02*
X18958D01*
X188219Y150367D02*
X18848Y150106D01*
X188219Y150367D02*
Y151791D01*
X188455Y151051D02*
X18877Y150736D01*
X188455Y151051D02*
Y151889D01*
X187777Y152567D02*
X188455Y151889D01*
X188817Y151267D02*
X189034Y151051D01*
X189231Y154023D02*
Y15438D01*
Y15363D02*
Y154023D01*
X187857Y152153D02*
X188219Y151791D01*
X187085Y152153D02*
X187857D01*
X186967Y148508D02*
X187282Y148614D01*
X186568Y14857D02*
X186967Y148508D01*
X185504Y148979D02*
X186568Y14857D01*
X184714Y14915D02*
X185504Y148979D01*
X184132Y149254D02*
X184714Y14915D01*
X183463Y149288D02*
X184132Y149254D01*
X182912Y149288D02*
X183463D01*
X182321Y149254D02*
X182912Y149288D01*
X181731Y14915D02*
X182321Y149254D01*
X181021Y148979D02*
X181731Y14915D01*
X180393Y148742D02*
X181021Y148979D01*
X179443Y148197D02*
X180393Y148742D01*
X17888Y14778D02*
X179443Y148197D01*
X178448Y147397D02*
X17888Y14778D01*
X177889Y146838D02*
X178448Y147397D01*
X17744Y146228D02*
X177889Y146838D01*
X186809Y152567D02*
X187777D01*
X189034Y151051D02*
X18958D01*
X18877Y150736D02*
X18958D01*
Y151681D02*
X190043D01*
X190176Y152276D02*
Y154331D01*
X186471Y151563D02*
Y15363D01*
X185471Y151563D02*
Y15363D01*
X192276Y150421D02*
X192976D01*
X192127Y150272D02*
X192276Y150421D01*
X192037Y150736D02*
X192976D01*
X19175Y150449D02*
X192037Y150736D01*
X19175Y151051D02*
X192976D01*
X191435Y150736D02*
X19175Y151051D01*
X191475Y153236D02*
Y154006D01*
X191121Y152882D02*
X191475Y153236D01*
X191121Y152276D02*
Y152882D01*
X187943Y154091D02*
Y154789D01*
X187626Y155106D02*
X187943Y154789D01*
X186127Y155106D02*
X187626D01*
X187943Y154091D02*
X188404Y15363D01*
X185471Y155762D02*
X186127Y155106D01*
X175661Y148437D02*
X17607D01*
X190176Y148881D02*
Y149102D01*
X189182Y154429D02*
X189231Y15438D01*
X190491Y152276D02*
Y153138D01*
X19175Y152276D02*
Y152842D01*
X197407Y148954D02*
Y149791D01*
X190392Y14703D02*
Y147626D01*
Y14703D02*
X190584Y146838D01*
X192026D01*
X192223Y147035D01*
Y147626D01*
X19238Y153086D02*
X19265Y153356D01*
X19238Y152276D02*
Y153086D01*
X191117Y149527D02*
X191278D01*
X190955D02*
X191117D01*
X191121Y149531D01*
X191121Y147724D02*
Y147842D01*
X19175Y148472D01*
Y148881D01*
X190392Y147626D02*
Y147665D01*
X190806Y148881D02*
Y149378D01*
X190955Y149527D01*
X192065Y148439D02*
Y148881D01*
X19175Y148124D02*
X192065Y148439D01*
X19175Y147626D02*
Y148124D01*
X192695Y147626D02*
Y148124D01*
X19238Y148439D02*
X192695Y148124D01*
X19238Y148439D02*
Y148881D01*
X190392Y147665D02*
X190457Y14773D01*
Y148124D01*
X190806Y148473D01*
Y148881D01*
X189821Y137193D02*
X189946Y139331D01*
X190086Y139746D01*
X190204Y139938D01*
X190403Y140048D01*
X190628Y140071D01*
X192382Y140377D01*
X193183Y140678D01*
X193818Y141148D01*
X194153Y141483D01*
X194541Y142036D01*
X194736Y142471D01*
X194863Y143069D01*
X194894Y14359D01*
Y143787D01*
X194863Y144067D02*
X194894Y143787D01*
X192976Y149476D02*
X193365D01*
Y147921D02*
X193424Y146524D01*
X193737Y146069D01*
X193898Y145893D01*
X194387Y145283D01*
X194723Y144614D01*
X194863Y144067D01*
X193365Y147921D02*
Y149476D01*
X179225Y149315D02*
X17998Y149752D01*
X180923Y150028D01*
X182088Y15018D01*
X183542Y150185D01*
X184684Y150106D01*
X185746Y14989D01*
X186337Y149811D01*
X186967D01*
X187203Y149791D01*
X1874Y149693D01*
X187912Y14926D01*
X188069Y14915D01*
X188343Y149102D01*
X176618Y150842D02*
X177939Y149521D01*
X188343Y149102D02*
X190176D01*
X178646Y149228D02*
X179225Y149315D01*
X179842Y150088D02*
X180774Y150357D01*
X181809Y150503D01*
X182597Y1505D01*
X183542Y150504D01*
X184838Y150432D01*
X185943Y150212D01*
X186573Y150126D01*
X187046Y15013D01*
X176618Y151842D02*
X178466Y149995D01*
X179155Y149709D02*
X179842Y150088D01*
X187046Y15013D02*
X187105Y150115D01*
X187676Y149929D01*
X187943Y149653D01*
X188303Y149476D01*
X176618Y152842D02*
X178896Y150559D01*
X17925Y150367D01*
X179684Y150424D01*
X180589Y150686D01*
X181731Y150842D01*
X182872D01*
X183935Y150795D01*
X18488Y150716D01*
X186061Y150504D01*
X186613Y150432D01*
X187006D01*
X187439Y150323D01*
X18795Y150163D01*
X188225Y149888D01*
X188542Y149791D01*
X18958D01*
D14*
X196423Y145854D02*
D03*
X197151D02*
D03*
X196423Y145067D02*
D03*
X197151D02*
D03*
X174024Y149791D02*
D03*
X173296D02*
D03*
X17219Y15454D02*
D03*
X172919D02*
D03*
X190855Y15363D02*
D03*
X190126D02*
D03*
X188453Y154429D02*
D03*
X189182D02*
D03*
X191121Y147626D02*
D03*
X190392D02*
D03*
X198099Y145854D02*
D03*
X198827D02*
D03*
D15*
X197242Y144302D02*
D03*
Y143476D02*
D03*
X196332D02*
D03*
Y144302D02*
D03*
X198003Y142724D02*
D03*
Y141897D02*
D03*
X19716Y142724D02*
D03*
Y141897D02*
D03*
X177392Y157139D02*
D03*
Y156312D02*
D03*
X176514Y157139D02*
D03*
Y156312D02*
D03*
X193239Y154843D02*
D03*
Y154016D02*
D03*
X185471Y15363D02*
D03*
Y154456D02*
D03*
X186471D02*
D03*
Y15363D02*
D03*
X199546Y143476D02*
D03*
Y144302D02*
D03*
D16*
X198857Y145067D02*
D03*
X19803D02*
D03*
X185884Y157993D02*
D03*
X185058D02*
D03*
X190077Y154429D02*
D03*
X190904D02*
D03*
X189231Y15363D02*
D03*
X188404D02*
D03*
X19264Y133919D02*
D03*
X193467D02*
D03*
X189821Y137193D02*
D03*
X188995D02*
D03*
D17*
X196332Y142675D02*
D03*
Y141947D02*
D03*
X190093Y156461D02*
D03*
Y155733D02*
D03*
X181191Y158294D02*
D03*
Y157566D02*
D03*
X195313Y151819D02*
D03*
Y152547D02*
D03*
X186357Y12984D02*
D03*
Y130569D02*
D03*
X178384Y133483D02*
D03*
Y134211D02*
D03*
D18*
X171658Y144937D02*
D03*
Y145437D02*
D03*
Y145937D02*
D03*
Y146437D02*
D03*
Y146937D02*
D03*
Y147437D02*
D03*
Y147937D02*
D03*
Y148437D02*
D03*
Y148937D02*
D03*
X175661Y148937D02*
D03*
Y148437D02*
D03*
Y147937D02*
D03*
Y147437D02*
D03*
Y146937D02*
D03*
Y146437D02*
D03*
Y145937D02*
D03*
Y145437D02*
D03*
Y144937D02*
D03*
D19*
X192223Y147626D02*
D03*
X192695D02*
D03*
X19175D02*
D03*
D20*
X18958Y149476D02*
D03*
Y149791D02*
D03*
Y150106D02*
D03*
Y150421D02*
D03*
Y150736D02*
D03*
Y151051D02*
D03*
Y151366D02*
D03*
Y151681D02*
D03*
X192976Y151681D02*
D03*
Y151366D02*
D03*
Y151051D02*
D03*
Y150736D02*
D03*
Y150421D02*
D03*
Y150106D02*
D03*
Y149791D02*
D03*
Y149476D02*
D03*
D21*
X190176Y152276D02*
D03*
X190491D02*
D03*
X190806D02*
D03*
X191121D02*
D03*
X191435D02*
D03*
X19175D02*
D03*
X192065D02*
D03*
X19238D02*
D03*
X19238Y148881D02*
D03*
X192065D02*
D03*
X19175D02*
D03*
X191435D02*
D03*
X191121D02*
D03*
X190806D02*
D03*
X190491D02*
D03*
X190176D02*
D03*
D22*
X197407Y149791D02*
D03*
X198391D02*
D03*
X184434Y15737D02*
D03*
D23*
X189862Y13611D02*
D03*
X188954Y135736D02*
D03*
Y136484D02*
D03*
D24*
X18233Y133847D02*
D03*
D25*
X17936Y13295D02*
D03*
Y134745D02*
D03*
D26*
X198443Y144343D02*
D03*
X198817Y143435D02*
D03*
X198069D02*
D03*
D27*
X184093Y1309D02*
X186367Y130806D01*
X187597Y130756D02*
X189007Y130834D01*
X190628Y131661D02*
X192006Y132921D01*
X19261Y133919D01*
X192912Y138551D02*
X193266Y13984D01*
X194096Y140635D01*
X194736Y141189D01*
X195115Y141806D01*
X195425Y142606D01*
X186367Y130806D02*
X187597Y130756D01*
X189007Y130834D02*
X190066Y131374D01*
X190628Y131661D01*
X19261Y133919D02*
X192611Y133921D01*
X19264Y134377D01*
X192912Y138551D01*
X18055Y131189D02*
X182321Y131045D01*
X184093Y1309D01*
X195425Y142606D02*
X195465Y143205D01*
X19547Y143275D01*
D28*
X191121Y148315D02*
Y148881D01*
Y147842D02*
Y148315D01*
D29*
X198857Y145446D02*
Y145825D01*
Y145067D02*
Y145446D01*
X198827Y145854D02*
X198857Y145825D01*
D30*
X193239Y154016D02*
X193739D01*
X195313Y152547D02*
X196787D01*
X197151Y145067D02*
Y145854D01*
X198099D01*
X19261Y133919D02*
X19264D01*
X17936Y13295D02*
X18055Y131189D01*
D31*
X188954Y136484D02*
Y137152D01*
D32*
X177027Y135519D02*
X178586D01*
X17936Y134745D01*
X168928Y144279D02*
Y146937D01*
Y149594D01*
D33*
Y144279D02*
D03*
X169928D02*
D03*
Y149594D02*
D03*
X168928D02*
D03*
Y146937D02*
D03*
X169928D02*
D03*
X194047Y147584D02*
D03*
X195047D02*
D03*
D34*
X194763Y140007D02*
D03*
X19547Y1393D02*
D03*
D35*
X172074Y136331D02*
D03*
X172781Y137038D02*
D03*
D36*
X176618Y150842D02*
D03*
Y151842D02*
D03*
Y152842D02*
D03*
Y154842D02*
D03*
Y153842D02*
D03*
X184471Y155762D02*
D03*
X185471D02*
D03*
X186471D02*
D03*
X187471Y151563D02*
D03*
X186471D02*
D03*
X185471D02*
D03*
D37*
X173955Y157029D02*
D03*
X187204Y159378D02*
D03*
D38*
X195612Y154165D02*
D03*
X195024Y154974D02*
D03*
X194436Y155783D02*
D03*
X196199Y153356D02*
D03*
X196787Y152547D02*
D03*
X197375Y151738D02*
D03*
D39*
X196423Y146986D02*
D03*
X197407Y148954D02*
D03*
X198391Y146986D02*
D03*
D40*
X178769Y157139D02*
D03*
D41*
X178421Y159109D02*
D03*
X183613Y157993D02*
D03*
X183266Y159963D02*
D03*
X189067Y158732D02*
D03*
X192179Y154429D02*
D03*
X193239Y156125D02*
D03*
X170027Y151735D02*
D03*
X174537Y15454D02*
D03*
X172919Y155715D02*
D03*
D42*
X188007Y157036D02*
D03*
D43*
X171645Y15056D02*
D03*
D44*
X188497Y133404D02*
D03*
X181427Y152644D02*
D03*
D45*
X18055Y129811D02*
D03*
Y131189D02*
D03*
X177027Y136897D02*
D03*
Y135519D02*
D03*
X175033Y134333D02*
D03*
X174059Y133359D02*
D03*
X177789Y132266D02*
D03*
X176814Y131292D02*
D03*
X184093Y129522D02*
D03*
Y1309D02*
D03*
D46*
X194254Y136996D02*
D03*
D47*
X191254D02*
D03*
D48*
X187046Y149535D02*
D03*
X191435Y150185D02*
D03*
X187715Y148954D02*
D03*
X191435Y151681D02*
D03*
X190806Y151464D02*
D03*
Y152842D02*
D03*
X19177Y149417D02*
D03*
X190673Y151051D02*
D03*
X192065Y151681D02*
D03*
X194192Y152744D02*
D03*
X194646Y153039D02*
D03*
X187407Y14926D02*
D03*
X19175Y14989D02*
D03*
X192459Y150106D02*
D03*
X19364D02*
D03*
X196744D02*
D03*
X194047Y150421D02*
D03*
Y151051D02*
D03*
X19018Y150421D02*
D03*
X188817Y151267D02*
D03*
X189231Y154023D02*
D03*
X186809Y152567D02*
D03*
X187105Y152153D02*
D03*
X189703Y152134D02*
D03*
X189802Y157106D02*
D03*
X198857Y145446D02*
D03*
X191475Y154006D02*
D03*
X190491Y153138D02*
D03*
X193739Y154016D02*
D03*
X191121Y148315D02*
D03*
X19175Y152842D02*
D03*
X199546Y14476D02*
D03*
X199152Y143435D02*
D03*
X197625Y145854D02*
D03*
X196332Y140839D02*
D03*
X172477Y147937D02*
D03*
Y148437D02*
D03*
Y147437D02*
D03*
Y146937D02*
D03*
Y146437D02*
D03*
Y145937D02*
D03*
Y145437D02*
D03*
Y144937D02*
D03*
X188827Y147519D02*
D03*
X189471Y146937D02*
D03*
X191113Y146986D02*
D03*
X191841Y15347D02*
D03*
X192237Y153596D02*
D03*
X192613Y153799D02*
D03*
D49*
X195589Y143197D02*
D03*
M02*
