G04 Layer_Color=128*
%FSTAX24Y24*%
%MOIN*%
G70*
G01*
G75*
%ADD36C,0.0020*%
D36*
X058744Y040354D02*
X059138D01*
X058941Y040157D02*
Y040551D01*
X057744Y040354D02*
X058138D01*
X057941Y040157D02*
Y040551D01*
X059744Y040354D02*
X060138D01*
X059941Y040157D02*
Y040551D01*
X060744Y040354D02*
X061138D01*
X060941Y040157D02*
Y040551D01*
X061744Y040354D02*
X062138D01*
X061941Y040157D02*
Y040551D01*
X051575Y034154D02*
X053346D01*
X052461Y033268D02*
Y035039D01*
X066535Y034154D02*
X068307D01*
X067421Y033268D02*
Y035039D01*
X060338Y038697D02*
X060456D01*
X060397Y038638D02*
Y038756D01*
X063318Y038719D02*
X063436D01*
X063377Y03866D02*
Y038778D01*
X058081Y038555D02*
X0582D01*
X058141Y038496D02*
Y038614D01*
X067264Y040157D02*
X067382D01*
X067323Y040098D02*
Y040217D01*
X067264Y038976D02*
X067382D01*
X067323Y038917D02*
Y039035D01*
X067264Y037795D02*
X067382D01*
X067323Y037736D02*
Y037854D01*
X067264Y036614D02*
X067382D01*
X067323Y036555D02*
Y036673D01*
X067264Y035433D02*
X067382D01*
X067323Y035374D02*
Y035492D01*
X066083Y038976D02*
X066201D01*
X066142Y038917D02*
Y039035D01*
X066083Y036614D02*
X066201D01*
X066142Y036555D02*
Y036673D01*
X062539Y036614D02*
X062657D01*
X062598Y036555D02*
Y036673D01*
X060177Y035433D02*
X060295D01*
X060236Y035374D02*
Y035492D01*
X057815Y036614D02*
X057933D01*
X057874Y036555D02*
Y036673D01*
X055453Y040157D02*
X055571D01*
X055512Y040098D02*
Y040217D01*
X054272Y040157D02*
X05439D01*
X054331Y040098D02*
Y040217D01*
X054272Y038976D02*
X05439D01*
X054331Y038917D02*
Y039035D01*
X053091Y040157D02*
X053209D01*
X05315Y040098D02*
Y040217D01*
X053091Y038976D02*
X053209D01*
X05315Y038917D02*
Y039035D01*
X053091Y035433D02*
X053209D01*
X05315Y035374D02*
Y035492D01*
X051909Y040157D02*
X052028D01*
X051968Y040098D02*
Y040217D01*
X051909Y038976D02*
X052028D01*
X051968Y038917D02*
Y039035D01*
X051909Y037795D02*
X052028D01*
X051968Y037736D02*
Y037854D01*
X051909Y036614D02*
X052028D01*
X051968Y036555D02*
Y036673D01*
X051909Y035433D02*
X052028D01*
X051968Y035374D02*
Y035492D01*
X060039Y037638D02*
X060236D01*
X060138Y037539D02*
Y037736D01*
X059547Y037638D02*
X059744D01*
X059646Y037539D02*
Y037736D01*
X057146Y037638D02*
X057264D01*
X057205Y037579D02*
Y037697D01*
X056646Y035433D02*
X056764D01*
X056705Y035374D02*
Y035492D01*
X056535Y034646D02*
X056654D01*
X056594Y034587D02*
Y034705D01*
X056146Y036348D02*
X056264D01*
X056205Y036289D02*
Y036407D01*
X055646Y037218D02*
X055764D01*
X055705Y037159D02*
Y037278D01*
X063543Y037205D02*
X063661D01*
X063602Y037146D02*
Y037264D01*
X054646Y036348D02*
X054764D01*
X054705Y036289D02*
Y036407D01*
X055146Y036348D02*
X055264D01*
X055205Y036289D02*
Y036407D01*
X055646Y036348D02*
X055764D01*
X055705Y036289D02*
Y036407D01*
X054146Y037638D02*
X054264D01*
X054205Y037579D02*
Y037697D01*
X065043Y036417D02*
X065161D01*
X065102Y036358D02*
Y036476D01*
X064043Y036392D02*
X064161D01*
X064102Y036333D02*
Y036451D01*
X060882Y03563D02*
X061D01*
X060941Y035571D02*
Y035689D01*
X066043Y037638D02*
X066161D01*
X066102Y037579D02*
Y037697D01*
X063043Y037638D02*
X063161D01*
X063102Y037579D02*
Y037697D01*
X056646Y03878D02*
X056764D01*
X056705Y03872D02*
Y038839D01*
X065543Y038878D02*
X065661D01*
X065602Y038819D02*
Y038937D01*
X064543Y035039D02*
X064661D01*
X064602Y03498D02*
Y035098D01*
X065591Y034744D02*
X065709D01*
X06565Y034685D02*
Y034803D01*
X064219Y035335D02*
X064337D01*
X064278Y035276D02*
Y035394D01*
X063543Y034744D02*
X063661D01*
X063602Y034685D02*
Y034803D01*
M02*
