M48
;Layer_Color=9474304
;FILE_FORMAT=2:4
INCH,LZ
;TYPE=PLATED
T1F00S00C0.0118
T2F00S00C0.0197
T3F00S00C0.0394
T4F00S00C0.1772
%
T01
X051968Y035433
X05315
X051968Y036614
Y037795
Y038976
X05315
X054331
Y040157
X055512
X05315
X051968
X054205Y037638
X054705Y036348
X055205
X055705
X056205
X055705Y037218
X057205Y037638
X056705Y03878
X058141Y038555
X057874Y036614
X056705Y035433
X056594Y034646
X060236Y035433
X060941Y03563
X060397Y038697
X063377Y038719
X063102Y037638
X063602Y037205
X064102Y036392
X065102Y036417
X066142Y036614
X066102Y037638
X067323Y037795
Y038976
Y040157
X066142Y038976
X065602Y038878
X067323Y036614
Y035433
X06565Y034744
X064602Y035039
X064278Y035335
X063602Y034744
X062598Y036614
T02
X059646Y037638
X060138
T03
X057941Y040354
X058941
X059941
X060941
X061941
T04
X052461Y034154
X067421
M30
