G04 Layer_Physical_Order=1*
G04 Layer_Color=255*
%FSTAX24Y24*%
%MOIN*%
G70*
G01*
G75*
%ADD10R,0.0689X0.0394*%
%ADD11R,0.0551X0.0453*%
%ADD12O,0.0236X0.0591*%
%ADD13R,0.0315X0.1575*%
%ADD14R,0.0354X0.0532*%
%ADD15C,0.0118*%
%ADD16C,0.0276*%
%ADD17C,0.0197*%
%ADD18C,0.0394*%
%ADD19C,0.0315*%
%ADD20C,0.0650*%
%ADD21C,0.1772*%
%ADD22C,0.0236*%
%ADD23C,0.0315*%
G36*
X063844Y038771D02*
Y03864D01*
X063794Y038615D01*
X063761Y038641D01*
X063685Y038672D01*
X063602Y038683D01*
X06352Y038672D01*
X063444Y038641D01*
X063378Y03859D01*
X063377Y03859D01*
X063327D01*
X063327Y03859D01*
X063261Y038641D01*
X063185Y038672D01*
X063102Y038683D01*
X06302Y038672D01*
X062944Y038641D01*
X062878Y03859D01*
X062827Y038524D01*
X062796Y038448D01*
X062785Y038366D01*
Y038011D01*
X06279Y037973D01*
X062757Y037936D01*
X061929D01*
Y038031D01*
X060967D01*
X060941Y038035D01*
X058941D01*
X058915Y038031D01*
X058218D01*
Y037936D01*
X05805D01*
X058017Y037973D01*
X058022Y038011D01*
Y038366D01*
X058012Y038448D01*
X05798Y038524D01*
X057963Y038547D01*
Y038736D01*
X058119Y038891D01*
X063724D01*
X063844Y038771D01*
D02*
G37*
G36*
X06877Y035138D02*
X065872D01*
X065839Y035188D01*
X065852Y035219D01*
X06586Y035285D01*
Y035376D01*
X06591Y0354D01*
X065944Y035375D01*
X06602Y035343D01*
X066102Y035332D01*
X066185Y035343D01*
X066261Y035375D01*
X066327Y035425D01*
X066377Y035491D01*
X066409Y035568D01*
X06642Y03565D01*
Y036004D01*
X066409Y036087D01*
X066377Y036163D01*
X066327Y036229D01*
X066261Y03628D01*
X066185Y036311D01*
X066102Y036322D01*
X06602Y036311D01*
X065944Y03628D01*
X065878Y036229D01*
X065877Y036229D01*
X065827D01*
X065827Y036229D01*
X065761Y03628D01*
X065685Y036311D01*
X065602Y036322D01*
X06552Y036311D01*
X065444Y03628D01*
X065439Y036276D01*
X065398Y036307D01*
X065409Y036335D01*
X06542Y036417D01*
X065409Y0365D01*
X065377Y036576D01*
X065327Y036642D01*
X065261Y036692D01*
X065185Y036724D01*
X065102Y036735D01*
X06502Y036724D01*
X064944Y036692D01*
X064878Y036642D01*
X064827Y036576D01*
X064796Y0365D01*
X064785Y036417D01*
X064796Y036335D01*
X064807Y036307D01*
X064766Y036276D01*
X064761Y03628D01*
X064685Y036311D01*
X064602Y036322D01*
X06452Y036311D01*
X064452Y036283D01*
X064425Y0363D01*
X06441Y036317D01*
X06442Y036392D01*
X064409Y036475D01*
X064377Y036551D01*
X064327Y036617D01*
X064261Y036668D01*
X064185Y036699D01*
X064102Y03671D01*
X06402Y036699D01*
X063944Y036668D01*
X063878Y036617D01*
X063827Y036551D01*
X063796Y036475D01*
X063785Y036392D01*
X063795Y036317D01*
X06378Y0363D01*
X063753Y036283D01*
X063685Y036311D01*
X063602Y036322D01*
X06352Y036311D01*
X063444Y03628D01*
X063378Y036229D01*
X063377Y036229D01*
X063327D01*
X063327Y036229D01*
X063261Y03628D01*
X063185Y036311D01*
X063102Y036322D01*
X06302Y036311D01*
X062944Y03628D01*
X062878Y036229D01*
X062827Y036163D01*
X062796Y036087D01*
X062785Y036004D01*
Y03565D01*
X062796Y035568D01*
X062827Y035491D01*
X062844Y035469D01*
Y035138D01*
X059808D01*
X059789Y035184D01*
X060093Y035488D01*
X060136Y035553D01*
X060141Y035576D01*
X060189Y035591D01*
X060488Y035291D01*
X060553Y035248D01*
X06063Y035232D01*
X061417D01*
X061494Y035248D01*
X061559Y035291D01*
X061845Y035577D01*
X061888Y035642D01*
X061903Y035719D01*
Y035984D01*
X061929D01*
Y036772D01*
X058218D01*
Y035984D01*
X058244D01*
Y035595D01*
X058026Y035377D01*
X057444D01*
X057433Y035409D01*
X05743Y035427D01*
X05748Y035491D01*
X057512Y035568D01*
X057522Y03565D01*
Y036004D01*
X057512Y036087D01*
X05748Y036163D01*
X057429Y036229D01*
X057364Y03628D01*
X057287Y036311D01*
X057205Y036322D01*
X057123Y036311D01*
X057046Y03628D01*
X05698Y036229D01*
X05698Y036229D01*
X05693D01*
X056929Y036229D01*
X056864Y03628D01*
X056787Y036311D01*
X056705Y036322D01*
X056623Y036311D01*
X056565Y036287D01*
X056522Y036315D01*
X056519Y03632D01*
X056522Y036348D01*
X056512Y036431D01*
X05648Y036507D01*
X056429Y036573D01*
X056364Y036624D01*
X056287Y036655D01*
X056205Y036666D01*
X056122Y036655D01*
X056046Y036624D01*
X05598Y036573D01*
X05598Y036573D01*
X05593D01*
X055929Y036573D01*
X055864Y036624D01*
X055787Y036655D01*
X055705Y036666D01*
X055623Y036655D01*
X055546Y036624D01*
X055488Y036579D01*
X055458Y036573D01*
X055451D01*
X055422Y036579D01*
X055364Y036624D01*
X055287Y036655D01*
X055205Y036666D01*
X055122Y036655D01*
X055046Y036624D01*
X05498Y036573D01*
X05498Y036573D01*
X05493D01*
X054929Y036573D01*
X054864Y036624D01*
X054787Y036655D01*
X054705Y036666D01*
X054623Y036655D01*
X054546Y036624D01*
X05448Y036573D01*
X05443Y036507D01*
X054398Y036431D01*
X054387Y036348D01*
X054391Y03632D01*
X054387Y036315D01*
X054345Y036287D01*
X054287Y036311D01*
X054205Y036322D01*
X054147Y036314D01*
X054097Y03635D01*
Y036429D01*
X054887Y037219D01*
X054928Y037273D01*
X054954Y037335D01*
X054963Y037402D01*
Y037737D01*
X055013Y037762D01*
X055046Y037736D01*
X055122Y037704D01*
X055205Y037694D01*
X055287Y037704D01*
X055364Y037736D01*
X055429Y037787D01*
X05548Y037852D01*
X055512Y037929D01*
X055522Y038011D01*
Y038366D01*
X055512Y038448D01*
X05548Y038524D01*
X055463Y038547D01*
Y039153D01*
X055717Y039407D01*
X056103D01*
X056122Y039361D01*
X056022Y039261D01*
X055981Y039208D01*
X055955Y039146D01*
X055947Y039079D01*
Y038547D01*
X05593Y038524D01*
X055898Y038448D01*
X055887Y038366D01*
Y038011D01*
X055898Y037929D01*
X05593Y037852D01*
X05598Y037787D01*
X056046Y037736D01*
X056122Y037704D01*
X056205Y037694D01*
X056287Y037704D01*
X056364Y037736D01*
X056429Y037787D01*
X05643Y037787D01*
X05648D01*
X05648Y037787D01*
X056546Y037736D01*
X056623Y037704D01*
X056705Y037694D01*
X056787Y037704D01*
X056851Y037731D01*
X056885Y03771D01*
X056895Y037697D01*
X056887Y037638D01*
X056898Y037556D01*
X05693Y037479D01*
X05698Y037413D01*
X057046Y037363D01*
X057123Y037331D01*
X057205Y03732D01*
X057287Y037331D01*
X057309Y03734D01*
X058218D01*
Y037244D01*
X058915D01*
X058941Y037241D01*
X060941D01*
X060967Y037244D01*
X061732D01*
Y036949D01*
X062677D01*
Y03734D01*
X062998D01*
X06302Y037331D01*
X063102Y03732D01*
X063185Y037331D01*
X063261Y037363D01*
X063278Y037376D01*
X063319Y037344D01*
X063296Y037287D01*
X063285Y037205D01*
X063296Y037122D01*
X063327Y037046D01*
X063378Y03698D01*
X063444Y03693D01*
X06352Y036898D01*
X063602Y036887D01*
X063685Y036898D01*
X063761Y03693D01*
X063827Y03698D01*
X063877Y037046D01*
X063909Y037122D01*
X06392Y037205D01*
X063909Y037287D01*
X063877Y037364D01*
X06386Y037386D01*
Y037737D01*
X06391Y037762D01*
X063944Y037736D01*
X06402Y037704D01*
X064102Y037694D01*
X064185Y037704D01*
X064261Y037736D01*
X064327Y037787D01*
X064377Y037852D01*
X064409Y037929D01*
X06442Y038011D01*
Y038366D01*
X064409Y038448D01*
X064377Y038524D01*
X06436Y038547D01*
Y038878D01*
X064352Y038945D01*
X064326Y039007D01*
X064285Y03906D01*
X064013Y039332D01*
X06396Y039373D01*
X063898Y039399D01*
X063831Y039408D01*
X061425D01*
X061406Y039454D01*
X0618Y039848D01*
X061805Y039846D01*
X061941Y039828D01*
X062077Y039846D01*
X062204Y039898D01*
X062313Y039982D01*
X062397Y040091D01*
X062399Y040096D01*
X065016D01*
X065035Y04005D01*
X06492Y039934D01*
X064879Y039881D01*
X064853Y039819D01*
X064844Y039752D01*
Y038547D01*
X064827Y038524D01*
X064796Y038448D01*
X064785Y038366D01*
Y038011D01*
X064796Y037929D01*
X064827Y037852D01*
X064878Y037787D01*
X064944Y037736D01*
X06502Y037704D01*
X065102Y037694D01*
X065185Y037704D01*
X065261Y037736D01*
X065327Y037787D01*
X065327Y037787D01*
X065377D01*
X065378Y037787D01*
X065444Y037736D01*
X06552Y037704D01*
X065602Y037694D01*
X065685Y037704D01*
X065748Y037731D01*
X065783Y03771D01*
X065793Y037697D01*
X065785Y037638D01*
X065796Y037556D01*
X065827Y037479D01*
X065878Y037413D01*
X065944Y037363D01*
X06602Y037331D01*
X066102Y03732D01*
X066185Y037331D01*
X066261Y037363D01*
X066327Y037413D01*
X066377Y037479D01*
X066409Y037556D01*
X06642Y037638D01*
X066412Y037697D01*
X066422Y03771D01*
X066456Y037731D01*
X06652Y037704D01*
X066602Y037694D01*
X066685Y037704D01*
X066761Y037736D01*
X066827Y037787D01*
X066877Y037852D01*
X066909Y037929D01*
X06692Y038011D01*
Y038366D01*
X066909Y038448D01*
X066877Y038524D01*
X066827Y03859D01*
X066761Y038641D01*
X066685Y038672D01*
X066602Y038683D01*
X06652Y038672D01*
X066444Y038641D01*
X066385Y038596D01*
X066356Y03859D01*
X066349D01*
X066319Y038596D01*
X066261Y038641D01*
X066185Y038672D01*
X066102Y038683D01*
X06602Y038672D01*
X065944Y038641D01*
X06591Y038615D01*
X06586Y03864D01*
Y038697D01*
X065877Y038719D01*
X065909Y038796D01*
X06592Y038878D01*
X06591Y038956D01*
X065912Y038971D01*
X065935Y039006D01*
X065976D01*
Y039892D01*
Y040817D01*
X065228D01*
Y040612D01*
X062399D01*
X062397Y040618D01*
X062313Y040727D01*
X062204Y04081D01*
X062077Y040863D01*
X061941Y040881D01*
X061805Y040863D01*
X061678Y04081D01*
X061569Y040727D01*
X061485Y040618D01*
X061466Y040571D01*
X061416D01*
X061397Y040618D01*
X061313Y040727D01*
X061204Y04081D01*
X061077Y040863D01*
X060941Y040881D01*
X060805Y040863D01*
X060678Y04081D01*
X060569Y040727D01*
X060485Y040618D01*
X060466Y040571D01*
X060416D01*
X060397Y040618D01*
X060313Y040727D01*
X060204Y04081D01*
X060077Y040863D01*
X059941Y040881D01*
X059805Y040863D01*
X059678Y04081D01*
X059569Y040727D01*
X059485Y040618D01*
X059466Y040571D01*
X059416D01*
X059397Y040618D01*
X059313Y040727D01*
X059204Y04081D01*
X059077Y040863D01*
X058941Y040881D01*
X058805Y040863D01*
X058678Y04081D01*
X058569Y040727D01*
X058485Y040618D01*
X058433Y040491D01*
X058415Y040354D01*
X058433Y040218D01*
X058485Y040091D01*
X058569Y039982D01*
X058584Y039971D01*
X058567Y039923D01*
X05561D01*
X055543Y039915D01*
X055481Y039889D01*
X055428Y039848D01*
X055022Y039442D01*
X054981Y039389D01*
X054955Y039327D01*
X054947Y03926D01*
Y03864D01*
X054897Y038615D01*
X054864Y038641D01*
X054787Y038672D01*
X054705Y038683D01*
X054623Y038672D01*
X054546Y038641D01*
X05448Y03859D01*
X05448Y03859D01*
X05443D01*
X054429Y03859D01*
X054364Y038641D01*
X054287Y038672D01*
X054205Y038683D01*
X054123Y038672D01*
X054046Y038641D01*
X05398Y03859D01*
X05393Y038524D01*
X053898Y038448D01*
X053887Y038366D01*
Y038011D01*
X053898Y037929D01*
X053907Y037907D01*
Y037761D01*
X053816Y03767D01*
X05372D01*
Y037795D01*
X052776D01*
Y036949D01*
X05372D01*
Y037074D01*
X053939D01*
X053942Y037075D01*
X053965Y037027D01*
X053656Y036718D01*
X053615Y036664D01*
X053589Y036602D01*
X05358Y036535D01*
Y035138D01*
X051112D01*
Y041112D01*
X06877D01*
Y035138D01*
D02*
G37*
G36*
X061703Y035719D02*
X061417Y035433D01*
X06063D01*
X060197Y035866D01*
Y036516D01*
X061703D01*
Y035719D01*
D02*
G37*
G36*
X059951Y03563D02*
X059209Y034888D01*
X058661D01*
X058609Y034941D01*
X058071D01*
X057972Y035039D01*
X058445Y035512D01*
Y036516D01*
X059951D01*
Y03563D01*
D02*
G37*
D10*
X060512Y036378D02*
D03*
Y037638D02*
D03*
X059636Y036378D02*
D03*
Y037638D02*
D03*
X061388Y036378D02*
D03*
Y037638D02*
D03*
X05876Y036378D02*
D03*
Y037638D02*
D03*
D11*
X053248Y037372D02*
D03*
Y036644D02*
D03*
X062205Y037372D02*
D03*
Y036644D02*
D03*
D12*
X063102Y035827D02*
D03*
X063602D02*
D03*
X064102D02*
D03*
X064602D02*
D03*
X065102D02*
D03*
X065602D02*
D03*
X066102D02*
D03*
X066602D02*
D03*
Y038188D02*
D03*
X066102D02*
D03*
X065602D02*
D03*
X065102D02*
D03*
X064602D02*
D03*
X064102D02*
D03*
X063602D02*
D03*
X063102D02*
D03*
X054205Y035827D02*
D03*
X054705D02*
D03*
X055205D02*
D03*
X055705D02*
D03*
X056205D02*
D03*
X056705D02*
D03*
X057205D02*
D03*
X057705D02*
D03*
Y038188D02*
D03*
X057205D02*
D03*
X056705D02*
D03*
X056205D02*
D03*
X055705D02*
D03*
X055205D02*
D03*
X054705D02*
D03*
X054205D02*
D03*
D13*
X063602Y033661D02*
D03*
X064127D02*
D03*
X064652D02*
D03*
X065177D02*
D03*
X054705D02*
D03*
X05523D02*
D03*
X055755D02*
D03*
X05628D02*
D03*
D14*
X065602Y040354D02*
D03*
X066429D02*
D03*
X065602Y039469D02*
D03*
X066429D02*
D03*
D15*
X058195Y037008D02*
X061309D01*
X056705Y035433D02*
Y035827D01*
X05628Y034331D02*
X056594Y034646D01*
X05628Y033661D02*
Y034331D01*
X066602Y036449D02*
X067157D01*
X067717Y037008D01*
Y039075D01*
X067323Y039469D02*
X067717Y039075D01*
X066429Y039469D02*
X067323D01*
X066429D02*
Y040354D01*
X064136Y036811D02*
X064602Y037278D01*
X062697Y036811D02*
X064136D01*
X06253Y036644D02*
X062697Y036811D01*
X063602Y037205D02*
Y038188D01*
X052608Y036644D02*
X053248D01*
X052165Y037087D02*
X052608Y036644D01*
X052165Y037087D02*
Y039862D01*
X052657Y040354D01*
X057941D01*
X064102Y038188D02*
Y038878D01*
X058012Y03915D02*
X063831D01*
X057705Y038188D02*
Y038843D01*
X063831Y03915D02*
X064102Y038878D01*
X057705Y038843D02*
X058012Y03915D01*
X064127Y033661D02*
Y035184D01*
X063102Y034732D02*
Y035827D01*
X065177Y033661D02*
Y034272D01*
X065102Y035827D02*
Y036417D01*
X065602Y035285D02*
Y035827D01*
X064652Y033661D02*
Y034335D01*
X064102Y035827D02*
Y036392D01*
X054205Y035264D02*
Y035827D01*
Y035264D02*
X054429Y035039D01*
X055008D01*
X05523Y034818D01*
Y033661D02*
Y034818D01*
X054705Y033661D02*
Y034272D01*
X053839Y035138D02*
Y036535D01*
Y035138D02*
X054705Y034272D01*
X053839Y036535D02*
X054705Y037402D01*
Y038188D01*
X055705Y037218D02*
Y038188D01*
Y037218D02*
X056014Y036909D01*
X057313D01*
X057705Y036518D01*
Y035827D02*
Y036518D01*
X058195Y037008D01*
X064602Y037278D02*
Y038188D01*
Y037278D02*
X06506Y03682D01*
X066231D01*
X066602Y036449D01*
Y035827D02*
Y036449D01*
X063602Y033661D02*
Y03436D01*
X065102Y038188D02*
Y039752D01*
X065602Y040252D01*
X061941Y040354D02*
X065602D01*
Y040252D02*
Y040354D01*
X055205Y038188D02*
Y03926D01*
X05561Y039665D01*
X059252D01*
X059941Y040354D01*
X056205Y038188D02*
Y039079D01*
X056496Y03937D01*
X060957D01*
X061941Y040354D01*
X056705Y038188D02*
Y03878D01*
X065602Y038188D02*
Y038878D01*
Y039469D01*
X064602Y035039D02*
Y035827D01*
X064652Y034335D02*
X065602Y035285D01*
X065177Y034272D02*
X06565Y034744D01*
X064127Y035184D02*
X064278Y035335D01*
X063602Y034744D02*
Y035827D01*
X063102Y034732D02*
X063583Y034252D01*
Y034154D02*
Y034252D01*
D16*
X059198Y035257D02*
Y036378D01*
X056014Y035039D02*
X05898D01*
X059198Y035257D01*
X055755Y03478D02*
X056014Y035039D01*
X055755Y033661D02*
Y03478D01*
D17*
X060941Y037638D02*
X063102D01*
X056205Y035827D02*
Y036348D01*
X053248Y037372D02*
X053939D01*
X054205Y037638D01*
X055705Y035827D02*
Y036348D01*
Y035827D02*
X055709Y035831D01*
X055205Y035827D02*
Y036348D01*
X054705Y035827D02*
Y036348D01*
X054205Y037638D02*
Y038188D01*
X057205Y037638D02*
X058941D01*
X057205D02*
Y038188D01*
X066102Y037638D02*
Y038188D01*
X063102Y037638D02*
Y038188D01*
D18*
X058941Y037638D02*
X060941D01*
D19*
Y03563D02*
Y036319D01*
D20*
X058941Y040354D02*
D03*
X057941D02*
D03*
X059941D02*
D03*
X060941D02*
D03*
X061941D02*
D03*
D21*
X052461Y034154D02*
D03*
X067421D02*
D03*
D22*
X060397Y038697D02*
D03*
X063377Y038719D02*
D03*
X058141Y038555D02*
D03*
X067323Y040157D02*
D03*
Y038976D02*
D03*
Y037795D02*
D03*
Y036614D02*
D03*
Y035433D02*
D03*
X066142Y038976D02*
D03*
Y036614D02*
D03*
X062598D02*
D03*
X060236Y035433D02*
D03*
X057874Y036614D02*
D03*
X055512Y040157D02*
D03*
X054331D02*
D03*
Y038976D02*
D03*
X05315Y040157D02*
D03*
Y038976D02*
D03*
Y035433D02*
D03*
X051968Y040157D02*
D03*
Y038976D02*
D03*
Y037795D02*
D03*
Y036614D02*
D03*
Y035433D02*
D03*
X057205Y037638D02*
D03*
X056705Y035433D02*
D03*
X056594Y034646D02*
D03*
X056205Y036348D02*
D03*
X055705Y037218D02*
D03*
X063602Y037205D02*
D03*
X054705Y036348D02*
D03*
X055205D02*
D03*
X055705D02*
D03*
X054205Y037638D02*
D03*
X065102Y036417D02*
D03*
X064102Y036392D02*
D03*
X060941Y03563D02*
D03*
X066102Y037638D02*
D03*
X063102D02*
D03*
X056705Y03878D02*
D03*
X065602Y038878D02*
D03*
X064602Y035039D02*
D03*
X06565Y034744D02*
D03*
X064278Y035335D02*
D03*
X063602Y034744D02*
D03*
D23*
X060138Y037638D02*
D03*
X059646D02*
D03*
M02*
