G04 Layer_Color=32768*
%FSTAX24Y24*%
%MOIN*%
G70*
G01*
G75*
%ADD35C,0.0039*%
D35*
X060118Y036142D02*
X060906D01*
X060118Y037874D02*
X060906D01*
X060118Y036142D02*
Y037874D01*
X060906Y036142D02*
Y037874D01*
X060512Y036811D02*
Y037205D01*
X060315Y037008D02*
X060709D01*
X059242Y036142D02*
X06003D01*
X059242Y037874D02*
X06003D01*
X059242Y036142D02*
Y037874D01*
X06003Y036142D02*
Y037874D01*
X059636Y036811D02*
Y037205D01*
X059439Y037008D02*
X059833D01*
X052913Y037648D02*
X053583D01*
X052913Y036368D02*
X053583D01*
Y037648D01*
X052913Y036368D02*
Y037648D01*
X053248Y036811D02*
Y037205D01*
X053051Y037008D02*
X053445D01*
X06187Y037648D02*
X062539D01*
X06187Y036368D02*
X062539D01*
Y037648D01*
X06187Y036368D02*
Y037648D01*
X062205Y036811D02*
Y037205D01*
X062008Y037008D02*
X062402D01*
X060994Y036142D02*
X061782D01*
X060994Y037874D02*
X061782D01*
X060994Y036142D02*
Y037874D01*
X061782Y036142D02*
Y037874D01*
X061388Y036811D02*
Y037205D01*
X061191Y037008D02*
X061585D01*
X058366Y036142D02*
X059154D01*
X058366Y037874D02*
X059154D01*
X058366Y036142D02*
Y037874D01*
X059154Y036142D02*
Y037874D01*
X05876Y036811D02*
Y037205D01*
X058563Y037008D02*
X058957D01*
X065386Y040035D02*
Y040673D01*
X066646Y040035D02*
Y040673D01*
X065386D02*
X066646D01*
X065386Y040035D02*
X066646D01*
X065819Y040354D02*
X066213D01*
X066016Y040157D02*
Y040551D01*
X065386Y03915D02*
Y039787D01*
X066646Y03915D02*
Y039787D01*
X065386D02*
X066646D01*
X065386Y03915D02*
X066646D01*
X065819Y039469D02*
X066213D01*
X066016Y039272D02*
Y039665D01*
M02*
