G04 Layer_Color=16711935*
%FSTAX24Y24*%
%MOIN*%
G70*
G01*
G75*
%ADD17C,0.2049*%
%ADD18O,0.0867X0.0671*%
%ADD19C,0.0671*%
%ADD20R,0.0671X0.0671*%
G36*
X031627Y030522D02*
X031636Y030521D01*
X031642D01*
X031649Y03052D01*
X031654Y030519D01*
X031657Y030518D01*
X031658D01*
X031674Y030514D01*
X031681Y030512D01*
X031687Y03051D01*
X031692Y030509D01*
X031696Y030507D01*
X031699Y030506D01*
X0317D01*
X031713Y030502D01*
X031723Y030497D01*
X031727Y030495D01*
X03173Y030493D01*
X031732Y030492D01*
X031733D01*
X03174Y030487D01*
X031746Y030483D01*
X03175Y030481D01*
X031751Y03048D01*
X031754Y030477D01*
X031756Y030475D01*
X031758Y030473D01*
Y030472D01*
X03176Y030467D01*
X03176Y030465D01*
Y030464D01*
X031761Y030457D01*
X031762Y030454D01*
Y030453D01*
Y030449D01*
Y030444D01*
Y03044D01*
Y030438D01*
Y030428D01*
X031761Y030422D01*
Y030417D01*
Y030415D01*
X03176Y030409D01*
Y030404D01*
X03176Y030402D01*
Y030401D01*
X031758Y030397D01*
X031757Y030395D01*
X031756Y030393D01*
X031751Y030391D01*
X031749D01*
X031745Y030392D01*
X03174Y030394D01*
X031736Y030396D01*
X031735Y030397D01*
X031728Y030402D01*
X03172Y030405D01*
X031714Y030408D01*
X031713Y030409D01*
X031712D01*
X031701Y030415D01*
X031691Y030419D01*
X031686Y030421D01*
X031684Y030422D01*
X031682Y030423D01*
X031681D01*
X031666Y030427D01*
X031653Y030428D01*
X031648Y030429D01*
X031639D01*
X031628Y030428D01*
X031618Y030427D01*
X031612Y030425D01*
X031612Y030424D01*
X031611D01*
X031602Y03042D01*
X031596Y030415D01*
X031591Y030412D01*
X03159Y03041D01*
X031585Y030403D01*
X031581Y030397D01*
X031579Y030392D01*
X031578Y030391D01*
Y03039D01*
X031575Y030381D01*
X031574Y030374D01*
X031573Y030367D01*
Y030366D01*
Y030365D01*
X031574Y030354D01*
X031575Y030345D01*
X031576Y030341D01*
Y030338D01*
X031577Y030336D01*
Y030335D01*
X03158Y030324D01*
X031585Y030312D01*
X031587Y030307D01*
X031587Y030304D01*
X031589Y030302D01*
Y030301D01*
X031597Y030286D01*
X031605Y030273D01*
X031609Y030268D01*
X031612Y030263D01*
X031613Y03026D01*
X031614Y030259D01*
X031621Y030251D01*
X031628Y030242D01*
X031636Y030233D01*
X031642Y030226D01*
X031648Y030219D01*
X031653Y030214D01*
X031657Y03021D01*
X031658Y030209D01*
X031746Y030114D01*
X031751Y030108D01*
X031755Y030104D01*
X031758Y0301D01*
X031759Y030099D01*
X031761Y030094D01*
X031764Y030089D01*
X031766Y030085D01*
X031767Y030084D01*
X031769Y030079D01*
X03177Y030074D01*
X031771Y03007D01*
Y030068D01*
X031772Y030061D01*
Y030054D01*
Y030048D01*
Y030047D01*
Y030046D01*
Y030037D01*
X031771Y03003D01*
Y030026D01*
Y030024D01*
X031769Y030018D01*
X031767Y030014D01*
X031766Y030011D01*
X031765Y03001D01*
X031762Y030008D01*
X031759Y030007D01*
X031756Y030005D01*
X031755D01*
X03175Y030004D01*
X031446D01*
X031441Y030005D01*
X031439Y030006D01*
X031438Y030008D01*
X031436Y030009D01*
X031435Y030011D01*
Y030012D01*
X031434Y030017D01*
X031433Y030021D01*
X031432Y030025D01*
Y030026D01*
X031431Y030033D01*
X03143Y030038D01*
Y030043D01*
Y030045D01*
Y030053D01*
X031431Y030059D01*
X031432Y030063D01*
Y030064D01*
X031433Y030069D01*
X031434Y030074D01*
X031435Y030076D01*
X031436Y030077D01*
X031438Y030081D01*
X031439Y030083D01*
X03144Y030084D01*
X031441D01*
X031443Y030086D01*
X031446Y030087D01*
X031649D01*
X031589Y030148D01*
X031573Y030164D01*
X031559Y03018D01*
X031547Y030193D01*
X031537Y030205D01*
X031528Y030213D01*
X031522Y030221D01*
X031518Y030225D01*
X031517Y030227D01*
X031508Y030239D01*
X031499Y030251D01*
X031492Y030261D01*
X031486Y03027D01*
X031482Y030278D01*
X031478Y030283D01*
X031476Y030287D01*
X031475Y030288D01*
X031469Y030299D01*
X031465Y030308D01*
X031462Y030317D01*
X031459Y030325D01*
X031457Y030331D01*
X031456Y030336D01*
X031455Y030339D01*
Y03034D01*
X031452Y030358D01*
X031451Y030366D01*
Y030374D01*
X03145Y030379D01*
Y030385D01*
Y030388D01*
Y030389D01*
Y0304D01*
X031452Y030409D01*
X031453Y030418D01*
X031455Y030426D01*
X031457Y030432D01*
X031459Y030437D01*
X03146Y03044D01*
X031461Y030441D01*
X031464Y03045D01*
X031469Y030458D01*
X031474Y030466D01*
X031479Y030472D01*
X031484Y030477D01*
X031488Y030481D01*
X031489Y030483D01*
X03149Y030484D01*
X031498Y030491D01*
X031506Y030497D01*
X031522Y030505D01*
X031529Y030508D01*
X031535Y03051D01*
X031538Y030512D01*
X031539D01*
X031551Y030516D01*
X031562Y030518D01*
X031574Y03052D01*
X031586Y030522D01*
X031594D01*
X031602Y030523D01*
X031609D01*
X031627Y030522D01*
D02*
G37*
G36*
X032226Y030515D02*
X032231Y030514D01*
X032233D01*
X03224Y030513D01*
X032245Y030512D01*
X032248Y030511D01*
X032249D01*
X032252Y030509D01*
X032255Y030507D01*
X032256Y030506D01*
X032257Y030505D01*
X032259Y030501D01*
Y0305D01*
Y030499D01*
Y030018D01*
X032258Y030013D01*
X032257Y030011D01*
Y03001D01*
X032254Y030009D01*
X032252Y030007D01*
X03225Y030006D01*
X032249D01*
X032244Y030005D01*
X032239Y030004D01*
X032235Y030003D01*
X032233D01*
X032225Y030002D01*
X032197D01*
X032189Y030003D01*
X032182D01*
X032176Y030004D01*
X032171Y030005D01*
X032168Y030006D01*
X032167D01*
X032163Y030008D01*
X03216Y030009D01*
X032158Y03001D01*
X032156Y030013D01*
X032155Y030016D01*
Y030017D01*
Y030018D01*
Y030224D01*
X031965D01*
Y030018D01*
X031964Y030013D01*
X031963Y030011D01*
Y03001D01*
X03196Y030009D01*
X031957Y030007D01*
X031956Y030006D01*
X031955D01*
X03195Y030005D01*
X031945Y030004D01*
X031941Y030003D01*
X031939D01*
X031931Y030002D01*
X031904D01*
X031896Y030003D01*
X031889D01*
X031883Y030004D01*
X031877Y030005D01*
X031874Y030006D01*
X031873D01*
X031869Y030008D01*
X031866Y030009D01*
X031865Y03001D01*
X031864D01*
X031862Y030013D01*
X031861Y030016D01*
Y030017D01*
Y030018D01*
Y030499D01*
Y030502D01*
X031862Y030503D01*
X031863Y030505D01*
X031864D01*
X031867Y030508D01*
X03187Y03051D01*
X031872Y030511D01*
X031873D01*
X031878Y030512D01*
X031883Y030513D01*
X031887Y030514D01*
X031889D01*
X031897Y030515D01*
X031905Y030516D01*
X031924D01*
X031932Y030515D01*
X031937Y030514D01*
X031939D01*
X031946Y030513D01*
X031951Y030512D01*
X031954Y030511D01*
X031955D01*
X031958Y030509D01*
X031961Y030507D01*
X031962Y030506D01*
X031963Y030505D01*
X031965Y030501D01*
Y0305D01*
Y030499D01*
Y030312D01*
X032155D01*
Y030499D01*
Y030502D01*
X032156Y030503D01*
X032157Y030505D01*
X032158D01*
X03216Y030508D01*
X032163Y03051D01*
X032166Y030511D01*
X032167D01*
X032172Y030512D01*
X032177Y030513D01*
X03218Y030514D01*
X032182D01*
X03219Y030515D01*
X032199Y030516D01*
X032218D01*
X032226Y030515D01*
D02*
G37*
G36*
X030757Y030521D02*
X030773Y03052D01*
X030786Y030518D01*
X030798Y030515D01*
X030808Y030512D01*
X030816Y03051D01*
X03082Y030509D01*
X030822Y030508D01*
X030834Y030503D01*
X030845Y030498D01*
X030855Y030492D01*
X030864Y030487D01*
X030871Y030482D01*
X030875Y030478D01*
X030879Y030476D01*
X03088Y030475D01*
X030889Y030466D01*
X030897Y030458D01*
X030903Y03045D01*
X030909Y030442D01*
X030914Y030435D01*
X030917Y030429D01*
X030919Y030426D01*
X03092Y030425D01*
X03093Y030403D01*
X030934Y030393D01*
X030937Y030383D01*
X03094Y030376D01*
X030942Y03037D01*
X030944Y030366D01*
Y030364D01*
X030948Y030341D01*
X03095Y03033D01*
X030951Y030321D01*
X030953Y030312D01*
Y030306D01*
X030954Y030303D01*
Y030301D01*
X030956Y030278D01*
Y030267D01*
X030957Y030257D01*
Y03025D01*
Y030243D01*
Y030239D01*
Y030238D01*
Y030225D01*
Y030212D01*
X030956Y030201D01*
Y030191D01*
Y030182D01*
X030955Y030176D01*
Y030172D01*
Y03017D01*
X030954Y030158D01*
X030952Y030148D01*
X03095Y030137D01*
X030949Y030129D01*
X030947Y030122D01*
X030946Y030116D01*
X030946Y030112D01*
Y030111D01*
X030939Y030092D01*
X030936Y030084D01*
X030932Y030077D01*
X03093Y030071D01*
X030927Y030066D01*
X030926Y030063D01*
X030925Y030062D01*
X030915Y030048D01*
X03091Y030041D01*
X030905Y030036D01*
X0309Y030032D01*
X030897Y030029D01*
X030895Y030027D01*
X030894Y030026D01*
X030878Y030016D01*
X030864Y030009D01*
X030858Y030006D01*
X030852Y030005D01*
X030849Y030003D01*
X030848D01*
X030827Y029998D01*
X030817Y029997D01*
X030807Y029996D01*
X030798Y029995D01*
X030786D01*
X030771Y029996D01*
X030756Y029997D01*
X030743Y029999D01*
X030732Y030002D01*
X030723Y030005D01*
X030716Y030007D01*
X030712Y030008D01*
X03071Y030009D01*
X030698Y030014D01*
X030687Y03002D01*
X030677Y030026D01*
X030669Y030032D01*
X030662Y030037D01*
X030657Y030041D01*
X030654Y030044D01*
X030653Y030045D01*
X030646Y030055D01*
X030638Y030064D01*
X030632Y030074D01*
X030627Y030083D01*
X030624Y03009D01*
X030621Y030096D01*
X03062Y030101D01*
X030619Y030102D01*
X030615Y030114D01*
X030611Y030128D01*
X030609Y030139D01*
X030608Y030151D01*
X030607Y03016D01*
X030606Y030167D01*
Y030172D01*
Y030174D01*
Y030186D01*
X030607Y030198D01*
X030609Y030208D01*
X03061Y030217D01*
X030612Y030225D01*
X030614Y030231D01*
X030615Y030234D01*
Y030235D01*
X030619Y030245D01*
X030623Y030255D01*
X030626Y030262D01*
X030631Y030269D01*
X030635Y030275D01*
X030638Y030279D01*
X03064Y030281D01*
X030641Y030282D01*
X030648Y030289D01*
X030655Y030296D01*
X03067Y030305D01*
X030676Y030308D01*
X030681Y030311D01*
X030685Y030313D01*
X030686D01*
X030697Y030317D01*
X030707Y03032D01*
X030719Y030322D01*
X030728Y030324D01*
X030738D01*
X030745Y030325D01*
X030764D01*
X030774Y030324D01*
X030778Y030323D01*
X030781D01*
X030783Y030322D01*
X030784D01*
X030795Y03032D01*
X030804Y030317D01*
X030808Y030316D01*
X030811D01*
X030812Y030315D01*
X030813D01*
X030822Y030312D01*
X030829Y030309D01*
X030835Y030306D01*
X030836Y030305D01*
X030837D01*
X030845Y030302D01*
X030851Y030299D01*
X030855Y030296D01*
X030857Y030295D01*
X030855Y030316D01*
X030854Y030326D01*
X030853Y030334D01*
X030852Y030342D01*
X030851Y030347D01*
X03085Y030351D01*
Y030352D01*
X030845Y030371D01*
X030841Y030378D01*
X030838Y030385D01*
X030835Y030391D01*
X030832Y030395D01*
X030831Y030398D01*
X03083Y030399D01*
X030819Y030412D01*
X030807Y030422D01*
X030802Y030426D01*
X030798Y030428D01*
X030796Y030429D01*
X030795Y03043D01*
X030786Y030434D01*
X030777Y030438D01*
X030768Y03044D01*
X030759Y030441D01*
X030752Y030442D01*
X030746Y030443D01*
X030727D01*
X030717Y030442D01*
X030713Y030441D01*
X03071D01*
X030708Y03044D01*
X030707D01*
X030698Y030438D01*
X030689Y030436D01*
X030684Y030435D01*
X030682Y030434D01*
X030675Y030432D01*
X03067Y03043D01*
X030666Y030429D01*
X030665Y030428D01*
X03066Y030428D01*
X030655Y030427D01*
X030652D01*
X030648Y030428D01*
X030646Y030428D01*
X030643Y030432D01*
X030642Y030433D01*
Y030434D01*
X030641Y030438D01*
X03064Y030442D01*
X030639Y030446D01*
Y030447D01*
X030638Y030453D01*
Y03046D01*
Y030466D01*
Y030467D01*
Y030468D01*
Y030473D01*
Y030477D01*
X030639Y030479D01*
Y03048D01*
Y030484D01*
Y030487D01*
X03064Y030489D01*
Y03049D01*
X030642Y030495D01*
X030643Y030497D01*
X030646Y030501D01*
X030647Y030502D01*
X030648D01*
X030651Y030504D01*
X030655Y030506D01*
X030658Y030508D01*
X03066D01*
X030667Y030511D01*
X030675Y030513D01*
X03068Y030515D01*
X030682D01*
X030692Y030517D01*
X0307Y030519D01*
X030704D01*
X030707Y03052D01*
X03071D01*
X030721Y030521D01*
X03073Y030522D01*
X03074D01*
X030757Y030521D01*
D02*
G37*
G36*
X03271Y030239D02*
X032714Y030236D01*
X032717Y030233D01*
X032718Y030231D01*
X032719Y030228D01*
X03272Y030223D01*
X03272Y030213D01*
X032721Y030208D01*
Y030205D01*
Y030202D01*
Y030201D01*
Y030193D01*
X03272Y030186D01*
Y030181D01*
X03272Y030177D01*
X032719Y030173D01*
Y030171D01*
X032718Y03017D01*
Y030169D01*
X032714Y030164D01*
X032709Y030161D01*
X032705Y03016D01*
X032539D01*
X032533Y030161D01*
X032529Y030165D01*
X032526Y030168D01*
X032525Y030169D01*
X032524Y030173D01*
X032523Y030178D01*
X032522Y030188D01*
X032521Y030193D01*
Y030197D01*
Y0302D01*
Y030201D01*
Y030208D01*
X032522Y030214D01*
X032523Y030218D01*
Y030219D01*
X032524Y030225D01*
X032524Y030229D01*
X032525Y030231D01*
Y030231D01*
X032527Y030234D01*
X032529Y030236D01*
X03253Y030238D01*
X032531D01*
X032533Y03024D01*
X032536Y030241D01*
X032703D01*
X03271Y030239D01*
D02*
G37*
G36*
X035007Y030521D02*
X035024Y030519D01*
X03504Y030516D01*
X035055Y030513D01*
X035067Y030509D01*
X035076Y030506D01*
X035082Y030504D01*
X035083Y030503D01*
X035084D01*
X035099Y030497D01*
X035113Y030488D01*
X035126Y030479D01*
X035136Y030471D01*
X035145Y030463D01*
X035152Y030457D01*
X035157Y030453D01*
X035158Y030452D01*
X035168Y030438D01*
X035178Y030424D01*
X035186Y030409D01*
X035193Y030396D01*
X035199Y030384D01*
X035203Y030375D01*
X035204Y030371D01*
X035205Y030368D01*
X035206Y030367D01*
Y030366D01*
X035211Y030347D01*
X035215Y030328D01*
X035219Y030308D01*
X035221Y03029D01*
X035222Y030275D01*
Y030268D01*
X035223Y030262D01*
Y030258D01*
Y030255D01*
Y030253D01*
Y030252D01*
X035222Y030229D01*
X03522Y030206D01*
X035218Y030188D01*
X035215Y030171D01*
X035212Y030157D01*
X035209Y030148D01*
X035209Y030144D01*
Y030141D01*
X035208Y03014D01*
Y030139D01*
X035201Y030122D01*
X035194Y030107D01*
X035186Y030092D01*
X035179Y030081D01*
X035173Y030071D01*
X035167Y030064D01*
X035163Y03006D01*
X035162Y030058D01*
X035151Y030047D01*
X035138Y030037D01*
X035127Y03003D01*
X035115Y030023D01*
X035106Y030017D01*
X035098Y030013D01*
X035093Y030011D01*
X035091Y03001D01*
X035075Y030006D01*
X035059Y030002D01*
X035042Y029999D01*
X035028Y029997D01*
X035015Y029996D01*
X035005Y029995D01*
X034996D01*
X034977Y029996D01*
X034968Y029997D01*
X034961Y029998D01*
X034955D01*
X03495Y029999D01*
X034947Y03D01*
X034946D01*
X03493Y030003D01*
X034923Y030005D01*
X034917Y030007D01*
X034913Y030008D01*
X034909Y030009D01*
X034907Y030009D01*
X034906D01*
X034893Y030014D01*
X034884Y030019D01*
X03488Y03002D01*
X034877Y030022D01*
X034876Y030023D01*
X034875D01*
X034867Y030028D01*
X034863Y030032D01*
X03486Y030034D01*
X034859Y030034D01*
X034856Y030037D01*
X034854Y03004D01*
X034852Y030041D01*
Y030042D01*
X03485Y030048D01*
X034849Y03005D01*
Y030051D01*
X034848Y030058D01*
X034847Y030061D01*
Y030062D01*
X034846Y030068D01*
Y030074D01*
Y030078D01*
Y03008D01*
Y030089D01*
Y030096D01*
X034847Y030101D01*
Y030102D01*
X034848Y030108D01*
X034849Y030111D01*
X03485Y030114D01*
Y030115D01*
X034851Y030118D01*
X034852Y03012D01*
X034853Y030122D01*
X034854D01*
X034858Y030124D01*
X03486D01*
X034864Y030123D01*
X034869Y030121D01*
X034873Y030118D01*
X034875Y030117D01*
X034883Y030112D01*
X034889Y030108D01*
X034895Y030104D01*
X034897Y030103D01*
X034898D01*
X03491Y030097D01*
X034921Y030093D01*
X034926Y030091D01*
X034929Y030089D01*
X034932Y030088D01*
X034933D01*
X034949Y030085D01*
X034964Y030083D01*
X034971Y030083D01*
X034981D01*
X035002Y030084D01*
X035012Y030085D01*
X035019Y030087D01*
X035026Y030089D01*
X035031Y03009D01*
X035035Y030092D01*
X035036D01*
X035044Y030097D01*
X035052Y030102D01*
X03506Y030107D01*
X035065Y030112D01*
X03507Y030116D01*
X035074Y03012D01*
X035076Y030123D01*
X035077Y030124D01*
X035083Y030132D01*
X035087Y030142D01*
X035092Y030151D01*
X035096Y030159D01*
X035099Y030167D01*
X035101Y030173D01*
X035103Y030178D01*
Y030179D01*
X035106Y030191D01*
X035108Y030205D01*
X03511Y030218D01*
X035111Y03023D01*
Y03024D01*
X035111Y030249D01*
Y030255D01*
Y030255D01*
Y030256D01*
Y030272D01*
X035111Y030285D01*
X035109Y030298D01*
X035107Y030309D01*
X035106Y030318D01*
X035104Y030325D01*
X035103Y030329D01*
Y03033D01*
X035099Y030342D01*
X035095Y030353D01*
X035091Y030362D01*
X035087Y030371D01*
X035084Y030378D01*
X035081Y030382D01*
X035079Y030385D01*
X035078Y030386D01*
X035071Y030395D01*
X035064Y030402D01*
X035058Y030407D01*
X035052Y030413D01*
X035046Y030417D01*
X035041Y03042D01*
X035038Y030421D01*
X035037Y030422D01*
X035028Y030426D01*
X035019Y030429D01*
X03501Y030431D01*
X035002Y030432D01*
X034994Y030433D01*
X034988Y030434D01*
X034974D01*
X034964Y030433D01*
X034957Y030432D01*
X03495Y03043D01*
X034944Y030429D01*
X03494Y030428D01*
X034938Y030427D01*
X034937D01*
X034922Y030422D01*
X034912Y030416D01*
X034908Y030414D01*
X034905Y030413D01*
X034903Y030411D01*
X034902D01*
X034892Y030405D01*
X034885Y030402D01*
X034881Y030398D01*
X034879Y030397D01*
X034872Y030393D01*
X034867Y030391D01*
X034864Y03039D01*
X034864D01*
X034859Y030391D01*
X034857Y030392D01*
X034855Y030394D01*
X034853Y030396D01*
X034852Y030398D01*
Y030399D01*
X034851Y030403D01*
X03485Y030407D01*
X034849Y030411D01*
Y030412D01*
X034848Y030419D01*
Y030426D01*
Y030431D01*
Y030432D01*
Y030433D01*
Y030441D01*
Y030447D01*
X034849Y030451D01*
Y030452D01*
X03485Y030456D01*
Y030461D01*
X034851Y030463D01*
Y030464D01*
X034852Y030468D01*
X034853Y030471D01*
X034854Y030473D01*
Y030474D01*
X034856Y030477D01*
X034859Y030479D01*
X034861Y030481D01*
X034862Y030482D01*
X034866Y030487D01*
X034872Y030491D01*
X034878Y030494D01*
X034879Y030495D01*
X03488D01*
X03489Y030501D01*
X0349Y030504D01*
X034905Y030506D01*
X034908Y030507D01*
X03491Y030508D01*
X034911D01*
X034923Y030512D01*
X034935Y030515D01*
X034939Y030516D01*
X034943Y030517D01*
X034946Y030518D01*
X034947D01*
X034962Y03052D01*
X034974Y030522D01*
X034987D01*
X035007Y030521D01*
D02*
G37*
G36*
X036101Y030512D02*
X036108Y030509D01*
X036112Y030506D01*
X036114Y030505D01*
X036119Y030499D01*
X036121Y03049D01*
Y030486D01*
X036122Y030483D01*
Y030481D01*
Y03048D01*
Y030036D01*
Y03003D01*
X036121Y030025D01*
X036118Y030016D01*
X036115Y030012D01*
X036114Y03001D01*
X036107Y030007D01*
X0361Y030005D01*
X036095Y030004D01*
X035836D01*
X035832Y030005D01*
X03583Y030006D01*
X035828Y030008D01*
X035826Y030009D01*
X035825Y030011D01*
Y030012D01*
X035825Y030016D01*
X035824Y03002D01*
X035823Y030024D01*
Y030025D01*
X035822Y030032D01*
X035821Y030037D01*
Y030042D01*
Y030044D01*
Y030052D01*
X035822Y030058D01*
X035823Y030061D01*
Y030062D01*
X035824Y030067D01*
X035825Y030072D01*
X035825Y030074D01*
Y030075D01*
X035827Y030078D01*
X035828Y03008D01*
X035829Y030082D01*
X03583D01*
X035832Y030083D01*
X035834Y030084D01*
X03602D01*
Y030229D01*
X035866D01*
X035862Y03023D01*
X03586Y030231D01*
X035856Y030234D01*
X035855Y030235D01*
Y030236D01*
X035853Y030244D01*
X035852Y030247D01*
Y030248D01*
X035851Y030255D01*
X03585Y03026D01*
Y030265D01*
Y030267D01*
Y030275D01*
X035851Y030281D01*
X035852Y030285D01*
Y030286D01*
X035853Y030291D01*
X035854Y030295D01*
X035855Y030297D01*
Y030298D01*
X035857Y030301D01*
X035858Y030303D01*
X035859Y030305D01*
X03586D01*
X035862Y030306D01*
X035864Y030307D01*
X03602D01*
Y030432D01*
X035838D01*
X035833Y030433D01*
X035832Y030434D01*
X03583Y030436D01*
X035828Y030438D01*
X035827Y03044D01*
Y030441D01*
X035826Y030445D01*
X035825Y030449D01*
X035825Y030452D01*
Y030453D01*
X035824Y030459D01*
X035823Y030466D01*
Y03047D01*
Y030472D01*
Y030479D01*
X035824Y030486D01*
X035825Y03049D01*
Y030491D01*
X035825Y030496D01*
X035826Y030501D01*
X035827Y030502D01*
Y030503D01*
X035829Y030506D01*
X03583Y030508D01*
X035831Y03051D01*
X035832D01*
X035834Y030512D01*
X035836Y030513D01*
X036093D01*
X036101Y030512D01*
D02*
G37*
G36*
X034205D02*
X034212Y030509D01*
X034216Y030506D01*
X034218Y030505D01*
X034223Y030499D01*
X034225Y03049D01*
Y030486D01*
X034226Y030483D01*
Y030481D01*
Y03048D01*
Y030036D01*
Y03003D01*
X034225Y030025D01*
X034222Y030016D01*
X034219Y030012D01*
X034218Y03001D01*
X034211Y030007D01*
X034204Y030005D01*
X034199Y030004D01*
X034075D01*
X034051Y030005D01*
X034028Y030006D01*
X034008Y030009D01*
X033991Y030011D01*
X033977Y030013D01*
X033972Y030015D01*
X033967Y030016D01*
X033963Y030017D01*
X03396D01*
X033959Y030018D01*
X033958D01*
X033941Y030024D01*
X033925Y030032D01*
X03391Y030039D01*
X033899Y030047D01*
X033889Y030054D01*
X033881Y030059D01*
X033878Y030063D01*
X033876Y030064D01*
X033863Y030077D01*
X033853Y03009D01*
X033844Y030104D01*
X033836Y030116D01*
X03383Y030128D01*
X033826Y030137D01*
X033824Y030143D01*
X033823Y030144D01*
Y030145D01*
X033816Y030164D01*
X033811Y030185D01*
X033808Y030205D01*
X033805Y030224D01*
X033805Y03024D01*
Y030248D01*
X033804Y030254D01*
Y030258D01*
Y030262D01*
Y030264D01*
Y030265D01*
X033805Y030287D01*
X033806Y030307D01*
X033809Y030326D01*
X033812Y030341D01*
X033815Y030354D01*
X033818Y030364D01*
X033819Y030367D01*
X03382Y03037D01*
X033821Y030371D01*
Y030372D01*
X033828Y030388D01*
X033836Y030403D01*
X033844Y030416D01*
X033853Y030428D01*
X033859Y030436D01*
X033865Y030443D01*
X033869Y030448D01*
X033871Y030449D01*
X033883Y03046D01*
X033897Y03047D01*
X03391Y030477D01*
X033923Y030484D01*
X033933Y03049D01*
X033943Y030494D01*
X033949Y030496D01*
X03395Y030497D01*
X033951D01*
X033969Y030502D01*
X033988Y030506D01*
X034007Y030509D01*
X034026Y030511D01*
X034042Y030512D01*
X034049Y030513D01*
X034197D01*
X034205Y030512D01*
D02*
G37*
G36*
X033697D02*
X033704Y030509D01*
X033707Y030506D01*
X033709Y030505D01*
X033714Y030499D01*
X033717Y03049D01*
Y030486D01*
X033718Y030483D01*
Y030481D01*
Y03048D01*
Y030036D01*
Y03003D01*
X033717Y030025D01*
X033713Y030016D01*
X03371Y030012D01*
X033709Y03001D01*
X033703Y030007D01*
X033696Y030005D01*
X03369Y030004D01*
X033432D01*
X033428Y030005D01*
X033426Y030006D01*
X033424Y030008D01*
X033422Y030009D01*
X033421Y030011D01*
Y030012D01*
X03342Y030016D01*
X033419Y03002D01*
X033418Y030024D01*
Y030025D01*
X033417Y030032D01*
X033416Y030037D01*
Y030042D01*
Y030044D01*
Y030052D01*
X033417Y030058D01*
X033418Y030061D01*
Y030062D01*
X033419Y030067D01*
X03342Y030072D01*
X033421Y030074D01*
Y030075D01*
X033423Y030078D01*
X033424Y03008D01*
X033425Y030082D01*
X033426D01*
X033428Y030083D01*
X03343Y030084D01*
X033615D01*
Y030229D01*
X033461D01*
X033458Y03023D01*
X033456Y030231D01*
X033452Y030234D01*
X033451Y030235D01*
Y030236D01*
X033449Y030244D01*
X033448Y030247D01*
Y030248D01*
X033447Y030255D01*
X033446Y03026D01*
Y030265D01*
Y030267D01*
Y030275D01*
X033447Y030281D01*
X033448Y030285D01*
Y030286D01*
X033449Y030291D01*
X03345Y030295D01*
X033451Y030297D01*
Y030298D01*
X033453Y030301D01*
X033454Y030303D01*
X033455Y030305D01*
X033456D01*
X033458Y030306D01*
X03346Y030307D01*
X033615D01*
Y030432D01*
X033434D01*
X033429Y030433D01*
X033428Y030434D01*
X033426Y030436D01*
X033424Y030438D01*
X033423Y03044D01*
Y030441D01*
X033422Y030445D01*
X033421Y030449D01*
X03342Y030452D01*
Y030453D01*
X033419Y030459D01*
X033418Y030466D01*
Y03047D01*
Y030472D01*
Y030479D01*
X033419Y030486D01*
X03342Y03049D01*
Y030491D01*
X033421Y030496D01*
X033422Y030501D01*
X033423Y030502D01*
Y030503D01*
X033425Y030506D01*
X033426Y030508D01*
X033427Y03051D01*
X033428D01*
X03343Y030512D01*
X033432Y030513D01*
X033688D01*
X033697Y030512D01*
D02*
G37*
G36*
X035372Y030514D02*
X035377Y030513D01*
X035379D01*
X035384Y030512D01*
X035389Y030511D01*
X035392Y03051D01*
X035393D01*
X035397Y030508D01*
X035399Y030506D01*
X035401Y030505D01*
Y030504D01*
X035403Y0305D01*
Y030499D01*
Y030498D01*
Y030258D01*
Y030238D01*
Y030229D01*
Y03022D01*
Y030212D01*
Y030206D01*
Y030202D01*
Y030201D01*
X035402Y03018D01*
Y03017D01*
Y030161D01*
X035401Y030155D01*
Y030149D01*
Y030145D01*
Y030144D01*
X035406Y030156D01*
X035411Y030165D01*
X035413Y030169D01*
X035415Y030172D01*
X035416Y030174D01*
Y030175D01*
X035421Y030187D01*
X035427Y030197D01*
X035429Y030202D01*
X03543Y030205D01*
X035431Y030206D01*
Y030207D01*
X035437Y03022D01*
X035442Y03023D01*
X035445Y030234D01*
X035446Y030237D01*
X035448Y030239D01*
Y03024D01*
X035454Y030253D01*
X035458Y030262D01*
X035461Y030267D01*
X035462Y03027D01*
X035464Y030272D01*
Y030273D01*
X035563Y030459D01*
X035569Y03047D01*
X035574Y030478D01*
X035578Y030483D01*
X035579Y030485D01*
X035583Y030492D01*
X035589Y030498D01*
X035592Y030501D01*
X035594Y030502D01*
X0356Y030505D01*
X035605Y030508D01*
X03561Y030509D01*
X035611Y03051D01*
X035612D01*
X03562Y030512D01*
X035628Y030513D01*
X035692D01*
X035703Y030511D01*
X035711Y030508D01*
X035717Y030505D01*
X035718Y030503D01*
X035719D01*
X035723Y0305D01*
X035725Y030495D01*
X035728Y030486D01*
Y030482D01*
X035729Y030478D01*
Y030477D01*
Y030476D01*
Y030018D01*
X035728Y030013D01*
X035727Y030011D01*
Y03001D01*
X035726Y030009D01*
X035724Y030007D01*
X035722Y030006D01*
X035721D01*
X035717Y030005D01*
X035712Y030004D01*
X035708Y030003D01*
X035707D01*
X0357Y030002D01*
X035675D01*
X035667Y030003D01*
X035661D01*
X035654Y030004D01*
X035651Y030005D01*
X035648Y030006D01*
X035647D01*
X035643Y030008D01*
X035641Y030009D01*
X035639Y03001D01*
X035637Y030013D01*
X035636Y030016D01*
Y030017D01*
Y030018D01*
Y030284D01*
Y030305D01*
Y030316D01*
Y030325D01*
X035637Y030331D01*
Y030337D01*
Y030341D01*
Y030342D01*
X035638Y030363D01*
Y030373D01*
Y030381D01*
X035639Y030389D01*
Y030395D01*
Y030399D01*
Y0304D01*
X035638D01*
X035631Y030382D01*
X035628Y030374D01*
X035625Y030366D01*
X035622Y03036D01*
X03562Y030354D01*
X035619Y030352D01*
X035618Y030351D01*
X035609Y030333D01*
X035605Y030326D01*
X035603Y030319D01*
X0356Y030313D01*
X035598Y030309D01*
X035596Y030306D01*
Y030305D01*
X035469Y030067D01*
X035462Y030054D01*
X035456Y030044D01*
X035455Y03004D01*
X035453Y030037D01*
X035452Y030036D01*
Y030035D01*
X035446Y030027D01*
X03544Y030021D01*
X035436Y030016D01*
X035435Y030015D01*
X035429Y03001D01*
X035423Y030008D01*
X035419Y030006D01*
X035417Y030005D01*
X035408Y030004D01*
X035401Y030003D01*
X035343D01*
X035338Y030004D01*
X035335Y030005D01*
X035334D01*
X03533Y030007D01*
X035325Y030009D01*
X035323Y03001D01*
X035322Y030011D01*
X035318Y030015D01*
X035315Y030019D01*
X035314Y030022D01*
X035313Y030023D01*
X035311Y030029D01*
X035309Y030034D01*
Y030038D01*
Y030039D01*
Y030498D01*
Y030501D01*
X03531Y030502D01*
X035311Y030504D01*
X035312D01*
X035314Y030507D01*
X035316Y030509D01*
X035318Y03051D01*
X035319D01*
X035323Y030511D01*
X035328Y030512D01*
X035332Y030513D01*
X035333D01*
X03534Y030514D01*
X035348Y030515D01*
X035365D01*
X035372Y030514D01*
D02*
G37*
G36*
X033304Y030512D02*
X033311Y030509D01*
X033314Y030506D01*
X033316Y030505D01*
X033321Y030499D01*
X033324Y03049D01*
Y030486D01*
X033325Y030483D01*
Y030481D01*
Y03048D01*
Y030018D01*
X033324Y030013D01*
X033323Y030011D01*
Y03001D01*
X033321Y030009D01*
X033318Y030007D01*
X033316Y030006D01*
X033315D01*
X03331Y030005D01*
X033305Y030004D01*
X033301Y030003D01*
X033299D01*
X03329Y030002D01*
X033263D01*
X033256Y030003D01*
X033249D01*
X033242Y030004D01*
X033237Y030005D01*
X033234Y030006D01*
X033233D01*
X033229Y030008D01*
X033226Y030009D01*
X033225Y03001D01*
X033224D01*
X033222Y030013D01*
X033221Y030016D01*
Y030017D01*
Y030018D01*
Y030212D01*
X033189D01*
X033178Y030211D01*
X033169Y030209D01*
X033165Y030208D01*
X033163Y030207D01*
X033162Y030206D01*
X033161D01*
X033152Y030202D01*
X033145Y030197D01*
X03314Y030193D01*
X033139Y030192D01*
Y030191D01*
X033132Y030183D01*
X033126Y030175D01*
X033122Y030169D01*
X033121Y030167D01*
Y030166D01*
X033115Y030155D01*
X03311Y030144D01*
X033108Y030139D01*
X033106Y030135D01*
X033105Y030133D01*
Y030132D01*
X033059Y030019D01*
X033057Y030013D01*
X033056Y030011D01*
Y03001D01*
X033053Y030009D01*
X03305Y030007D01*
X033048Y030006D01*
X033047D01*
X033042Y030005D01*
X033038Y030004D01*
X033034Y030003D01*
X033032D01*
X033023Y030002D01*
X032992D01*
X032982Y030003D01*
X032974D01*
X032967Y030004D01*
X032961D01*
X032958Y030005D01*
X032957D01*
X032953Y030007D01*
X032951Y030008D01*
X032949Y030009D01*
X032947Y030014D01*
Y030016D01*
Y030017D01*
Y03002D01*
X032948Y030024D01*
X032949Y030027D01*
X03295Y030028D01*
X032952Y030034D01*
X032955Y030041D01*
X032957Y030047D01*
X032958Y030049D01*
Y03005D01*
X033Y03015D01*
X033006Y030162D01*
X033011Y030173D01*
X033013Y030177D01*
X033015Y03018D01*
X033016Y030181D01*
Y030182D01*
X033021Y030192D01*
X033027Y030201D01*
X033031Y030206D01*
X033033Y030207D01*
X03304Y030215D01*
X033045Y030222D01*
X033049Y030226D01*
X033051Y030227D01*
X033059Y030232D01*
X033066Y030237D01*
X03307Y03024D01*
X033071Y030241D01*
X033072D01*
X033056Y030247D01*
X033049Y03025D01*
X033042Y030254D01*
X033038Y030256D01*
X033034Y030258D01*
X033032Y030259D01*
X033031Y03026D01*
X033017Y03027D01*
X033008Y03028D01*
X033004Y030283D01*
X033001Y030286D01*
X033Y030288D01*
X032999Y030289D01*
X032991Y030302D01*
X032985Y030314D01*
X032983Y030319D01*
X032981Y030323D01*
X03298Y030326D01*
Y030327D01*
X032976Y030343D01*
X032975Y030351D01*
X032974Y030357D01*
X032973Y030364D01*
Y030369D01*
Y030372D01*
Y030373D01*
Y030384D01*
X032975Y030394D01*
X032976Y030403D01*
X032978Y030411D01*
X03298Y030418D01*
X032981Y030423D01*
X032983Y030426D01*
Y030427D01*
X032991Y030443D01*
X032994Y03045D01*
X032999Y030455D01*
X033003Y03046D01*
X033006Y030464D01*
X033008Y030466D01*
X033009Y030467D01*
X033022Y030478D01*
X033037Y030487D01*
X033042Y030491D01*
X033047Y030493D01*
X03305Y030495D01*
X033051D01*
X033069Y030502D01*
X033079Y030504D01*
X033088Y030506D01*
X033095Y030508D01*
X033101Y030509D01*
X033105Y03051D01*
X033106D01*
X033115Y030511D01*
X033122D01*
X033128Y030512D01*
X03313D01*
X03314Y030513D01*
X033295D01*
X033304Y030512D01*
D02*
G37*
G36*
X034571Y030522D02*
X034592Y03052D01*
X03461Y030517D01*
X034625Y030513D01*
X034638Y030509D01*
X034647Y030506D01*
X034651Y030505D01*
X034654Y030504D01*
X034655Y030503D01*
X034656D01*
X034672Y030496D01*
X034688Y030487D01*
X034701Y030478D01*
X034712Y03047D01*
X034721Y030462D01*
X034728Y030456D01*
X034732Y030452D01*
X034734Y030451D01*
X034744Y030437D01*
X034754Y030423D01*
X034762Y030408D01*
X034768Y030396D01*
X034773Y030383D01*
X034777Y030375D01*
X034778Y030371D01*
X034779Y030368D01*
X03478Y030367D01*
Y030366D01*
X034785Y030347D01*
X034789Y030329D01*
X034791Y030309D01*
X034793Y030292D01*
X034794Y030278D01*
Y030271D01*
X034795Y030266D01*
Y030261D01*
Y030258D01*
Y030256D01*
Y030255D01*
X034794Y030231D01*
X034793Y030208D01*
X03479Y030189D01*
X034788Y030172D01*
X034786Y030157D01*
X034784Y030152D01*
X034783Y030147D01*
X034782Y030143D01*
Y03014D01*
X034781Y030139D01*
Y030138D01*
X034775Y030121D01*
X034767Y030105D01*
X034761Y030091D01*
X034753Y03008D01*
X034747Y03007D01*
X034741Y030063D01*
X034738Y030059D01*
X034737Y030058D01*
X034725Y030046D01*
X034713Y030036D01*
X0347Y030029D01*
X034689Y030022D01*
X034678Y030017D01*
X03467Y030013D01*
X034665Y030011D01*
X034663Y03001D01*
X034645Y030006D01*
X034628Y030002D01*
X034611Y029999D01*
X034594Y029997D01*
X03458Y029996D01*
X034569Y029995D01*
X034559D01*
X034537Y029996D01*
X034518Y029998D01*
X034499Y030001D01*
X034484Y030005D01*
X03447Y030008D01*
X034461Y03001D01*
X034458Y030011D01*
X034455Y030012D01*
X034454Y030013D01*
X034453D01*
X034437Y030021D01*
X034421Y03003D01*
X034409Y030038D01*
X034397Y030047D01*
X034389Y030055D01*
X034382Y03006D01*
X034377Y030064D01*
X034376Y030066D01*
X034365Y03008D01*
X034355Y030094D01*
X034347Y030108D01*
X034341Y030122D01*
X034336Y030133D01*
X034332Y030142D01*
X034331Y030146D01*
X03433Y030149D01*
X034329Y03015D01*
Y030151D01*
X034323Y03017D01*
X03432Y030189D01*
X034317Y030208D01*
X034315Y030227D01*
X034314Y030241D01*
X034313Y030248D01*
Y030254D01*
Y030258D01*
Y030261D01*
Y030263D01*
Y030264D01*
X034314Y030288D01*
X034315Y03031D01*
X034318Y030329D01*
X034321Y030346D01*
X034323Y03036D01*
X034325Y03037D01*
X034326Y030374D01*
X034327Y030377D01*
X034328Y030378D01*
Y030378D01*
X034335Y030396D01*
X034342Y030412D01*
X034349Y030426D01*
X034356Y030437D01*
X034363Y030447D01*
X034369Y030453D01*
X034372Y030458D01*
X034373Y030459D01*
X034385Y030471D01*
X034397Y03048D01*
X03441Y030489D01*
X034421Y030496D01*
X034432Y030501D01*
X03444Y030504D01*
X034446Y030506D01*
X034446Y030507D01*
X034447D01*
X034465Y030512D01*
X034482Y030516D01*
X034499Y030519D01*
X034515Y030521D01*
X034529Y030522D01*
X03454Y030523D01*
X034549D01*
X034571Y030522D01*
D02*
G37*
G36*
X031208D02*
X031224Y03052D01*
X03124Y030517D01*
X031252Y030513D01*
X031262Y030509D01*
X031269Y030506D01*
X031274Y030504D01*
X031276Y030503D01*
X031289Y030496D01*
X0313Y030487D01*
X031311Y030478D01*
X031318Y03047D01*
X031325Y030462D01*
X031331Y030456D01*
X031334Y030452D01*
X031335Y030451D01*
X031342Y030437D01*
X031349Y030423D01*
X031355Y030408D01*
X031359Y030396D01*
X031363Y030383D01*
X031365Y030375D01*
X031365Y030371D01*
Y030368D01*
X031366Y030367D01*
Y030366D01*
X031369Y030347D01*
X031372Y030329D01*
X031374Y03031D01*
X031375Y030293D01*
Y030279D01*
X031376Y030272D01*
Y030267D01*
Y030262D01*
Y030259D01*
Y030257D01*
Y030256D01*
Y030234D01*
X031375Y030213D01*
X031373Y030195D01*
X031372Y030179D01*
X03137Y030165D01*
X031369Y030155D01*
Y030151D01*
X031368Y030148D01*
Y030147D01*
Y030146D01*
X031365Y030129D01*
X031361Y030113D01*
X031356Y030099D01*
X031351Y030087D01*
X031347Y030078D01*
X031343Y03007D01*
X031341Y030066D01*
X03134Y030064D01*
X031333Y030053D01*
X031323Y030042D01*
X031315Y030034D01*
X031306Y030026D01*
X031298Y03002D01*
X031292Y030016D01*
X031289Y030013D01*
X031287Y030012D01*
X031273Y030007D01*
X031259Y030003D01*
X031243Y029999D01*
X03123Y029997D01*
X031218Y029996D01*
X031208Y029995D01*
X031199D01*
X031181Y029996D01*
X031164Y029998D01*
X031148Y030001D01*
X031136Y030005D01*
X031126Y030008D01*
X031119Y03001D01*
X031114Y030012D01*
X031112Y030013D01*
X031099Y030021D01*
X031088Y03003D01*
X031078Y030038D01*
X03107Y030047D01*
X031063Y030055D01*
X031058Y03006D01*
X031055Y030064D01*
X031054Y030066D01*
X031046Y03008D01*
X03104Y030094D01*
X031034Y030108D01*
X03103Y030121D01*
X031026Y030132D01*
X031024Y030142D01*
X031023Y030145D01*
X031022Y030148D01*
Y030149D01*
Y03015D01*
X031019Y030169D01*
X031017Y030188D01*
X031015Y030206D01*
X031013Y030224D01*
Y030238D01*
X031012Y030245D01*
Y03025D01*
Y030255D01*
Y030257D01*
Y030259D01*
Y03026D01*
Y030282D01*
X031013Y030304D01*
X031015Y030322D01*
X031016Y030338D01*
X031018Y030352D01*
X03102Y030361D01*
Y030365D01*
X03102Y030368D01*
Y030369D01*
Y03037D01*
X031024Y030387D01*
X031028Y030403D01*
X031033Y030418D01*
X031037Y030429D01*
X031042Y030439D01*
X031045Y030447D01*
X031047Y030451D01*
X031048Y030452D01*
X031056Y030464D01*
X031066Y030475D01*
X031074Y030483D01*
X031083Y030491D01*
X031091Y030497D01*
X031097Y030502D01*
X031101Y030503D01*
X031103Y030504D01*
X031117Y03051D01*
X031131Y030515D01*
X031145Y030518D01*
X031159Y030521D01*
X031171Y030522D01*
X031181Y030523D01*
X03119D01*
X031208Y030522D01*
D02*
G37*
G36*
X033025Y029291D02*
X033034Y02929D01*
X033041D01*
X033048Y029289D01*
X033052Y029288D01*
X033055Y029287D01*
X033056D01*
X033073Y029284D01*
X033079Y029282D01*
X033086Y02928D01*
X033091Y029279D01*
X033095Y029277D01*
X033097Y029276D01*
X033098D01*
X033112Y029271D01*
X033122Y029266D01*
X033125Y029264D01*
X033128Y029262D01*
X03313Y029261D01*
X033131D01*
X033139Y029257D01*
X033145Y029253D01*
X033148Y029251D01*
X033149Y02925D01*
X033152Y029247D01*
X033154Y029244D01*
X033156Y029242D01*
Y029241D01*
X033158Y029236D01*
X033159Y029234D01*
Y029234D01*
X03316Y029227D01*
X033161Y029224D01*
Y029223D01*
Y029218D01*
Y029213D01*
Y02921D01*
Y029208D01*
Y029198D01*
X03316Y029191D01*
Y029186D01*
Y029185D01*
X033159Y029179D01*
Y029174D01*
X033158Y029171D01*
Y02917D01*
X033156Y029166D01*
X033155Y029164D01*
X033154Y029162D01*
X033149Y02916D01*
X033147D01*
X033144Y029161D01*
X033139Y029163D01*
X033135Y029165D01*
X033134Y029166D01*
X033126Y029171D01*
X033119Y029175D01*
X033113Y029178D01*
X033112Y029179D01*
X033111D01*
X033099Y029185D01*
X03309Y029188D01*
X033085Y02919D01*
X033082Y029191D01*
X03308Y029192D01*
X033079D01*
X033065Y029196D01*
X033051Y029198D01*
X033047Y029199D01*
X033038D01*
X033026Y029198D01*
X033017Y029196D01*
X033011Y029194D01*
X03301Y029193D01*
X033009D01*
X033Y029189D01*
X032995Y029185D01*
X03299Y029182D01*
X032989Y02918D01*
X032983Y029173D01*
X032979Y029166D01*
X032977Y029161D01*
X032976Y02916D01*
Y02916D01*
X032974Y029151D01*
X032973Y029143D01*
X032972Y029136D01*
Y029136D01*
Y029135D01*
X032973Y029124D01*
X032974Y029114D01*
X032974Y029111D01*
Y029108D01*
X032975Y029106D01*
Y029105D01*
X032978Y029093D01*
X032983Y029082D01*
X032985Y029077D01*
X032986Y029073D01*
X032988Y029071D01*
Y02907D01*
X032996Y029056D01*
X033003Y029042D01*
X033007Y029037D01*
X03301Y029033D01*
X033012Y02903D01*
X033013Y029029D01*
X03302Y02902D01*
X033026Y029012D01*
X033034Y029003D01*
X033041Y028995D01*
X033047Y028988D01*
X033051Y028984D01*
X033055Y02898D01*
X033056Y028979D01*
X033145Y028884D01*
X033149Y028878D01*
X033153Y028873D01*
X033156Y028869D01*
X033157Y028868D01*
X03316Y028864D01*
X033163Y028859D01*
X033165Y028855D01*
X033166Y028854D01*
X033168Y028848D01*
X033169Y028843D01*
X03317Y02884D01*
Y028838D01*
X033171Y028831D01*
Y028823D01*
Y028817D01*
Y028816D01*
Y028816D01*
Y028807D01*
X03317Y028799D01*
Y028795D01*
Y028793D01*
X033168Y028788D01*
X033166Y028784D01*
X033165Y028781D01*
X033164Y02878D01*
X033161Y028777D01*
X033157Y028776D01*
X033154Y028774D01*
X033153D01*
X033148Y028773D01*
X032845D01*
X03284Y028774D01*
X032838Y028775D01*
X032836Y028777D01*
X032834Y028779D01*
X032833Y028781D01*
Y028782D01*
X032832Y028787D01*
X032831Y028791D01*
X03283Y028794D01*
Y028795D01*
X032829Y028802D01*
X032828Y028808D01*
Y028813D01*
Y028815D01*
Y028822D01*
X032829Y028829D01*
X03283Y028833D01*
Y028834D01*
X032831Y028839D01*
X032832Y028843D01*
X032833Y028845D01*
X032834Y028846D01*
X032836Y02885D01*
X032838Y028852D01*
X032839Y028854D01*
X03284D01*
X032842Y028856D01*
X032845Y028857D01*
X033048D01*
X032988Y028917D01*
X032972Y028934D01*
X032957Y028949D01*
X032946Y028963D01*
X032935Y028974D01*
X032926Y028983D01*
X032921Y02899D01*
X032917Y028994D01*
X032916Y028996D01*
X032906Y029009D01*
X032898Y02902D01*
X032891Y029031D01*
X032884Y029039D01*
X03288Y029047D01*
X032876Y029053D01*
X032875Y029057D01*
X032874Y029058D01*
X032868Y029068D01*
X032864Y029078D01*
X03286Y029086D01*
X032857Y029094D01*
X032855Y029101D01*
X032854Y029106D01*
X032853Y029109D01*
Y02911D01*
X032851Y029128D01*
X03285Y029136D01*
Y029143D01*
X032849Y029149D01*
Y029155D01*
Y029158D01*
Y029159D01*
Y029169D01*
X032851Y029179D01*
X032851Y029187D01*
X032853Y029195D01*
X032855Y029202D01*
X032857Y029207D01*
X032858Y02921D01*
X032859Y02921D01*
X032863Y029219D01*
X032868Y029228D01*
X032873Y029235D01*
X032877Y029241D01*
X032882Y029247D01*
X032886Y029251D01*
X032888Y029253D01*
X032889Y029254D01*
X032897Y02926D01*
X032904Y029266D01*
X032921Y029275D01*
X032927Y029278D01*
X032933Y02928D01*
X032937Y029282D01*
X032938D01*
X032949Y029285D01*
X032961Y029287D01*
X032973Y029289D01*
X032984Y029291D01*
X032993D01*
X033Y029292D01*
X033007D01*
X033025Y029291D01*
D02*
G37*
G36*
X022343Y029106D02*
X022353D01*
X022356Y029105D01*
X022362D01*
X022363Y029104D01*
X022364D01*
X022368Y029102D01*
X022369Y029101D01*
X022479Y02903D01*
X022484Y029026D01*
X022485Y029025D01*
X022486Y029024D01*
X022489Y029019D01*
X02249Y029017D01*
Y029016D01*
X022492Y029011D01*
Y029008D01*
Y029007D01*
Y029002D01*
Y028997D01*
Y028993D01*
Y028991D01*
Y028981D01*
X022491Y028974D01*
Y028969D01*
Y028967D01*
X02249Y028963D01*
X022489Y028959D01*
X022487Y028957D01*
Y028956D01*
X022484Y028954D01*
X022478D01*
X022473Y028955D01*
X022468Y028957D01*
X022464Y028959D01*
X022463Y02896D01*
X022381Y029005D01*
Y028673D01*
X022479D01*
X02248Y028672D01*
X022481Y028671D01*
X022482Y02867D01*
X022484Y028668D01*
X022486Y028667D01*
X022487Y028665D01*
Y028664D01*
X022488Y02866D01*
X022489Y028656D01*
X02249Y028652D01*
Y028651D01*
X022491Y028645D01*
Y028639D01*
Y028634D01*
Y028633D01*
Y028632D01*
Y028624D01*
X02249Y028618D01*
Y028615D01*
Y028614D01*
X022489Y028609D01*
X022488Y028605D01*
X022487Y028602D01*
Y028601D01*
X022484Y028597D01*
X022482Y028595D01*
X022479Y028593D01*
X022195D01*
X02219Y028594D01*
X022188Y028595D01*
X022184Y028599D01*
X022184Y0286D01*
Y028601D01*
X022183Y028605D01*
X022182Y028609D01*
X022181Y028613D01*
Y028614D01*
X02218Y028619D01*
X022179Y028626D01*
Y02863D01*
Y028632D01*
Y02864D01*
X02218Y028646D01*
X022181Y02865D01*
Y028651D01*
X022182Y028656D01*
X022183Y028661D01*
X022184Y028663D01*
Y028664D01*
X022185Y028667D01*
X022186Y028668D01*
X022187Y02867D01*
X022188D01*
X02219Y028672D01*
X022193Y028673D01*
X022278D01*
Y029094D01*
X022279Y029098D01*
X02228Y029099D01*
X022282Y029101D01*
X022283Y029102D01*
X022285Y029103D01*
X022286D01*
X02229Y029104D01*
X022295Y029105D01*
X022299Y029106D01*
X022301D01*
X022308Y029107D01*
X022338D01*
X022343Y029106D01*
D02*
G37*
G36*
X021118D02*
X021127D01*
X02113Y029105D01*
X021137D01*
X021138Y029104D01*
X021139D01*
X021143Y029102D01*
X021144Y029101D01*
X021253Y02903D01*
X021259Y029026D01*
X02126Y029025D01*
X021261Y029024D01*
X021264Y029019D01*
X021265Y029017D01*
Y029016D01*
X021267Y029011D01*
Y029008D01*
Y029007D01*
Y029002D01*
Y028997D01*
Y028993D01*
Y028991D01*
Y028981D01*
X021266Y028974D01*
Y028969D01*
Y028967D01*
X021265Y028963D01*
X021264Y028959D01*
X021262Y028957D01*
Y028956D01*
X021259Y028954D01*
X021252D01*
X021247Y028955D01*
X021243Y028957D01*
X021239Y028959D01*
X021238Y02896D01*
X021155Y029005D01*
Y028673D01*
X021253D01*
X021255Y028672D01*
X021256Y028671D01*
X021257Y02867D01*
X021259Y028668D01*
X021261Y028667D01*
X021262Y028665D01*
Y028664D01*
X021263Y02866D01*
X021264Y028656D01*
X021265Y028652D01*
Y028651D01*
X021266Y028645D01*
Y028639D01*
Y028634D01*
Y028633D01*
Y028632D01*
Y028624D01*
X021265Y028618D01*
Y028615D01*
Y028614D01*
X021264Y028609D01*
X021263Y028605D01*
X021262Y028602D01*
Y028601D01*
X021259Y028597D01*
X021257Y028595D01*
X021253Y028593D01*
X02097D01*
X020965Y028594D01*
X020963Y028595D01*
X020959Y028599D01*
X020958Y0286D01*
Y028601D01*
X020957Y028605D01*
X020956Y028609D01*
X020955Y028613D01*
Y028614D01*
X020954Y028619D01*
X020953Y028626D01*
Y02863D01*
Y028632D01*
Y02864D01*
X020954Y028646D01*
X020955Y02865D01*
Y028651D01*
X020956Y028656D01*
X020957Y028661D01*
X020958Y028663D01*
Y028664D01*
X02096Y028667D01*
X020961Y028668D01*
X020962Y02867D01*
X020963D01*
X020965Y028672D01*
X020968Y028673D01*
X021052D01*
Y029094D01*
X021053Y029098D01*
X021054Y029099D01*
X021056Y029101D01*
X021058Y029102D01*
X02106Y029103D01*
X021061D01*
X021065Y029104D01*
X02107Y029105D01*
X021074Y029106D01*
X021075D01*
X021083Y029107D01*
X021113D01*
X021118Y029106D01*
D02*
G37*
G36*
X023983Y029105D02*
X023988Y029104D01*
X02399D01*
X023997Y029103D01*
X024002Y029102D01*
X024005Y029101D01*
X024006D01*
X024009Y029099D01*
X024012Y029097D01*
X024013Y029096D01*
X024014Y029095D01*
X024016Y02909D01*
Y029089D01*
Y029088D01*
Y028608D01*
X024015Y028603D01*
X024014Y028601D01*
Y0286D01*
X024011Y028598D01*
X024008Y028596D01*
X024007Y028595D01*
X024006D01*
X024001Y028594D01*
X023996Y028593D01*
X023992Y028593D01*
X02399D01*
X023982Y028592D01*
X023954D01*
X023946Y028593D01*
X023939D01*
X023933Y028593D01*
X023928Y028594D01*
X023925Y028595D01*
X023924D01*
X02392Y028597D01*
X023917Y028598D01*
X023915Y0286D01*
X023913Y028603D01*
X023912Y028606D01*
Y028607D01*
Y028608D01*
Y028814D01*
X023722D01*
Y028608D01*
X023721Y028603D01*
X02372Y028601D01*
Y0286D01*
X023717Y028598D01*
X023714Y028596D01*
X023712Y028595D01*
X023712D01*
X023707Y028594D01*
X023702Y028593D01*
X023698Y028593D01*
X023696D01*
X023687Y028592D01*
X023661D01*
X023653Y028593D01*
X023646D01*
X023639Y028593D01*
X023634Y028594D01*
X023631Y028595D01*
X02363D01*
X023626Y028597D01*
X023623Y028598D01*
X023622Y0286D01*
X023621D01*
X023619Y028603D01*
X023618Y028606D01*
Y028607D01*
Y028608D01*
Y029088D01*
Y029091D01*
X023619Y029093D01*
X02362Y029095D01*
X023621D01*
X023624Y029098D01*
X023627Y0291D01*
X023629Y029101D01*
X02363D01*
X023635Y029102D01*
X02364Y029103D01*
X023644Y029104D01*
X023646D01*
X023654Y029105D01*
X023662Y029106D01*
X023681D01*
X023688Y029105D01*
X023694Y029104D01*
X023696D01*
X023703Y029103D01*
X023708Y029102D01*
X023711Y029101D01*
X023712D01*
X023715Y029099D01*
X023718Y029097D01*
X023719Y029096D01*
X02372Y029095D01*
X023722Y02909D01*
Y029089D01*
Y029088D01*
Y028902D01*
X023912D01*
Y029088D01*
Y029091D01*
X023913Y029093D01*
X023914Y029095D01*
X023915D01*
X023917Y029098D01*
X02392Y0291D01*
X023923Y029101D01*
X023924D01*
X023929Y029102D01*
X023933Y029103D01*
X023937Y029104D01*
X023939D01*
X023947Y029105D01*
X023956Y029106D01*
X023975D01*
X023983Y029105D01*
D02*
G37*
G36*
X02191Y029111D02*
X021925Y02911D01*
X021938Y029108D01*
X021951Y029105D01*
X021961Y029102D01*
X021968Y0291D01*
X021972Y029099D01*
X021974Y029098D01*
X021987Y029093D01*
X021997Y029087D01*
X022008Y029082D01*
X022016Y029077D01*
X022023Y029072D01*
X022028Y029068D01*
X022032Y029065D01*
X022033Y029064D01*
X022041Y029056D01*
X022049Y029048D01*
X022056Y029039D01*
X022061Y029032D01*
X022066Y029025D01*
X022069Y029019D01*
X022071Y029015D01*
X022072Y029014D01*
X022083Y028993D01*
X022086Y028983D01*
X022089Y028973D01*
X022092Y028965D01*
X022094Y02896D01*
X022096Y028956D01*
Y028954D01*
X022101Y028931D01*
X022103Y02892D01*
X022104Y028911D01*
X022106Y028902D01*
Y028896D01*
X022107Y028892D01*
Y02889D01*
X022109Y028867D01*
Y028857D01*
X02211Y028847D01*
Y028839D01*
Y028833D01*
Y028829D01*
Y028828D01*
Y028815D01*
Y028802D01*
X022109Y02879D01*
Y028781D01*
Y028772D01*
X022108Y028765D01*
Y028762D01*
Y02876D01*
X022107Y028748D01*
X022105Y028738D01*
X022103Y028727D01*
X022102Y028718D01*
X0221Y028712D01*
X022099Y028706D01*
X022098Y028702D01*
Y028701D01*
X022091Y028682D01*
X022088Y028674D01*
X022085Y028667D01*
X022083Y028661D01*
X02208Y028656D01*
X022079Y028653D01*
X022078Y028652D01*
X022067Y028638D01*
X022062Y028631D01*
X022058Y028626D01*
X022053Y028621D01*
X022049Y028618D01*
X022047Y028617D01*
X022046Y028616D01*
X022031Y028606D01*
X022016Y028598D01*
X022011Y028595D01*
X022005Y028594D01*
X022002Y028593D01*
X022001D01*
X02198Y028588D01*
X021969Y028587D01*
X02196Y028586D01*
X021951Y028585D01*
X021938D01*
X021923Y028586D01*
X021909Y028587D01*
X021895Y028589D01*
X021885Y028592D01*
X021875Y028594D01*
X021868Y028596D01*
X021864Y028597D01*
X021863Y028598D01*
X02185Y028604D01*
X021839Y02861D01*
X02183Y028616D01*
X021821Y028621D01*
X021814Y028627D01*
X02181Y028631D01*
X021807Y028634D01*
X021806Y028635D01*
X021798Y028644D01*
X02179Y028654D01*
X021785Y028664D01*
X02178Y028672D01*
X021776Y02868D01*
X021773Y028686D01*
X021772Y028691D01*
X021771Y028692D01*
X021767Y028704D01*
X021764Y028717D01*
X021762Y028729D01*
X021761Y028741D01*
X02176Y02875D01*
X021759Y028757D01*
Y028762D01*
Y028764D01*
Y028776D01*
X02176Y028788D01*
X021762Y028798D01*
X021763Y028807D01*
X021765Y028815D01*
X021766Y02882D01*
X021767Y028824D01*
Y028825D01*
X021771Y028835D01*
X021775Y028844D01*
X021779Y028852D01*
X021784Y028859D01*
X021788Y028864D01*
X02179Y028868D01*
X021792Y028871D01*
X021793Y028872D01*
X0218Y028879D01*
X021808Y028886D01*
X021822Y028895D01*
X021829Y028898D01*
X021834Y028901D01*
X021838Y028903D01*
X021839D01*
X021849Y028907D01*
X02186Y02891D01*
X021871Y028912D01*
X021881Y028914D01*
X02189D01*
X021897Y028914D01*
X021916D01*
X021927Y028914D01*
X021931Y028913D01*
X021934D01*
X021936Y028912D01*
X021937D01*
X021947Y02891D01*
X021957Y028907D01*
X021961Y028906D01*
X021963D01*
X021964Y028905D01*
X021965D01*
X021974Y028902D01*
X021982Y028899D01*
X021987Y028896D01*
X021988Y028895D01*
X021989D01*
X021997Y028891D01*
X022004Y028889D01*
X022008Y028886D01*
X02201Y028885D01*
X022008Y028906D01*
X022007Y028915D01*
X022006Y028924D01*
X022005Y028932D01*
X022004Y028937D01*
X022003Y02894D01*
Y028941D01*
X021997Y028961D01*
X021993Y028968D01*
X02199Y028975D01*
X021987Y028981D01*
X021985Y028985D01*
X021984Y028987D01*
X021983Y028988D01*
X021971Y029002D01*
X02196Y029012D01*
X021955Y029015D01*
X021951Y029018D01*
X021948Y029019D01*
X021947Y02902D01*
X021938Y029024D01*
X02193Y029028D01*
X02192Y02903D01*
X021912Y029031D01*
X021905Y029032D01*
X021898Y029033D01*
X02188D01*
X021869Y029032D01*
X021865Y029031D01*
X021863D01*
X021861Y02903D01*
X02186D01*
X02185Y029028D01*
X021841Y029026D01*
X021837Y029025D01*
X021835Y029024D01*
X021828Y029022D01*
X021822Y02902D01*
X021818Y029019D01*
X021817Y029018D01*
X021813Y029017D01*
X021808Y029016D01*
X021805D01*
X0218Y029017D01*
X021798Y029018D01*
X021795Y029022D01*
X021794Y029023D01*
Y029024D01*
X021793Y029028D01*
X021792Y029032D01*
X021791Y029036D01*
Y029037D01*
X02179Y029043D01*
Y02905D01*
Y029056D01*
Y029057D01*
Y029058D01*
Y029062D01*
Y029067D01*
X021791Y029069D01*
Y02907D01*
Y029074D01*
Y029077D01*
X021792Y029079D01*
Y02908D01*
X021794Y029085D01*
X021795Y029086D01*
X021798Y02909D01*
X021799Y029092D01*
X0218D01*
X021803Y029094D01*
X021808Y029096D01*
X021811Y029098D01*
X021813D01*
X021819Y029101D01*
X021827Y029103D01*
X021833Y029105D01*
X021835D01*
X021844Y029107D01*
X021853Y029109D01*
X021857D01*
X02186Y02911D01*
X021863D01*
X021873Y029111D01*
X021883Y029111D01*
X021892D01*
X02191Y029111D01*
D02*
G37*
G36*
X034514Y029284D02*
X034523D01*
X034526Y029284D01*
X034527D01*
X034535Y029283D01*
X03454Y029281D01*
X034543Y02928D01*
X034544Y029279D01*
X034547Y029275D01*
X034548Y029271D01*
Y029268D01*
Y029266D01*
X034547Y029259D01*
X034545Y029253D01*
X034543Y029247D01*
X034542Y029245D01*
Y029244D01*
X03439Y028792D01*
X034388Y028787D01*
X034387Y028785D01*
Y028784D01*
X034384Y02878D01*
X034382Y028779D01*
Y028778D01*
X034377Y028775D01*
X034375Y028774D01*
X034374D01*
X034369Y028773D01*
X03436D01*
X034354Y028772D01*
X034342D01*
X034332Y028771D01*
X034301D01*
X034291Y028772D01*
X034282D01*
X034274Y028773D01*
X034268D01*
X034264Y028774D01*
X034263D01*
X034258Y028776D01*
X034255Y028778D01*
X034255Y028779D01*
X034254Y02878D01*
X034249Y028788D01*
X034248Y028791D01*
Y028791D01*
X034096Y029243D01*
X034093Y029253D01*
X034091Y029259D01*
X03409Y029263D01*
Y029265D01*
X034089Y029271D01*
X03409Y029275D01*
X034091Y029277D01*
X034092Y029278D01*
X034096Y029281D01*
X034101Y029283D01*
X034105Y029284D01*
X034107D01*
X034115Y029284D01*
X034124Y029285D01*
X034156D01*
X034161Y029284D01*
X034163D01*
X03417Y029284D01*
X034176Y029283D01*
X034179Y029282D01*
X03418Y029281D01*
X034183Y029279D01*
X034186Y029277D01*
X034187Y029275D01*
X034188Y029274D01*
X034189Y029271D01*
X034191Y029267D01*
X034192Y029264D01*
Y029263D01*
X034313Y028873D01*
X034438Y029265D01*
X03444Y02927D01*
X034441Y029273D01*
X034442Y029275D01*
X034443Y029276D01*
X034445Y029279D01*
X034448Y029281D01*
X03445Y029282D01*
X034451D01*
X034455Y029283D01*
X03446Y029284D01*
X034464Y029284D01*
X034466D01*
X034475Y029285D01*
X034508D01*
X034514Y029284D01*
D02*
G37*
G36*
X023387Y02898D02*
X023394D01*
X023401Y028979D01*
X023407Y028978D01*
X023412D01*
X023415Y028977D01*
X023416D01*
X023431Y028974D01*
X023438Y028972D01*
X023444Y028971D01*
X023449Y028969D01*
X023453Y028968D01*
X023455Y028967D01*
X023456D01*
X023468Y028963D01*
X023479Y028959D01*
X023483Y028958D01*
X023486Y028956D01*
X023488Y028955D01*
X023489D01*
X023497Y02895D01*
X023503Y028946D01*
X023507Y028943D01*
X023508Y028942D01*
X023511Y028938D01*
X023513Y028934D01*
X023514Y02893D01*
Y028929D01*
X023515Y028923D01*
X023516Y028916D01*
Y028912D01*
Y028911D01*
Y02891D01*
Y028904D01*
X023515Y028898D01*
Y028894D01*
Y028893D01*
X023514Y028888D01*
X023514Y028884D01*
X023513Y028881D01*
Y02888D01*
X02351Y028874D01*
X023508Y028873D01*
Y028872D01*
X023502Y02887D01*
X023499D01*
X023493Y028871D01*
X023489Y028873D01*
X023485Y028874D01*
X023483Y028875D01*
X023475Y02888D01*
X023466Y028884D01*
X023461Y028887D01*
X023459Y028888D01*
X023458D01*
X023446Y028892D01*
X023435Y028896D01*
X02343Y028898D01*
X023426Y028899D01*
X023424Y0289D01*
X023423D01*
X023408Y028904D01*
X023393Y028905D01*
X023388Y028906D01*
X023379D01*
X023366Y028905D01*
X023356Y028904D01*
X023352Y028903D01*
X023349Y028902D01*
X023348Y028901D01*
X023347D01*
X023339Y028897D01*
X023332Y028893D01*
X023327Y02889D01*
X023326Y028889D01*
X023321Y028882D01*
X023317Y028876D01*
X023317Y02887D01*
X023316Y028869D01*
Y028868D01*
X023314Y028859D01*
X023312Y028849D01*
Y028845D01*
Y028842D01*
Y02884D01*
Y028839D01*
Y028818D01*
X023364D01*
X023379Y028817D01*
X023393Y028816D01*
X023405Y028815D01*
X023416Y028814D01*
X023422Y028812D01*
X023427Y028811D01*
X023429D01*
X023441Y028808D01*
X023453Y028804D01*
X023464Y028801D01*
X023472Y028797D01*
X023479Y028793D01*
X023484Y028791D01*
X023488Y02879D01*
X023489Y028789D01*
X023496Y028783D01*
X023504Y028777D01*
X02351Y02877D01*
X023514Y028765D01*
X023519Y028759D01*
X023522Y028755D01*
X023523Y028752D01*
X023524Y028751D01*
X023528Y028742D01*
X023531Y028734D01*
X023533Y028725D01*
X023534Y028716D01*
X023535Y028709D01*
X023536Y028703D01*
Y028699D01*
Y028698D01*
Y028689D01*
X023535Y028679D01*
X023533Y02867D01*
X023531Y028664D01*
X02353Y028658D01*
X023528Y028653D01*
X023527Y02865D01*
Y028649D01*
X023518Y028635D01*
X023514Y028629D01*
X02351Y028623D01*
X023506Y028619D01*
X023503Y028617D01*
X023501Y028615D01*
X0235Y028614D01*
X023487Y028604D01*
X023473Y028597D01*
X023468Y028595D01*
X023464Y028593D01*
X023461Y028593D01*
X02346D01*
X023441Y028588D01*
X023433Y028587D01*
X023425Y028586D01*
X023417Y028585D01*
X023408D01*
X023395Y028586D01*
X023384Y028587D01*
X023373Y028589D01*
X023365Y028592D01*
X023357Y028593D01*
X023351Y028595D01*
X023347Y028596D01*
X023346Y028597D01*
X023336Y028603D01*
X023327Y028609D01*
X023318Y028615D01*
X023312Y02862D01*
X023305Y028626D01*
X023301Y02863D01*
X023298Y028633D01*
X023297Y028634D01*
Y028606D01*
X023296Y028602D01*
X023295Y028599D01*
X023294Y028597D01*
Y028596D01*
X023291Y028594D01*
X023287Y028593D01*
X023284Y028593D01*
X023283D01*
X023275Y028592D01*
X023245D01*
X023238Y028593D01*
X023232D01*
X023226Y028593D01*
X023222Y028594D01*
X02322Y028596D01*
X023219D01*
X023217Y028599D01*
X023216Y028603D01*
X023215Y028605D01*
Y028606D01*
Y028841D01*
Y028855D01*
X023217Y028866D01*
X023218Y028877D01*
X023219Y028887D01*
X023221Y028893D01*
X023222Y028899D01*
X023224Y028903D01*
Y028904D01*
X023228Y028914D01*
X023232Y028922D01*
X023237Y02893D01*
X023242Y028936D01*
X023245Y02894D01*
X023249Y028944D01*
X023251Y028946D01*
X023252Y028947D01*
X02326Y028953D01*
X023268Y028959D01*
X023283Y028966D01*
X02329Y028969D01*
X023295Y028971D01*
X023299Y028972D01*
X0233D01*
X023312Y028975D01*
X023323Y028977D01*
X023335Y028979D01*
X023346Y02898D01*
X023356Y028981D01*
X02337D01*
X023387Y02898D01*
D02*
G37*
G36*
X033887Y02916D02*
X033901Y029159D01*
X033914Y029156D01*
X033925Y029154D01*
X033935Y029151D01*
X033941Y029148D01*
X033945Y029147D01*
X033947Y029146D01*
X03396Y02914D01*
X03397Y029135D01*
X03398Y029128D01*
X033988Y029121D01*
X033995Y029115D01*
X034Y029111D01*
X034003Y029107D01*
X034004Y029106D01*
X034011Y029095D01*
X034019Y029085D01*
X034025Y029074D01*
X03403Y029064D01*
X034034Y029056D01*
X034037Y029049D01*
X034038Y029044D01*
X034039Y029042D01*
X034043Y029028D01*
X034046Y029013D01*
X034048Y028999D01*
X034049Y028986D01*
X03405Y028975D01*
X034051Y028965D01*
Y02896D01*
Y028959D01*
Y028958D01*
X03405Y02894D01*
X034049Y028924D01*
X034047Y028909D01*
X034045Y028896D01*
X034043Y028887D01*
X034041Y028879D01*
X034039Y028874D01*
Y028872D01*
X034034Y028859D01*
X034029Y028847D01*
X034023Y028837D01*
X034017Y028828D01*
X034012Y028821D01*
X034009Y028816D01*
X034006Y028813D01*
X034005Y028812D01*
X033995Y028803D01*
X033985Y028796D01*
X033976Y02879D01*
X033966Y028785D01*
X033959Y028781D01*
X033952Y028778D01*
X033948Y028777D01*
X033946Y028776D01*
X033933Y028772D01*
X033918Y028769D01*
X033904Y028767D01*
X033891Y028766D01*
X03388Y028766D01*
X033871Y028765D01*
X033863D01*
X033845Y028766D01*
X033837D01*
X033829Y028766D01*
X033823Y028767D01*
X033818D01*
X033815Y028768D01*
X033814D01*
X033798Y02877D01*
X033791Y028772D01*
X033786Y028773D01*
X033781Y028774D01*
X033777D01*
X033775Y028775D01*
X033774D01*
X033762Y028779D01*
X033753Y028782D01*
X033747Y028784D01*
X033745Y028785D01*
X033738Y028788D01*
X033734Y02879D01*
X033732Y028791D01*
X033731D01*
X033728Y028795D01*
X033727Y028797D01*
X033725Y028802D01*
X033724Y028804D01*
Y028805D01*
X033723Y028812D01*
Y028815D01*
Y028816D01*
X033722Y02882D01*
Y028825D01*
Y028829D01*
Y02883D01*
Y028837D01*
Y028842D01*
X033723Y028845D01*
Y028846D01*
X033724Y028851D01*
X033725Y028854D01*
X033726Y028856D01*
Y028857D01*
X033727Y02886D01*
X033728Y028861D01*
X033729Y028862D01*
X03373D01*
X033734Y028864D01*
X033736D01*
X03374Y028863D01*
X033745Y028862D01*
X033749Y028861D01*
X033751Y02886D01*
X033759Y028857D01*
X033765Y028854D01*
X033771Y028852D01*
X033773Y028851D01*
X033774D01*
X033786Y028848D01*
X033797Y028845D01*
X033802Y028844D01*
X033805Y028843D01*
X033808Y028842D01*
X033809D01*
X033824Y02884D01*
X033838Y02884D01*
X033863D01*
X033872Y02884D01*
X033879Y028841D01*
X033886Y028842D01*
X033891Y028843D01*
X033895Y028844D01*
X033897Y028845D01*
X033898D01*
X03391Y028851D01*
X03392Y028858D01*
X033923Y028861D01*
X033926Y028863D01*
X033927Y028864D01*
X033928Y028865D01*
X033935Y028875D01*
X03394Y028886D01*
X033942Y02889D01*
X033944Y028893D01*
X033945Y028895D01*
Y028896D01*
X033948Y028911D01*
X033949Y028924D01*
X03395Y028929D01*
Y028934D01*
Y028937D01*
Y028938D01*
X033737D01*
X033727Y028939D01*
X03372Y028942D01*
X033715Y028945D01*
X033714Y028946D01*
X03371Y028954D01*
X033707Y028963D01*
X033706Y028966D01*
Y028969D01*
Y028971D01*
Y028972D01*
Y028988D01*
Y029002D01*
X033708Y029014D01*
X033709Y029026D01*
X033711Y029037D01*
X033713Y029045D01*
X033713Y029051D01*
X033715Y029056D01*
Y029057D01*
X033719Y029068D01*
X033724Y029079D01*
X033729Y029088D01*
X033734Y029096D01*
X033738Y029103D01*
X033742Y029108D01*
X033744Y029111D01*
X033745Y029111D01*
X033753Y02912D01*
X033762Y029127D01*
X03377Y029133D01*
X033779Y029138D01*
X033786Y029142D01*
X033791Y029145D01*
X033796Y029146D01*
X033797Y029147D01*
X03381Y029152D01*
X033822Y029155D01*
X033835Y029158D01*
X033846Y029159D01*
X033857Y02916D01*
X033864Y02916D01*
X033872D01*
X033887Y02916D01*
D02*
G37*
G36*
X033455D02*
X033462Y029159D01*
X033467Y029158D01*
X033468Y029157D01*
X033469D01*
X033477Y029154D01*
X033485Y02915D01*
X03349Y029147D01*
X033491Y029146D01*
X033491D01*
X033499Y02914D01*
X033507Y029134D01*
X033513Y029128D01*
X033514Y029127D01*
X033515Y029126D01*
X033523Y029115D01*
X033532Y029106D01*
X033536Y029101D01*
X033538Y029097D01*
X03354Y029095D01*
X033541Y029094D01*
Y029137D01*
X033541Y029142D01*
X033542Y029144D01*
X033544Y029146D01*
X033546Y029148D01*
X033548Y029149D01*
X033549D01*
X033553Y02915D01*
X033557Y029151D01*
X03356Y029152D01*
X033562D01*
X033568Y029153D01*
X033574Y029154D01*
X03359D01*
X033597Y029153D01*
X033601Y029152D01*
X033603D01*
X033608Y029151D01*
X033612Y02915D01*
X033615Y029149D01*
X033615D01*
X033618Y029147D01*
X03362Y029146D01*
X033622Y029145D01*
Y029144D01*
X033624Y029139D01*
Y029138D01*
Y029137D01*
Y028787D01*
X033623Y028782D01*
X033622Y028781D01*
Y02878D01*
X03362Y028778D01*
X033617Y028776D01*
X033615Y028775D01*
X033615D01*
X03361Y028774D01*
X033605Y028773D01*
X033601Y028772D01*
X033599D01*
X033591Y028771D01*
X033565D01*
X033558Y028772D01*
X033551D01*
X033544Y028773D01*
X03354Y028774D01*
X033537Y028775D01*
X033536D01*
X033532Y028777D01*
X03353Y028778D01*
X033528Y02878D01*
X033526Y028782D01*
X033525Y028785D01*
Y028786D01*
Y028787D01*
Y029006D01*
X033517Y029017D01*
X033511Y029026D01*
X033507Y029032D01*
X033505Y029033D01*
Y029034D01*
X033498Y029042D01*
X033492Y029048D01*
X033489Y029052D01*
X033487Y029053D01*
X03348Y029058D01*
X033474Y029062D01*
X03347Y029062D01*
X033469Y029063D01*
X033463Y029065D01*
X033458Y029067D01*
X033447D01*
X033443Y029066D01*
X033441Y029065D01*
X03344D01*
X033436Y029064D01*
X033432Y029063D01*
X03343Y029062D01*
X033429D01*
X033425Y029062D01*
X033422Y029061D01*
X03342Y02906D01*
X033419D01*
X033415Y029059D01*
X033413D01*
X033408Y02906D01*
X033406Y029061D01*
X033404Y029062D01*
X033403Y029064D01*
X033402Y029066D01*
Y029067D01*
X033401Y029071D01*
X0334Y029076D01*
X033399Y02908D01*
Y029081D01*
X033398Y029088D01*
Y029096D01*
Y029103D01*
Y029104D01*
Y029105D01*
Y029114D01*
Y029121D01*
X033399Y029126D01*
Y029127D01*
Y029133D01*
Y029136D01*
X0334Y029138D01*
Y029139D01*
X033401Y029142D01*
Y029144D01*
X033402Y029146D01*
X033404Y02915D01*
X033405Y029151D01*
X033406D01*
X033408Y029152D01*
X03341Y029153D01*
X033412Y029154D01*
X033413D01*
X033416Y029155D01*
X033419Y029156D01*
X033422Y029157D01*
X033423D01*
X033428Y029158D01*
X033432Y029159D01*
X033435Y02916D01*
X033436D01*
X03344Y02916D01*
X033446D01*
X033455Y02916D01*
D02*
G37*
G36*
X032701Y02889D02*
X03271Y028889D01*
X032719Y028887D01*
X032725Y028884D01*
X032729Y028881D01*
X032732Y028879D01*
X032734Y028878D01*
X032735Y028877D01*
X032739Y028871D01*
X032742Y028865D01*
X032746Y028848D01*
X032747Y02884D01*
X032748Y028834D01*
Y02883D01*
Y028828D01*
X032747Y028816D01*
X032746Y028806D01*
X032744Y028797D01*
X032741Y028791D01*
X032739Y028786D01*
X032737Y028783D01*
X032736Y028781D01*
X032735Y02878D01*
X032729Y028776D01*
X032723Y028773D01*
X032708Y02877D01*
X032701Y028769D01*
X032695Y028768D01*
X03269D01*
X032678Y028769D01*
X032669Y02877D01*
X03266Y028772D01*
X032654Y028775D01*
X03265Y028777D01*
X032647Y028779D01*
X032645Y02878D01*
X032644Y028781D01*
X03264Y028787D01*
X032636Y028793D01*
X032633Y02881D01*
X032632Y028817D01*
X032631Y028824D01*
Y028828D01*
Y02883D01*
X032632Y028842D01*
X032633Y028852D01*
X032635Y028861D01*
X032637Y028867D01*
X03264Y028872D01*
X032642Y028875D01*
X032643Y028877D01*
X032644Y028878D01*
X03265Y028882D01*
X032656Y028886D01*
X032671Y028889D01*
X032678Y02889D01*
X032683Y02889D01*
X032689D01*
X032701Y02889D01*
D02*
G37*
G36*
X032391Y029291D02*
X032407Y029289D01*
X032423Y029286D01*
X032435Y029283D01*
X032445Y029279D01*
X032453Y029276D01*
X032457Y029274D01*
X032459Y029273D01*
X032472Y029265D01*
X032483Y029257D01*
X032494Y029248D01*
X032502Y029239D01*
X032508Y029232D01*
X032514Y029226D01*
X032517Y029222D01*
X032518Y02922D01*
X032526Y029207D01*
X032532Y029192D01*
X032538Y029178D01*
X032542Y029165D01*
X032546Y029153D01*
X032548Y029144D01*
X032549Y02914D01*
Y029137D01*
X03255Y029136D01*
Y029136D01*
X032553Y029116D01*
X032555Y029098D01*
X032557Y02908D01*
X032558Y029062D01*
Y029048D01*
X032559Y029041D01*
Y029037D01*
Y029032D01*
Y029029D01*
Y029027D01*
Y029026D01*
Y029004D01*
X032558Y028983D01*
X032556Y028964D01*
X032555Y028948D01*
X032554Y028935D01*
X032553Y028924D01*
Y02892D01*
X032552Y028917D01*
Y028916D01*
Y028915D01*
X032548Y028898D01*
X032544Y028883D01*
X032539Y028868D01*
X032534Y028857D01*
X032531Y028847D01*
X032527Y02884D01*
X032525Y028836D01*
X032524Y028834D01*
X032516Y028822D01*
X032506Y028812D01*
X032498Y028803D01*
X032489Y028795D01*
X032481Y02879D01*
X032476Y028786D01*
X032472Y028783D01*
X03247Y028782D01*
X032457Y028776D01*
X032442Y028772D01*
X032427Y028768D01*
X032413Y028766D01*
X032401Y028766D01*
X032391Y028765D01*
X032383D01*
X032364Y028766D01*
X032347Y028767D01*
X032332Y02877D01*
X032319Y028774D01*
X032309Y028777D01*
X032302Y02878D01*
X032297Y028782D01*
X032295Y028783D01*
X032283Y028791D01*
X032271Y028799D01*
X032261Y028808D01*
X032253Y028816D01*
X032246Y028824D01*
X032241Y02883D01*
X032238Y028834D01*
X032237Y028836D01*
X03223Y028849D01*
X032223Y028864D01*
X032217Y028877D01*
X032213Y02889D01*
X03221Y028902D01*
X032208Y028912D01*
X032207Y028914D01*
X032206Y028917D01*
Y028918D01*
Y028919D01*
X032202Y028939D01*
X0322Y028958D01*
X032198Y028976D01*
X032196Y028993D01*
Y029008D01*
X032195Y029014D01*
Y029019D01*
Y029024D01*
Y029027D01*
Y029029D01*
Y02903D01*
Y029052D01*
X032196Y029073D01*
X032198Y029091D01*
X032199Y029108D01*
X032201Y029121D01*
X032203Y029131D01*
Y029135D01*
X032204Y029137D01*
Y029138D01*
Y029139D01*
X032208Y029157D01*
X032211Y029173D01*
X032216Y029187D01*
X03222Y029199D01*
X032225Y029209D01*
X032229Y029216D01*
X032231Y02922D01*
X032232Y029222D01*
X032239Y029234D01*
X032249Y029244D01*
X032258Y029253D01*
X032266Y02926D01*
X032274Y029266D01*
X032281Y029271D01*
X032284Y029273D01*
X032286Y029274D01*
X0323Y02928D01*
X032314Y029284D01*
X032329Y029287D01*
X032342Y02929D01*
X032355Y029291D01*
X032364Y029292D01*
X032373D01*
X032391Y029291D01*
D02*
G37*
G36*
X022923Y02898D02*
X022933Y028978D01*
X022944Y028976D01*
X022953Y028973D01*
X022961Y028969D01*
X022968Y028967D01*
X022972Y028965D01*
X022972Y028964D01*
X022984Y028958D01*
X022995Y028951D01*
X023004Y028942D01*
X023014Y028936D01*
X023022Y028928D01*
X023027Y028922D01*
X023031Y028918D01*
X023032Y028917D01*
Y028958D01*
X023033Y028963D01*
X023034Y028964D01*
X023036Y028966D01*
X023038Y028968D01*
X02304Y028969D01*
X023041D01*
X023045Y02897D01*
X023048Y028971D01*
X023051Y028972D01*
X023053D01*
X02306Y028973D01*
X023066Y028974D01*
X023082D01*
X023089Y028973D01*
X023093Y028972D01*
X023095D01*
X023099Y028971D01*
X023103Y02897D01*
X023106Y028969D01*
X023107D01*
X02311Y028967D01*
X023112Y028966D01*
X023114Y028965D01*
Y028964D01*
X023116Y02896D01*
Y028959D01*
Y028958D01*
Y028607D01*
X023115Y028602D01*
X023114Y028601D01*
Y0286D01*
X023112Y028598D01*
X023109Y028596D01*
X023107Y028595D01*
X023106D01*
X023101Y028594D01*
X023096Y028593D01*
X023093Y028593D01*
X023091D01*
X023083Y028592D01*
X023057D01*
X023049Y028593D01*
X023043D01*
X023036Y028593D01*
X023031Y028594D01*
X023028Y028595D01*
X023027D01*
X023023Y028597D01*
X023022Y028598D01*
X02302Y0286D01*
X023018Y028602D01*
X023017Y028605D01*
Y028606D01*
Y028607D01*
Y028839D01*
X023009Y028849D01*
X023002Y028857D01*
X022996Y028864D01*
X02299Y02887D01*
X022984Y028874D01*
X02298Y028877D01*
X022978Y028879D01*
X022977Y02888D01*
X022971Y028885D01*
X022963Y028889D01*
X022957Y02889D01*
X02295Y028892D01*
X022946Y028893D01*
X022942Y028894D01*
X022939D01*
X022928Y028893D01*
X02292Y028891D01*
X022915Y028889D01*
X022913Y028889D01*
X022905Y028884D01*
X022899Y028878D01*
X022896Y028874D01*
X022895Y028873D01*
Y028872D01*
X02289Y028864D01*
X022886Y028856D01*
X022884Y02885D01*
X022883Y028848D01*
Y028847D01*
X022882Y028841D01*
X022881Y028835D01*
X022879Y028821D01*
Y028815D01*
Y028811D01*
Y028808D01*
Y028807D01*
Y028607D01*
X022878Y028602D01*
X022877Y028601D01*
Y0286D01*
X022875Y028598D01*
X022873Y028596D01*
X022871Y028595D01*
X02287D01*
X022865Y028594D01*
X02286Y028593D01*
X022856Y028593D01*
X022854D01*
X022847Y028592D01*
X022821D01*
X022813Y028593D01*
X022806D01*
X0228Y028593D01*
X022795Y028594D01*
X022792Y028595D01*
X022791D01*
X022787Y028597D01*
X022785Y028598D01*
X022783Y0286D01*
X022781Y028602D01*
X02278Y028605D01*
Y028606D01*
Y028607D01*
Y028824D01*
Y028838D01*
X022781Y02885D01*
X022782Y028861D01*
X022783Y02887D01*
X022785Y028878D01*
X022786Y028884D01*
X022787Y028888D01*
Y028889D01*
X02279Y028899D01*
X022794Y028908D01*
X022797Y028916D01*
X0228Y028923D01*
X022804Y028929D01*
X022806Y028933D01*
X022808Y028936D01*
X022809Y028937D01*
X022822Y02895D01*
X022835Y02896D01*
X022841Y028963D01*
X022846Y028966D01*
X022849Y028967D01*
X022849Y028968D01*
X022859Y028972D01*
X022869Y028976D01*
X022879Y028978D01*
X022889Y028979D01*
X022898Y02898D01*
X022904Y028981D01*
X02291D01*
X022923Y02898D01*
D02*
G37*
G36*
X021543Y029111D02*
X02156Y02911D01*
X021575Y029107D01*
X021588Y029103D01*
X021597Y029099D01*
X021605Y029096D01*
X02161Y029094D01*
X021612Y029093D01*
X021624Y029086D01*
X021636Y029077D01*
X021646Y029068D01*
X021654Y02906D01*
X021661Y029052D01*
X021667Y029046D01*
X021669Y029042D01*
X02167Y02904D01*
X021678Y029027D01*
X021685Y029012D01*
X021691Y028998D01*
X021694Y028986D01*
X021698Y028973D01*
X0217Y028964D01*
X021701Y028961D01*
Y028958D01*
X021702Y028957D01*
Y028956D01*
X021705Y028937D01*
X021708Y028918D01*
X02171Y0289D01*
X021711Y028883D01*
Y028868D01*
X021712Y028862D01*
Y028857D01*
Y028852D01*
Y028849D01*
Y028847D01*
Y028846D01*
Y028824D01*
X021711Y028803D01*
X021709Y028785D01*
X021708Y028768D01*
X021706Y028755D01*
X021705Y028744D01*
Y028741D01*
X021704Y028738D01*
Y028737D01*
Y028736D01*
X0217Y028718D01*
X021696Y028703D01*
X021691Y028689D01*
X021687Y028677D01*
X021683Y028667D01*
X021679Y02866D01*
X021677Y028656D01*
X021676Y028654D01*
X021668Y028642D01*
X021659Y028632D01*
X02165Y028623D01*
X021642Y028616D01*
X021634Y02861D01*
X021628Y028606D01*
X021624Y028603D01*
X021622Y028602D01*
X021609Y028596D01*
X021594Y028593D01*
X021579Y028589D01*
X021566Y028587D01*
X021553Y028586D01*
X021543Y028585D01*
X021535D01*
X021517Y028586D01*
X021499Y028588D01*
X021484Y028591D01*
X021471Y028594D01*
X021462Y028597D01*
X021454Y0286D01*
X021449Y028602D01*
X021447Y028603D01*
X021435Y028611D01*
X021423Y028619D01*
X021414Y028628D01*
X021405Y028637D01*
X021398Y028644D01*
X021394Y02865D01*
X021391Y028654D01*
X02139Y028656D01*
X021382Y028669D01*
X021375Y028684D01*
X02137Y028697D01*
X021366Y028711D01*
X021362Y028722D01*
X02136Y028732D01*
X021359Y028735D01*
X021358Y028738D01*
Y028739D01*
Y02874D01*
X021354Y028759D01*
X021352Y028778D01*
X02135Y028796D01*
X021348Y028814D01*
Y028828D01*
X021347Y028835D01*
Y028839D01*
Y028844D01*
Y028847D01*
Y028849D01*
Y02885D01*
Y028872D01*
X021348Y028893D01*
X02135Y028912D01*
X021351Y028928D01*
X021353Y028941D01*
X021355Y028951D01*
Y028955D01*
X021356Y028958D01*
Y028959D01*
Y02896D01*
X02136Y028977D01*
X021364Y028993D01*
X021369Y029008D01*
X021372Y029019D01*
X021377Y029029D01*
X021381Y029037D01*
X021383Y02904D01*
X021384Y029042D01*
X021392Y029054D01*
X021401Y029064D01*
X02141Y029073D01*
X021419Y029081D01*
X021426Y029086D01*
X021433Y029091D01*
X021437Y029093D01*
X021439Y029094D01*
X021452Y0291D01*
X021467Y029105D01*
X021481Y029108D01*
X021494Y029111D01*
X021507Y029111D01*
X021517Y029112D01*
X021525D01*
X021543Y029111D01*
D02*
G37*
%LPC*%
G36*
X030782Y030246D02*
X030775D01*
X030763Y030245D01*
X030753Y030243D01*
X030749Y030242D01*
X030747Y030241D01*
X030746Y03024D01*
X030745D01*
X030736Y030235D01*
X030729Y03023D01*
X030724Y030226D01*
X030724Y030225D01*
Y030224D01*
X030719Y030216D01*
X030715Y030207D01*
X030713Y030202D01*
X030712Y0302D01*
Y030199D01*
X03071Y030187D01*
X030708Y030176D01*
Y030171D01*
Y030167D01*
Y030165D01*
Y030164D01*
X030709Y030151D01*
X03071Y030139D01*
X030711Y030134D01*
X030712Y030132D01*
X030713Y03013D01*
Y030129D01*
X030717Y030117D01*
X030722Y030108D01*
X030724Y030105D01*
X030725Y030102D01*
X030727Y030101D01*
Y0301D01*
X030734Y030091D01*
X030742Y030085D01*
X030748Y030082D01*
X030749Y030081D01*
X030749D01*
X03076Y030078D01*
X030771Y030076D01*
X030774Y030075D01*
X030781D01*
X030794Y030076D01*
X030804Y030079D01*
X030808Y03008D01*
X030811Y030081D01*
X030813Y030082D01*
X030814D01*
X030823Y030088D01*
X03083Y030096D01*
X030835Y030102D01*
X030837Y030104D01*
Y030105D01*
X03084Y030111D01*
X030843Y030118D01*
X030847Y030132D01*
X030848Y030139D01*
X030849Y030144D01*
X03085Y030148D01*
Y030149D01*
X030851Y030159D01*
X030852Y030172D01*
X030853Y030183D01*
Y030194D01*
X030854Y030205D01*
Y030212D01*
Y030217D01*
Y030219D01*
X030848Y030223D01*
X030843Y030227D01*
X030839Y030229D01*
X030837Y03023D01*
X03083Y030232D01*
X030823Y030235D01*
X03082Y030236D01*
X030818Y030237D01*
X03081Y03024D01*
X030803Y030242D01*
X030798Y030243D01*
X030797D01*
X030789Y030245D01*
X030782Y030246D01*
D02*
G37*
G36*
X034124Y030432D02*
X034072D01*
X034054Y030431D01*
X034039Y03043D01*
X034027Y030428D01*
X034015Y030426D01*
X034006Y030423D01*
X034Y030421D01*
X033996Y03042D01*
X033995Y030419D01*
X033984Y030414D01*
X033975Y030408D01*
X033967Y030403D01*
X033959Y030397D01*
X033954Y030391D01*
X03395Y030387D01*
X033948Y030384D01*
X033947Y030383D01*
X03394Y030375D01*
X033934Y030365D01*
X033929Y030355D01*
X033926Y030348D01*
X033923Y03034D01*
X033921Y030334D01*
X033919Y030329D01*
Y030329D01*
X033914Y030305D01*
X033912Y030294D01*
X033911Y030284D01*
X03391Y030275D01*
Y030268D01*
Y030264D01*
Y030262D01*
Y030246D01*
X033912Y030231D01*
X033913Y030218D01*
X033915Y030206D01*
X033917Y030198D01*
X033919Y03019D01*
X03392Y030186D01*
X033921Y030184D01*
X033925Y030173D01*
X033929Y030162D01*
X033934Y030153D01*
X033939Y030144D01*
X033943Y030137D01*
X033947Y030132D01*
X033949Y03013D01*
X03395Y030129D01*
X033957Y030121D01*
X033965Y030114D01*
X033974Y030108D01*
X033981Y030104D01*
X033988Y030101D01*
X033994Y030098D01*
X033998Y030097D01*
X033999Y030096D01*
X03401Y030092D01*
X034022Y03009D01*
X034034Y030088D01*
X034045Y030086D01*
X034054D01*
X034063Y030085D01*
X034124D01*
Y030432D01*
D02*
G37*
G36*
X033221Y030434D02*
X033164D01*
X033155Y030433D01*
X03315Y030432D01*
X033148D01*
X03314Y030431D01*
X033135Y03043D01*
X033131Y030429D01*
X033129D01*
X03312Y030427D01*
X033112Y030423D01*
X033106Y030419D01*
X0331Y030415D01*
X033096Y030411D01*
X033093Y030408D01*
X033092Y030406D01*
X033091Y030405D01*
X033088Y030399D01*
X033085Y030392D01*
X033081Y030378D01*
Y030372D01*
X03308Y030367D01*
Y030364D01*
Y030363D01*
X033081Y030351D01*
X033083Y030341D01*
X033084Y030337D01*
X033085Y030335D01*
X033086Y030333D01*
Y030332D01*
X03309Y030324D01*
X033096Y030317D01*
X033101Y030312D01*
X033102Y03031D01*
X033103D01*
X033112Y030304D01*
X03312Y030299D01*
X033124Y030297D01*
X033127Y030296D01*
X033129Y030295D01*
X03313D01*
X033142Y030292D01*
X033155Y030291D01*
X033161Y03029D01*
X033221D01*
Y030434D01*
D02*
G37*
G36*
X03456Y030438D02*
X034553D01*
X03454Y030437D01*
X034527Y030436D01*
X034517Y030434D01*
X034508Y030431D01*
X0345Y030428D01*
X034495Y030427D01*
X034492Y030426D01*
X034491Y030425D01*
X034481Y03042D01*
X034473Y030414D01*
X034467Y030407D01*
X034461Y030402D01*
X034456Y030397D01*
X034453Y030392D01*
X034451Y030389D01*
X03445Y030388D01*
X034441Y03037D01*
X034437Y03036D01*
X034433Y030352D01*
X034431Y030344D01*
X034429Y030338D01*
X034428Y030334D01*
Y030332D01*
X034424Y030307D01*
X034423Y030295D01*
X034422Y030283D01*
X034421Y030274D01*
Y030266D01*
Y030261D01*
Y030259D01*
Y030246D01*
X034422Y030233D01*
X034423Y030222D01*
X034424Y030211D01*
X034426Y030203D01*
X034427Y030196D01*
X034428Y030192D01*
Y03019D01*
X034431Y030179D01*
X034435Y030167D01*
X034439Y030157D01*
X034443Y030149D01*
X034446Y030142D01*
X034448Y030137D01*
X03445Y030133D01*
X034451Y030132D01*
X034457Y030124D01*
X034464Y030116D01*
X034471Y030109D01*
X034477Y030105D01*
X034484Y0301D01*
X034488Y030097D01*
X034492Y030095D01*
X034493Y030094D01*
X034502Y030089D01*
X034513Y030086D01*
X034523Y030083D01*
X034534Y030083D01*
X034543Y030082D01*
X034549Y030081D01*
X034556D01*
X034569Y030082D01*
X034582Y030083D01*
X034593Y030084D01*
X034602Y030086D01*
X03461Y030088D01*
X034615Y03009D01*
X034618Y030092D01*
X034619D01*
X034628Y030097D01*
X034636Y030103D01*
X034643Y030109D01*
X034649Y030115D01*
X034654Y03012D01*
X034657Y030125D01*
X034659Y030128D01*
X03466Y030129D01*
X034669Y030148D01*
X034673Y030157D01*
X034676Y030166D01*
X034678Y030174D01*
X03468Y03018D01*
X034681Y030184D01*
Y030185D01*
X034684Y030211D01*
X034686Y030224D01*
Y030235D01*
X034687Y030246D01*
Y030254D01*
Y030258D01*
Y03026D01*
Y030274D01*
X034686Y030286D01*
X034685Y030298D01*
X034684Y030308D01*
X034683Y030317D01*
X034682Y030323D01*
X034681Y030328D01*
Y030329D01*
X034678Y03034D01*
X034674Y030352D01*
X034671Y030361D01*
X034667Y030369D01*
X034664Y030376D01*
X034662Y030381D01*
X03466Y030384D01*
X034659Y030385D01*
X034652Y030394D01*
X034645Y030402D01*
X034639Y030408D01*
X034632Y030413D01*
X034626Y030418D01*
X034621Y030421D01*
X034618Y030423D01*
X034618Y030424D01*
X034607Y030428D01*
X034596Y030432D01*
X034586Y030434D01*
X034575Y030436D01*
X034567Y030437D01*
X03456Y030438D01*
D02*
G37*
G36*
X031197Y030441D02*
X031193D01*
X031185Y03044D01*
X031177Y030439D01*
X031172Y030438D01*
X03117Y030437D01*
X031163Y030433D01*
X031156Y030429D01*
X031152Y030427D01*
X03115Y030425D01*
X031144Y030418D01*
X03114Y030411D01*
X031137Y030405D01*
X031136Y030403D01*
Y030403D01*
X031131Y030391D01*
X031128Y030379D01*
X031127Y030375D01*
X031126Y030371D01*
X031125Y030368D01*
Y030367D01*
X031122Y030351D01*
X03112Y030335D01*
Y030329D01*
X031119Y030324D01*
Y03032D01*
Y030319D01*
X031118Y030298D01*
Y030287D01*
X031117Y030278D01*
Y030269D01*
Y030261D01*
Y030257D01*
Y030255D01*
Y030234D01*
X031118Y030225D01*
Y030217D01*
Y03021D01*
X031119Y030206D01*
Y030202D01*
Y030201D01*
X031119Y030183D01*
X03112Y030176D01*
X031121Y030169D01*
X031122Y030163D01*
Y030159D01*
X031123Y030157D01*
Y030156D01*
X031126Y030142D01*
X031129Y030132D01*
X031131Y030127D01*
X031132Y030124D01*
X031133Y030122D01*
Y030121D01*
X031138Y030111D01*
X031143Y030104D01*
X031146Y030099D01*
X031148Y030097D01*
X031155Y03009D01*
X031162Y030086D01*
X031167Y030083D01*
X031168Y030083D01*
X031168D01*
X031177Y03008D01*
X031186Y030079D01*
X03119Y030078D01*
X031195D01*
X031209Y030079D01*
X03122Y030082D01*
X031224Y030083D01*
X031227Y030084D01*
X031229Y030085D01*
X03123D01*
X031235Y030089D01*
X03124Y030094D01*
X031247Y030104D01*
X03125Y030108D01*
X031252Y030111D01*
X031254Y030114D01*
Y030115D01*
X031257Y030124D01*
X03126Y030133D01*
X031263Y030142D01*
X031265Y030152D01*
X031266Y030159D01*
X031267Y030166D01*
X031267Y03017D01*
Y030172D01*
X031268Y030186D01*
X031269Y030201D01*
X03127Y030216D01*
Y030231D01*
X031271Y030243D01*
Y030254D01*
Y030257D01*
Y03026D01*
Y030261D01*
Y030262D01*
Y030279D01*
X03127Y030293D01*
Y030306D01*
X031269Y030317D01*
Y030327D01*
X031268Y030333D01*
Y030337D01*
Y030339D01*
X031267Y030352D01*
X031265Y030362D01*
X031263Y030372D01*
X031261Y030379D01*
X031259Y030386D01*
X031257Y030391D01*
X031256Y030394D01*
Y030395D01*
X031252Y030403D01*
X031248Y03041D01*
X031244Y030416D01*
X031241Y030421D01*
X031238Y030425D01*
X031235Y030428D01*
X031233Y030428D01*
X031232Y030429D01*
X031226Y030433D01*
X031219Y030436D01*
X031207Y03044D01*
X031201D01*
X031197Y030441D01*
D02*
G37*
G36*
X021935Y028836D02*
X021928D01*
X021915Y028835D01*
X021906Y028833D01*
X021902Y028832D01*
X021899Y028831D01*
X021898Y02883D01*
X021897D01*
X021888Y028825D01*
X021882Y028819D01*
X021877Y028815D01*
X021876Y028815D01*
Y028814D01*
X021871Y028806D01*
X021867Y028797D01*
X021865Y028791D01*
X021864Y02879D01*
Y028789D01*
X021863Y028777D01*
X021861Y028765D01*
Y028761D01*
Y028757D01*
Y028755D01*
Y028754D01*
X021862Y028741D01*
X021863Y028729D01*
X021864Y028724D01*
X021864Y028721D01*
X021865Y028719D01*
Y028718D01*
X021869Y028707D01*
X021874Y028698D01*
X021877Y028694D01*
X021878Y028692D01*
X02188Y028691D01*
Y02869D01*
X021887Y028681D01*
X021894Y028675D01*
X0219Y028671D01*
X021901Y02867D01*
X021902D01*
X021913Y028667D01*
X021923Y028666D01*
X021927Y028665D01*
X021934D01*
X021946Y028666D01*
X021957Y028668D01*
X021961Y028669D01*
X021963Y02867D01*
X021965Y028671D01*
X021966D01*
X021976Y028678D01*
X021983Y028686D01*
X021987Y028692D01*
X021989Y028693D01*
Y028694D01*
X021992Y028701D01*
X021995Y028708D01*
X021999Y028722D01*
X022001Y028729D01*
X022002Y028734D01*
X022003Y028738D01*
Y028739D01*
X022004Y028749D01*
X022005Y028762D01*
X022006Y028773D01*
Y028784D01*
X022007Y028794D01*
Y028802D01*
Y028807D01*
Y028809D01*
X022001Y028813D01*
X021995Y028816D01*
X021991Y028818D01*
X021989Y028819D01*
X021983Y028822D01*
X021976Y028825D01*
X021972Y028826D01*
X02197Y028827D01*
X021962Y02883D01*
X021956Y028832D01*
X021951Y028833D01*
X021949D01*
X021941Y028835D01*
X021935Y028836D01*
D02*
G37*
G36*
X023365Y028756D02*
X023312D01*
Y028696D01*
X023318Y028689D01*
X023325Y028683D01*
X023331Y028677D01*
X023337Y028672D01*
X023342Y028669D01*
X023345Y028667D01*
X023347Y028666D01*
X023348Y028665D01*
X023362Y028659D01*
X023374Y028656D01*
X023379D01*
X023383Y028655D01*
X023387D01*
X023395Y028656D01*
X023403Y028657D01*
X02341Y028659D01*
X023415Y028662D01*
X023419Y028664D01*
X023422Y028666D01*
X023424Y028667D01*
X023425Y028667D01*
X02343Y028672D01*
X023433Y028678D01*
X023437Y028689D01*
X023438Y028693D01*
X023439Y028697D01*
Y0287D01*
Y028701D01*
X023438Y028711D01*
X023436Y028717D01*
X023435Y028722D01*
X023434Y028724D01*
X023429Y028731D01*
X023424Y028737D01*
X02342Y028741D01*
X023418Y028741D01*
X02341Y028746D01*
X023401Y028749D01*
X023397Y02875D01*
X023394Y028751D01*
X023392Y028752D01*
X023391D01*
X023378Y028754D01*
X023365Y028756D01*
D02*
G37*
G36*
X033881Y02909D02*
X033874D01*
X033861Y029089D01*
X03385Y029086D01*
X03384Y029083D01*
X033833Y029079D01*
X033827Y029074D01*
X033823Y02907D01*
X03382Y029067D01*
X033819Y029066D01*
X033813Y029057D01*
X033809Y029046D01*
X033806Y029036D01*
X033804Y029025D01*
X033803Y029015D01*
X033802Y029008D01*
Y029003D01*
Y029002D01*
Y029001D01*
X03395D01*
X033949Y029014D01*
X033947Y029025D01*
Y02903D01*
X033946Y029033D01*
X033945Y029035D01*
Y029036D01*
X03394Y029047D01*
X033935Y029056D01*
X033932Y029062D01*
X033931Y029062D01*
Y029063D01*
X033923Y029072D01*
X033915Y029078D01*
X03391Y029082D01*
X033909Y029083D01*
X033908D01*
X033896Y029087D01*
X033886Y029089D01*
X033881Y02909D01*
D02*
G37*
G36*
X032381Y02921D02*
X032377D01*
X032368Y02921D01*
X03236Y029209D01*
X032356Y029208D01*
X032354Y029207D01*
X032346Y029203D01*
X032339Y029199D01*
X032335Y029196D01*
X032333Y029194D01*
X032328Y029187D01*
X032323Y029181D01*
X03232Y029175D01*
X032319Y029173D01*
Y029172D01*
X032314Y02916D01*
X032311Y029149D01*
X03231Y029144D01*
X032309Y02914D01*
X032309Y029137D01*
Y029136D01*
X032306Y02912D01*
X032304Y029105D01*
Y029098D01*
X032303Y029093D01*
Y029089D01*
Y029088D01*
X032301Y029067D01*
Y029057D01*
X0323Y029047D01*
Y029038D01*
Y029031D01*
Y029027D01*
Y029025D01*
Y029004D01*
X032301Y028994D01*
Y028987D01*
Y02898D01*
X032302Y028975D01*
Y028971D01*
Y02897D01*
X032303Y028953D01*
X032304Y028945D01*
X032305Y028939D01*
X032306Y028933D01*
Y028929D01*
X032307Y028926D01*
Y028925D01*
X032309Y028912D01*
X032312Y028901D01*
X032314Y028896D01*
X032315Y028893D01*
X032316Y028891D01*
Y02889D01*
X032321Y028881D01*
X032326Y028873D01*
X03233Y028868D01*
X032332Y028866D01*
X032338Y02886D01*
X032345Y028856D01*
X03235Y028853D01*
X032351Y028852D01*
X032352D01*
X03236Y028849D01*
X032369Y028848D01*
X032373Y028847D01*
X032379D01*
X032392Y028848D01*
X032404Y028851D01*
X032407Y028853D01*
X03241Y028854D01*
X032412Y028855D01*
X032413D01*
X032418Y028859D01*
X032423Y028864D01*
X032431Y028873D01*
X032433Y028878D01*
X032435Y028881D01*
X032437Y028884D01*
Y028885D01*
X03244Y028893D01*
X032443Y028903D01*
X032446Y028912D01*
X032448Y028921D01*
X032449Y028929D01*
X03245Y028936D01*
X032451Y028939D01*
Y028941D01*
X032452Y028956D01*
X032453Y02897D01*
X032454Y028986D01*
Y029D01*
X032455Y029013D01*
Y029023D01*
Y029027D01*
Y02903D01*
Y029031D01*
Y029032D01*
Y029048D01*
X032454Y029062D01*
Y029076D01*
X032453Y029086D01*
Y029096D01*
X032452Y029103D01*
Y029107D01*
Y029109D01*
X03245Y029121D01*
X032448Y029132D01*
X032446Y029141D01*
X032444Y029149D01*
X032442Y029156D01*
X03244Y02916D01*
X032439Y029163D01*
Y029164D01*
X032435Y029172D01*
X032432Y02918D01*
X032428Y029185D01*
X032424Y02919D01*
X032421Y029194D01*
X032418Y029197D01*
X032416Y029198D01*
X032415Y029199D01*
X032409Y029203D01*
X032403Y029206D01*
X03239Y02921D01*
X032384D01*
X032381Y02921D01*
D02*
G37*
G36*
X021533Y029031D02*
X021529D01*
X02152Y02903D01*
X021513Y029029D01*
X021508Y029028D01*
X021506Y029027D01*
X021498Y029023D01*
X021492Y029019D01*
X021488Y029016D01*
X021486Y029014D01*
X02148Y029008D01*
X021475Y029001D01*
X021472Y028995D01*
X021471Y028993D01*
Y028992D01*
X021467Y028981D01*
X021464Y028969D01*
X021463Y028964D01*
X021462Y028961D01*
X021461Y028958D01*
Y028957D01*
X021458Y02894D01*
X021456Y028925D01*
Y028918D01*
X021455Y028914D01*
Y02891D01*
Y028909D01*
X021453Y028888D01*
Y028877D01*
X021452Y028867D01*
Y028859D01*
Y028851D01*
Y028847D01*
Y028845D01*
Y028824D01*
X021453Y028815D01*
Y028807D01*
Y0288D01*
X021454Y028795D01*
Y028791D01*
Y02879D01*
X021455Y028773D01*
X021456Y028765D01*
X021457Y028759D01*
X021458Y028753D01*
Y028749D01*
X021459Y028746D01*
Y028745D01*
X021462Y028732D01*
X021465Y028721D01*
X021467Y028716D01*
X021468Y028714D01*
X021469Y028712D01*
Y028711D01*
X021473Y028701D01*
X021478Y028693D01*
X021482Y028689D01*
X021484Y028687D01*
X021491Y02868D01*
X021497Y028676D01*
X021502Y028673D01*
X021503Y028672D01*
X021504D01*
X021513Y028669D01*
X021521Y028668D01*
X021525Y028667D01*
X021531D01*
X021544Y028668D01*
X021556Y028671D01*
X02156Y028673D01*
X021563Y028674D01*
X021565Y028675D01*
X021566D01*
X02157Y028679D01*
X021575Y028684D01*
X021583Y028693D01*
X021586Y028698D01*
X021588Y028701D01*
X02159Y028704D01*
Y028705D01*
X021593Y028714D01*
X021595Y028723D01*
X021598Y028732D01*
X0216Y028741D01*
X021601Y028749D01*
X021602Y028756D01*
X021603Y02876D01*
Y028762D01*
X021604Y028776D01*
X021605Y02879D01*
X021606Y028806D01*
Y02882D01*
X021607Y028833D01*
Y028843D01*
Y028847D01*
Y02885D01*
Y028851D01*
Y028852D01*
Y028868D01*
X021606Y028883D01*
Y028896D01*
X021605Y028907D01*
Y028916D01*
X021604Y028923D01*
Y028927D01*
Y028929D01*
X021602Y028941D01*
X0216Y028952D01*
X021598Y028962D01*
X021596Y028969D01*
X021594Y028976D01*
X021593Y028981D01*
X021592Y028984D01*
Y028985D01*
X021588Y028992D01*
X021584Y029D01*
X02158Y029006D01*
X021576Y029011D01*
X021573Y029014D01*
X02157Y029017D01*
X021568Y029018D01*
X021568Y029019D01*
X021562Y029023D01*
X021555Y029026D01*
X021543Y02903D01*
X021537D01*
X021533Y029031D01*
D02*
G37*
%LPD*%
D17*
X037993Y029552D02*
D03*
X018307D02*
D03*
D18*
X029922Y03467D02*
D03*
Y033784D02*
D03*
Y032898D02*
D03*
D19*
X028552Y030733D02*
D03*
X027748D02*
D03*
Y03467D02*
D03*
D20*
X028552D02*
D03*
M02*
